<svg width="55" height="10" viewBox="0 0 55 10" fill="none" xmlns="http://www.w3.org/2000/svg">
<path d="M1.61133 8.08008H5.53711L5.37305 9H0.345703L1.82812 0.46875H2.93555L1.61133 8.08008ZM7.6582 9H6.60352L7.70508 2.66016H8.75977L7.6582 9ZM8.53125 0.345703C8.71094 0.337891 8.85938 0.392578 8.97656 0.509766C9.09766 0.623047 9.1582 0.773438 9.1582 0.960938C9.1543 1.14453 9.09375 1.29492 8.97656 1.41211C8.86328 1.5293 8.71484 1.5918 8.53125 1.59961C8.34766 1.60742 8.19727 1.55469 8.08008 1.44141C7.96289 1.32813 7.90625 1.17969 7.91016 0.996094C7.91406 0.8125 7.97266 0.660156 8.08594 0.539062C8.19922 0.417969 8.34766 0.353516 8.53125 0.345703ZM13.3184 7.2832C13.377 6.8457 13.1367 6.53711 12.5977 6.35742L11.4961 6.03516C10.5664 5.71484 10.1172 5.18359 10.1484 4.44141C10.1758 3.88281 10.4297 3.42578 10.9102 3.07031C11.3945 2.71094 11.9629 2.53516 12.6152 2.54297C13.2559 2.55078 13.7754 2.73828 14.1738 3.10547C14.5762 3.46875 14.7695 3.94336 14.7539 4.5293L13.6992 4.52344C13.707 4.20703 13.6074 3.94922 13.4004 3.75C13.1934 3.55078 12.918 3.44727 12.5742 3.43945C12.207 3.43164 11.8906 3.52148 11.625 3.70898C11.3789 3.88477 11.2363 4.11523 11.1973 4.40039C11.1465 4.76758 11.3711 5.03516 11.8711 5.20312L12.4043 5.34961C13.1309 5.53711 13.6465 5.78125 13.9512 6.08203C14.2559 6.38281 14.3965 6.75586 14.373 7.20117C14.3496 7.5957 14.2207 7.93945 13.9863 8.23242C13.752 8.52539 13.4395 8.75 13.0488 8.90625C12.6582 9.05859 12.2422 9.12891 11.8008 9.11719C11.1289 9.10938 10.5742 8.91406 10.1367 8.53125C9.69922 8.14453 9.48828 7.64844 9.50391 7.04297L10.5645 7.04883C10.5645 7.4043 10.6777 7.68945 10.9043 7.9043C11.1309 8.11914 11.4414 8.22656 11.8359 8.22656C12.2227 8.23438 12.5566 8.1543 12.8379 7.98633C13.1191 7.81445 13.2793 7.58008 13.3184 7.2832ZM18.252 1.125L17.9824 2.66016H19.1367L18.9902 3.49805H17.8418L17.1797 7.44141C17.168 7.54297 17.166 7.63672 17.1738 7.72266C17.2012 8.02734 17.3672 8.17969 17.6719 8.17969C17.8008 8.17969 17.9727 8.16016 18.1875 8.12109L18.1055 9.00586C17.8516 9.07617 17.5938 9.11133 17.332 9.11133C16.9102 9.10352 16.5938 8.94922 16.3828 8.64844C16.1719 8.34375 16.0898 7.93555 16.1367 7.42383L16.7812 3.49805H15.6621L15.8086 2.66016H16.9277L17.1973 1.125H18.252ZM23.1973 9C23.1699 8.88672 23.1562 8.77539 23.1562 8.66602L23.1738 8.33203C22.5918 8.87109 21.9746 9.13281 21.3223 9.11719C20.7637 9.10938 20.3086 8.93359 19.957 8.58984C19.6094 8.24219 19.4512 7.80859 19.4824 7.28906C19.5215 6.61719 19.8145 6.09375 20.3613 5.71875C20.9121 5.33984 21.6348 5.15039 22.5293 5.15039L23.6367 5.15625L23.707 4.65234C23.7461 4.27344 23.6719 3.97461 23.4844 3.75586C23.3008 3.5332 23.0234 3.41797 22.6523 3.41016C22.2891 3.40234 21.9668 3.49219 21.6855 3.67969C21.4082 3.86328 21.2383 4.10742 21.1758 4.41211L20.1094 4.41797C20.1445 4.04688 20.2891 3.71875 20.543 3.43359C20.7969 3.14453 21.123 2.92188 21.5215 2.76562C21.9199 2.60547 22.332 2.5293 22.7578 2.53711C23.418 2.55273 23.9316 2.75391 24.2988 3.14062C24.666 3.52344 24.8203 4.0332 24.7617 4.66992L24.2461 7.81055L24.2168 8.26172C24.209 8.47656 24.2324 8.68945 24.2871 8.90039L24.2754 9H23.1973ZM21.5332 8.17969C21.873 8.1875 22.1934 8.10742 22.4941 7.93945C22.7988 7.76758 23.0605 7.53125 23.2793 7.23047L23.5078 5.92383L22.7051 5.91797C22.0371 5.91797 21.5254 6.02344 21.1699 6.23438C20.8145 6.44531 20.6133 6.74414 20.5664 7.13086C20.5312 7.42773 20.5996 7.67578 20.7715 7.875C20.9473 8.07031 21.2012 8.17188 21.5332 8.17969ZM30.9609 7.51758L33.2461 2.66016H34.3652L31.1719 9H30.3633L29.1211 2.66016H30.1641L30.9609 7.51758ZM38.1387 9C38.1113 8.88672 38.0977 8.77539 38.0977 8.66602L38.1152 8.33203C37.5332 8.87109 36.916 9.13281 36.2637 9.11719C35.7051 9.10938 35.25 8.93359 34.8984 8.58984C34.5508 8.24219 34.3926 7.80859 34.4238 7.28906C34.4629 6.61719 34.7559 6.09375 35.3027 5.71875C35.8535 5.33984 36.5762 5.15039 37.4707 5.15039L38.5781 5.15625L38.6484 4.65234C38.6875 4.27344 38.6133 3.97461 38.4258 3.75586C38.2422 3.5332 37.9648 3.41797 37.5938 3.41016C37.2305 3.40234 36.9082 3.49219 36.627 3.67969C36.3496 3.86328 36.1797 4.10742 36.1172 4.41211L35.0508 4.41797C35.0859 4.04688 35.2305 3.71875 35.4844 3.43359C35.7383 3.14453 36.0645 2.92188 36.4629 2.76562C36.8613 2.60547 37.2734 2.5293 37.6992 2.53711C38.3594 2.55273 38.873 2.75391 39.2402 3.14062C39.6074 3.52344 39.7617 4.0332 39.7031 4.66992L39.1875 7.81055L39.1582 8.26172C39.1504 8.47656 39.1738 8.68945 39.2285 8.90039L39.2168 9H38.1387ZM36.4746 8.17969C36.8145 8.1875 37.1348 8.10742 37.4355 7.93945C37.7402 7.76758 38.002 7.53125 38.2207 7.23047L38.4492 5.92383L37.6465 5.91797C36.9785 5.91797 36.4668 6.02344 36.1113 6.23438C35.7559 6.44531 35.5547 6.74414 35.5078 7.13086C35.4727 7.42773 35.541 7.67578 35.7129 7.875C35.8887 8.07031 36.1426 8.17188 36.4746 8.17969ZM41.8477 8.11523H45.4102L45.252 9H40.3652L40.5117 8.15039L44.666 3.55664H41.3555L41.5195 2.66016H46.1836L46.043 3.48047L41.8477 8.11523ZM47.6426 9H46.5879L47.6895 2.66016H48.7441L47.6426 9ZM48.5156 0.345703C48.6953 0.337891 48.8438 0.392578 48.9609 0.509766C49.082 0.623047 49.1426 0.773438 49.1426 0.960938C49.1387 1.14453 49.0781 1.29492 48.9609 1.41211C48.8477 1.5293 48.6992 1.5918 48.5156 1.59961C48.332 1.60742 48.1816 1.55469 48.0645 1.44141C47.9473 1.32813 47.8906 1.17969 47.8945 0.996094C47.8984 0.8125 47.957 0.660156 48.0703 0.539062C48.1836 0.417969 48.332 0.353516 48.5156 0.345703ZM53.2559 9C53.2285 8.88672 53.2148 8.77539 53.2148 8.66602L53.2324 8.33203C52.6504 8.87109 52.0332 9.13281 51.3809 9.11719C50.8223 9.10938 50.3672 8.93359 50.0156 8.58984C49.668 8.24219 49.5098 7.80859 49.541 7.28906C49.5801 6.61719 49.873 6.09375 50.4199 5.71875C50.9707 5.33984 51.6934 5.15039 52.5879 5.15039L53.6953 5.15625L53.7656 4.65234C53.8047 4.27344 53.7305 3.97461 53.543 3.75586C53.3594 3.5332 53.082 3.41797 52.7109 3.41016C52.3477 3.40234 52.0254 3.49219 51.7441 3.67969C51.4668 3.86328 51.2969 4.10742 51.2344 4.41211L50.168 4.41797C50.2031 4.04688 50.3477 3.71875 50.6016 3.43359C50.8555 3.14453 51.1816 2.92188 51.5801 2.76562C51.9785 2.60547 52.3906 2.5293 52.8164 2.53711C53.4766 2.55273 53.9902 2.75391 54.3574 3.14062C54.7246 3.52344 54.8789 4.0332 54.8203 4.66992L54.3047 7.81055L54.2754 8.26172C54.2676 8.47656 54.291 8.68945 54.3457 8.90039L54.334 9H53.2559ZM51.5918 8.17969C51.9316 8.1875 52.252 8.10742 52.5527 7.93945C52.8574 7.76758 53.1191 7.53125 53.3379 7.23047L53.5664 5.92383L52.7637 5.91797C52.0957 5.91797 51.584 6.02344 51.2285 6.23438C50.873 6.44531 50.6719 6.74414 50.625 7.13086C50.5898 7.42773 50.6582 7.67578 50.8301 7.875C51.0059 8.07031 51.2598 8.17188 51.5918 8.17969Z" fill="#CCCCCC"/>
</svg>
