<svg width="1148" height="314" viewBox="0 0 1148 314" fill="none" xmlns="http://www.w3.org/2000/svg">
<path d="M30.9915 87.8361C35.3831 73.8724 29.6079 60.6419 41.2651 51.7886C53.0139 42.8656 64.3031 51.1612 79.0428 51.7886C104.231 52.8608 118.259 55.3477 143.171 59.2144C162.486 62.2121 183.618 66.6041 186.176 72.7683C188.375 78.0672 193.571 83.4572 192.376 99.4074C191.489 111.259 194.225 125.878 192.376 137.618C190.152 151.746 192.376 174.242 192.376 174.242C192.376 174.242 196.74 168.171 200.956 167.393C209.746 165.77 205.327 182.486 200.956 190.283C194.873 201.133 192.376 223.483 186.293 223.483C183.218 223.483 179.219 220.022 179.219 220.022C179.219 220.022 170.633 247.794 159.176 261.801C152.27 270.247 147.639 274.591 138.593 280.69C120.945 292.589 107.447 300.536 86.5047 296.731C73.1175 294.299 65.9852 291.038 55.0352 282.961C49.0467 278.544 40.8826 269.525 35.3894 264.505C26.1737 256.084 23.9631 256.959 18.3749 245.796C14.3714 237.799 14.7827 233.548 13.2201 223.483L9.21884 197.709C9.21884 197.709 7.89271 200.291 6.37109 201.133C2.17881 203.455 1.94755 194.893 0.639539 190.283C-1.81968 181.615 3.61254 176.402 3.52334 167.393C3.44064 159.04 -1.52523 154.265 0.639539 146.197C1.88136 141.569 2.5324 138.215 6.37109 135.347C13.1111 130.31 10.274 152.676 9.42677 158.549C9.98979 154.86 11.6102 144.587 13.2201 137.618C17.8665 117.505 24.7985 107.528 30.9915 87.8361Z" fill="#E2B297"/>
<path d="M16.4014 132.572C9.37214 161.395 9.264 157.264 9.264 157.264C9.264 157.264 11.2105 143.638 10.2732 139.204C9.86981 137.296 7.71396 134.915 7.71396 134.915H7.71387C7.71387 134.915 12.44 121.87 15.7165 104.527C18.5973 89.2784 15.0923 75.0235 19.5263 60.1523C23.5504 46.6557 25.8819 34.2702 32.5507 23.528C39.2195 12.7859 47.0876 6.09979 61.4247 3.99029C89.1091 -0.0830814 98.1593 -1.58616 122.129 2.76466C144.686 6.85923 161.746 9.71509 182.292 19.8872C200.64 28.9712 205.362 34.4144 211.526 51.9335C214.945 61.648 207.192 105.476 204.641 115.449C200.64 131.094 200.64 167.394 200.64 167.394C200.64 167.394 196.718 169.151 194.8 171.431C192.176 174.551 191.052 181.596 191.052 181.596C191.052 181.596 188.475 157.802 189.141 141.331C189.806 124.86 192.313 123.002 192.313 119.342C192.313 112.853 192.514 109.211 192.313 102.724C192.083 95.3068 193.408 90.8004 191.052 83.7634C188.971 77.55 187.481 73.4543 182.292 69.4525C176.684 65.1273 164.773 64.7664 164.773 64.7664L127.716 56.7278C127.716 56.7278 102.107 53.3724 81.359 51.9335C71.6501 51.2601 59.37 48.5089 59.37 48.5089C59.37 48.5089 49.9509 47.6829 45.9604 49.4101C40.9344 51.5855 38.536 55.0763 36.4799 60.1523C33.0193 68.6955 34.3651 72.2238 32.5507 80.9878C31.1136 87.9294 29.708 91.6855 27.5401 98.4347C23.7654 110.186 19.3194 120.607 16.4014 132.572Z" fill="#5C402B"/>
<path d="M98.4455 193.051C93.9936 193.058 88.6766 186.058 88.6766 187.175C88.6766 187.175 83.2441 190.331 81.0706 191.717C75.8043 195.074 74.6166 195.453 68.9586 198.097C62.3606 201.181 57.4927 200.9 51.8361 205.487C48.2402 208.403 45.5792 210.057 44.0498 214.427C42.6872 218.32 44.0498 224.989 44.0498 224.989C48.0511 220.627 49.493 219.762 53.2059 217.815C59.1927 214.677 62.896 213.631 68.9586 210.642C72.8833 208.707 74.7544 206.865 78.9077 205.487C83.4598 203.977 86.2661 203.437 91.0558 203.685C94.6125 203.869 95.4614 205.551 99.0223 205.487C102.294 205.429 104.909 203.538 108.178 203.685C111.616 203.839 113.354 205.164 116.541 206.46C120.822 208.201 123.154 209.409 127.067 211.868C131.762 214.818 134.352 216.676 138.242 220.627C142.45 224.9 145.92 229.387 145.92 229.387C145.92 229.387 150.739 220.845 147.398 214.427C145.92 211.587 144.662 210.137 142.207 208.083C139.329 205.675 137.014 205.376 133.664 203.685C129.252 201.457 125.939 201.451 122.309 198.097C120.605 196.523 120.186 195.138 118.524 193.519C115.128 190.213 108.178 187.175 108.178 187.175C108.178 187.175 102.885 193.043 98.4455 193.051Z" fill="#5C402B" fill-opacity="0.71"/>
<path d="M78.9077 246.617C77.4137 244.477 82.9811 239.949 84.4951 238.723C86.9822 236.71 89.825 240.924 94.5884 240.814C100.09 240.686 104.429 237.389 106.304 237.389C109.091 237.389 114.244 244.308 112.684 246.617C110.81 249.393 100.536 246.617 100.825 248.672C101.69 254.836 101.609 256.103 103.925 259.342C106.501 262.946 106.457 263.095 110.305 265.29C114.784 267.845 120.147 271.56 125.301 271.382C130.675 271.197 131.015 269.099 135.538 266.191C138.062 264.569 142.449 263.987 143.397 266.191C144.345 268.395 143.397 271.346 136.872 281.007C134.698 284.226 127.833 289.99 124.544 291.713C117.731 295.282 114.91 295.28 106.304 296.615C96.0931 298.199 95.021 297.625 83.2695 297.625C77.5843 297.625 72.5543 295.173 67.5528 292.47C62.6898 289.841 56.6657 285.854 52.521 282.196C49.9093 279.38 43.4 271.56 42.0672 267.957C41.3046 265.896 41.6782 264.541 42.9323 263.055C44.8336 260.803 47.6064 261.905 50.476 263.045L50.5023 263.055C58.3967 266.191 59.1063 267.513 65.1736 267.957C71.385 268.412 73.077 267.479 78.9077 265.29C82.1354 264.078 86.7301 260.351 86.7301 260.351C89.5778 255.341 91.5244 251.808 91.0558 249.501C90.5871 247.194 81.5753 250.438 78.9077 246.617Z" fill="#5C402B" fill-opacity="0.71"/>
<path d="M149.741 246.617C149.92 241.991 148.768 237.679 152.625 235.118C155.792 233.016 159.027 236.95 162.358 235.118C166.832 232.657 176.808 226.38 174.902 231.117C172.379 237.389 172.039 240.904 169.027 246.617C166.441 251.522 166.114 253.698 162.358 258.369C158.602 263.04 151.724 269.435 151.724 269.435C151.724 269.435 152.701 263.916 152.625 260.351C152.508 254.872 149.529 252.094 149.741 246.617Z" fill="#5C402B" fill-opacity="0.71"/>
<path d="M17.2666 244.175C12.8688 234.442 14.0338 226.037 12.7246 217.815C12.7246 217.815 18.2555 229.263 22.3493 231.117C26.8353 233.149 30.1947 230.81 34.317 233.505C36.7853 235.118 34.4314 243.202 31.7216 246.617C29.4551 249.474 30.0995 259.342 30.0995 259.342C24.8362 255.341 21.6644 253.908 17.2666 244.175Z" fill="#5C402B" fill-opacity="0.71"/>
<path d="M16.4375 160.535C16.4375 156.859 18.3066 155.214 19.3573 154.948C20.4081 154.682 21.2575 154.309 22.133 154.948C23.5534 155.985 21.2576 157.55 20.6551 159.202C20.165 160.545 20.599 161.917 19.3573 162.626C17.7713 163.533 16.4375 162.362 16.4375 160.535Z" fill="#5C402B"/>
<path d="M63.6595 113.133C73.649 115.692 89.3974 119.333 89.3974 119.333L93.4347 109.492C93.4347 109.492 88.5391 108.731 85.4321 108.086C79.4938 106.855 76.3193 105.523 70.4364 104.049C63.8511 102.399 60.256 100.759 53.4941 100.156C49.0912 99.7632 46.3732 98.7718 42.1751 100.156C37.4772 101.705 35.4731 104.293 32.2981 108.086C30.539 110.188 29.5222 111.423 28.405 113.926C26.7796 117.567 26.6387 123.983 26.6387 123.983C26.6387 123.983 29.437 118.811 30.6039 117.279C33.0825 114.023 32.4329 113.898 35.8308 111.619C39.8422 108.929 43.1859 109.385 48.0148 109.492C54.3229 109.632 57.5472 111.567 63.6595 113.133Z" fill="#5C402B" fill-opacity="0.59"/>
<path d="M123.39 122.217L118.812 117.279C118.812 117.279 123.185 116.387 126.022 116.053C132.537 115.285 136.271 115.673 142.82 116.053C147.594 116.33 150.391 116.017 155.004 117.279C160.591 118.806 164.858 120.155 169.675 123.371C175.726 127.409 180.136 131.3 182.003 138.33C182.889 141.664 182.003 145.36 182.003 145.36C182.003 145.36 174.308 136.723 168.233 132.635C164.523 130.137 162.493 128.325 158.176 127.156C153.312 125.837 150.311 127.156 145.271 127.156C140.865 127.156 138.294 128.092 133.988 127.156C129.526 126.185 123.39 122.217 123.39 122.217Z" fill="#5C402B" fill-opacity="0.59"/>
<path d="M92.0655 139.232V121.208C92.0655 121.208 98.7873 124.376 103.42 125.029C108.067 125.684 115.424 124.488 115.424 124.488C115.424 124.488 110.356 133.161 110.486 139.232C110.578 143.547 112.797 146.805 113.73 151.019C114.781 155.771 115.965 157.003 115.965 162.194C115.965 163.312 130.997 163.564 130.997 178.163C130.997 181.271 127.964 183.553 125.085 184.724C118.524 187.391 105.078 181.443 105.078 181.443C105.078 181.443 124.472 180.687 121.156 178.163C117.84 175.64 114.399 176.732 110.486 178.163C107.133 179.389 106.448 180.11 102.735 183.246C102.735 183.246 98.1328 186.378 94.6609 185.841C91.215 185.308 90.9699 184.005 88.6049 181.443C86.2399 178.881 86.5502 178.163 81.3954 174.883C79.3764 173.598 75.2673 172.49 75.2673 174.883C75.2673 178.163 77.9751 178.201 81.3954 179.389C84.8157 180.576 86.5499 181.443 86.5499 181.443C86.5499 181.443 79.6059 187.12 75.2673 185.841C72.4556 185.012 68.1688 182.485 67.1203 178.163C66.2541 174.592 67.1554 171.797 68.7063 168.466C71.1894 163.134 81.3954 159.707 81.3954 159.707C81.8039 157.796 83.5222 153.218 86.5499 148.64C89.5775 144.062 89.1093 144.819 92.0655 139.232Z" fill="#F2D5BF"/>
<path d="M65.8946 214.823C62.022 216.989 54.792 218.572 54.792 218.572C54.792 218.572 58.3709 219.814 63.3353 220.266C68.4056 220.728 77.6039 220.426 82.6928 220.266C88.0818 220.097 87.827 220.266 93.2186 220.266C98.6244 220.266 101.415 219.901 106.809 220.266C112.624 220.66 116.815 221.212 122.633 221.564C127.018 221.829 130.888 223.627 134.962 221.564C134.962 221.564 132.658 219.305 130.42 217.716C126.815 215.156 122.963 212.977 118.452 210.786C115.263 209.237 113.634 207.296 110.089 207.253C107.49 207.222 105.325 208.375 102.807 209.019C99.8663 209.772 99.1375 210.847 96.1024 210.786C92.0994 210.705 90.4735 207.508 86.4778 207.253C82.8987 207.025 80.8856 207.939 77.4659 209.019C72.6454 210.542 70.1482 212.444 65.8946 214.823Z" fill="#C67577"/>
<path d="M65.8946 229.747C61.9846 226.724 54.792 220.266 54.792 220.266C54.792 220.266 59.9391 221.762 63.3353 222.033C66.9043 222.317 68.9125 221.67 72.4913 221.564C77.3881 221.419 80.1369 221.564 85.0359 221.564C91.5678 221.564 95.2322 221.392 101.762 221.564C107.849 221.724 111.272 221.786 117.334 222.357C120.17 222.624 124.58 223.186 124.58 223.186H133.88C133.88 223.186 125.393 229.547 119.425 232.018C113.513 234.465 109.979 235.444 103.672 236.524C93.2186 238.314 90.1185 237.929 80.5299 236.524C74.1736 235.592 70.9772 233.676 65.8946 229.747Z" fill="#C67577"/>
<path d="M125.487 178.127L128.713 153.342L153.498 156.568L125.487 178.127Z" fill="#C69024"/>
<path d="M158.354 85.3071L148.669 159.706L153.533 155.963L162.657 85.8673L158.354 85.3071Z" fill="#C69024"/>
<path d="M151.995 155.875L123.984 177.434L53.888 168.31L66.2383 73.4282L161.12 85.7785L151.995 155.875Z" fill="#FCC24C"/>
<path d="M123.985 177.434L127.211 152.649L151.996 155.875L123.985 177.434Z" fill="#DEA42E"/>
<path d="M109.726 67.0454L120.716 68.476L117.633 92.1624L106.642 90.7317L109.726 67.0454Z" fill="#F4EFED"/>
<path d="M86.0153 122.581C85.4167 122.617 85.0993 122.336 85.0632 121.737C85.0511 121.537 85.0908 121.365 85.1821 121.219C85.2934 121.072 85.4053 120.935 85.5178 120.808C85.6291 120.661 85.7122 120.546 85.7673 120.463C87.4778 118.277 89.0826 116.828 90.5818 116.116C90.8739 115.979 91.1197 115.904 91.3192 115.892C91.9179 115.856 92.2353 116.137 92.2714 116.735C92.2919 117.075 91.9913 117.403 91.3696 117.721C90.7467 118.019 90.0092 118.574 89.157 119.387C88.3049 120.199 87.6381 120.931 87.1566 121.581C86.6951 122.229 86.3147 122.563 86.0153 122.581ZM94.5081 133.874L95.4515 133.577C96.0501 133.541 96.3675 133.822 96.4037 134.42C96.4302 134.859 96.1501 135.197 95.5635 135.433C95.2116 135.574 94.856 135.656 94.4968 135.677C94.1576 135.698 93.8235 135.638 93.4946 135.497C93.1657 135.357 92.9018 135.133 92.7029 134.824C92.3723 134.323 92.119 133.778 91.9432 133.188L91.7927 132.686C91.4884 133.285 90.7013 134.014 89.4313 134.872C88.1812 135.728 86.8179 136.201 85.3412 136.29C84.543 136.338 83.8265 136.081 83.1917 135.519C82.557 134.956 82.2155 134.276 82.1672 133.478C82.0504 131.542 82.7473 129.818 84.2581 128.305C85.7677 126.771 87.3407 125.955 88.977 125.857C89.8749 125.802 90.6534 125.926 91.3125 126.226C91.9903 126.506 92.3394 126.815 92.3599 127.154C92.396 127.753 92.1148 128.07 91.5162 128.107C91.3964 128.114 91.1011 128.032 90.6301 127.86C90.159 127.688 89.6442 127.619 89.0854 127.653C88.0079 127.718 86.8625 128.318 85.6493 129.452C84.4348 130.567 83.8728 131.873 83.9632 133.369C83.9813 133.669 84.1179 133.941 84.373 134.186C84.6468 134.41 84.9334 134.512 85.2328 134.494C86.4101 134.423 87.4889 134.048 88.4693 133.368C89.4484 132.668 90.0656 132.11 90.3208 131.694C90.5749 131.258 90.7815 130.865 90.9406 130.515C91.0997 130.165 91.2162 129.937 91.2899 129.833C91.3825 129.707 91.5784 129.635 91.8777 129.617C92.1771 129.599 92.4132 129.695 92.5861 129.905C92.759 130.114 92.9297 130.455 93.0983 130.925C93.2657 131.376 93.4367 131.886 93.6114 132.456C93.786 133.026 93.9292 133.408 94.041 133.602C94.1728 133.794 94.3285 133.885 94.5081 133.874ZM101.574 136.722C101.444 136.569 101.057 136.132 100.413 135.41C99.7685 134.688 99.3275 134.184 99.0899 133.898C98.8711 133.591 98.554 133.149 98.1387 132.573C97.4175 131.575 97.0244 130.538 96.9593 129.46C96.8943 128.383 97.1264 127.417 97.6556 126.564C98.2049 125.71 98.9285 125.256 99.8264 125.201C100.724 125.147 101.529 125.369 102.24 125.867C102.951 126.365 103.446 127.106 103.726 128.09C103.776 128.247 103.805 128.406 103.815 128.565C103.851 129.164 103.57 129.482 102.971 129.518C102.532 129.544 102.215 129.263 102.019 128.674C101.667 127.494 101.032 126.931 100.114 126.986C99.6156 127.017 99.2515 127.289 99.0223 127.803C98.8117 128.297 98.7209 128.783 98.7498 129.262C98.7788 129.741 98.8645 130.166 99.0072 130.538C99.1697 130.909 99.4158 131.335 99.7452 131.815C100.093 132.275 100.376 132.638 100.592 132.906C101.177 133.632 101.94 134.497 102.882 135.501C104.14 134.444 105.423 133.645 106.733 133.106C107.143 132.941 107.378 132.856 107.438 132.853C108.037 132.817 108.354 133.098 108.391 133.697C108.417 134.136 108.137 134.473 107.55 134.709C106.396 135.159 105.209 135.891 103.988 136.906C105.014 138.307 105.557 139.505 105.617 140.503C105.677 141.501 105.339 142.523 104.601 143.569C103.864 144.635 103.027 145.196 102.089 145.253C101.151 145.309 100.353 145.037 99.6962 144.436C99.0391 143.834 98.6816 143.055 98.6237 142.097C98.5346 140.62 99.5179 138.829 101.574 136.722ZM102.68 138.127C101.118 139.784 100.364 141.071 100.42 141.989C100.449 142.468 100.601 142.839 100.877 143.103C101.154 143.366 101.511 143.485 101.95 143.458C102.409 143.431 102.838 143.074 103.238 142.389C103.657 141.703 103.848 141.061 103.812 140.462C103.777 139.883 103.4 139.105 102.68 138.127ZM113.571 120.286C113.89 120.266 114.228 120.396 114.585 120.675C114.942 120.934 115.129 121.223 115.149 121.542C115.167 121.842 115.041 122.08 114.771 122.256C114.521 122.431 114.237 122.529 113.917 122.548C113.598 122.567 113.32 122.444 113.084 122.178C112.866 121.89 112.747 121.577 112.727 121.238C112.691 120.639 112.972 120.322 113.571 120.286ZM111.549 131.583C110.504 132.848 109.418 133.775 108.292 134.363C107.943 134.545 107.658 134.642 107.439 134.655C106.84 134.691 106.523 134.41 106.487 133.812C106.464 133.432 106.744 133.105 107.328 132.829C107.641 132.69 108.045 132.426 108.542 132.035C109.059 131.643 109.402 131.352 109.571 131.162C109.74 130.971 110.029 130.624 110.439 130.118C110.869 129.611 111.207 129.231 111.452 128.975C111.695 128.7 112.029 128.42 112.452 128.134C112.896 127.847 113.307 127.692 113.686 127.669C114.464 127.622 115.08 127.865 115.533 128.399C115.985 128.932 116.272 129.536 116.393 130.209C116.721 131.992 117.124 132.869 117.603 132.84C117.982 132.817 118.465 132.688 119.052 132.452C119.638 132.216 119.962 132.097 120.022 132.093C120.62 132.057 120.938 132.338 120.974 132.937C121 133.376 120.72 133.713 120.134 133.949C119.078 134.373 118.211 134.606 117.532 134.647C116.874 134.686 116.318 134.44 115.865 133.906C115.412 133.373 115.126 132.769 115.005 132.095C114.677 130.313 114.273 129.436 113.794 129.465C113.535 129.481 113.246 129.668 112.927 130.028C112.627 130.366 112.383 130.642 112.196 130.853C112.007 131.045 111.792 131.288 111.549 131.583ZM130.598 134.158C128.683 134.274 126.989 132.934 125.519 130.139C124.835 130.761 123.966 131.454 122.911 132.219C121.855 132.984 121.163 133.456 120.833 133.636C120.503 133.796 120.227 133.883 120.008 133.896C119.409 133.932 119.092 133.651 119.056 133.052C119.033 132.673 119.313 132.346 119.898 132.07C120.228 131.91 120.912 131.448 121.947 130.685C123.001 129.9 123.889 129.176 124.609 128.511C124.084 127.101 123.768 125.518 123.662 123.762C123.501 121.108 123.852 118.784 124.713 116.789C125.592 114.773 126.641 113.729 127.858 113.655C128.377 113.624 128.835 113.756 129.234 114.053C129.632 114.349 129.936 114.731 130.144 115.199C130.539 116.097 130.769 117.084 130.834 118.162C130.899 119.239 130.845 120.344 130.674 121.476C130.5 122.588 130.267 123.533 129.974 124.312C129.7 125.09 129.354 125.822 128.935 126.508C128.315 127.526 127.654 128.357 126.952 129.001C128.173 131.31 129.352 132.431 130.49 132.362C131.268 132.315 132.097 132.115 132.977 131.761C133.857 131.408 134.327 131.229 134.387 131.225C134.985 131.189 135.303 131.47 135.339 132.069C135.365 132.508 135.085 132.845 134.499 133.081C132.856 133.741 131.556 134.1 130.598 134.158ZM127.966 115.451C127.627 115.471 127.213 115.917 126.725 116.788C125.714 118.611 125.291 120.9 125.458 123.653C125.542 125.05 125.766 126.269 126.129 127.308C126.75 126.65 127.311 125.815 127.81 124.803C128.775 122.862 129.179 120.605 129.023 118.031C128.989 117.452 128.874 116.878 128.679 116.309C128.483 115.72 128.246 115.434 127.966 115.451Z" fill="#11145F"/>
<path d="M307.35 111.699C306.702 111.699 305.447 111.861 303.584 112.185C301.803 112.428 299.697 112.752 297.268 113.157C294.838 113.562 292.287 114.048 289.615 114.615C286.942 115.101 284.432 115.546 282.083 115.951C279.735 116.356 277.71 116.72 276.01 117.044C274.228 117.287 273.054 117.409 272.487 117.409C267.061 117.409 264.348 114.574 264.348 108.906C264.348 107.367 264.51 105.869 264.834 104.411C265.077 102.872 265.563 101.496 266.292 100.281C267.02 98.9851 267.992 97.8919 269.207 97.0011C270.422 96.1102 271.96 95.5029 273.823 95.1789C283.298 93.7212 292.733 92.1826 302.127 90.5629C311.521 88.9432 320.996 87.2426 330.552 85.4609C332.657 85.056 334.56 84.6916 336.261 84.3677C337.962 83.9628 339.865 83.4364 341.97 82.7885C344.238 82.1406 346.708 81.5333 349.38 80.9664C352.053 80.3185 354.725 79.7516 357.398 79.2657C360.151 78.7798 362.783 78.3749 365.293 78.051C367.885 77.7271 370.233 77.5651 372.339 77.5651C374.93 77.5651 376.874 78.4154 378.17 80.1161C379.547 81.7357 380.235 84.0437 380.235 87.0401C380.235 88.5788 380.113 90.077 379.87 91.5347C379.627 92.9114 379.182 94.1666 378.534 95.3004C377.886 96.4342 376.996 97.3655 375.862 98.0943C374.728 98.8232 373.27 99.2686 371.489 99.4305C366.873 100.078 361.933 100.888 356.669 101.86C351.405 102.751 346.829 103.763 342.942 104.897C341.322 105.383 340.108 106.193 339.298 107.326C338.488 108.379 337.962 109.715 337.719 111.335C337.476 112.874 337.314 114.453 337.233 116.073C337.233 117.611 337.233 119.109 337.233 120.567C337.233 123.968 337.354 127.37 337.597 130.771C337.921 134.172 338.205 137.574 338.448 140.975C339.176 152.636 340.27 164.177 341.727 175.595C343.266 187.014 344.926 198.554 346.708 210.216C346.87 210.62 346.951 211.025 346.951 211.43C346.951 211.835 346.951 212.24 346.951 212.645C346.951 217.099 344.44 220.257 339.419 222.12L333.953 223.821C332.495 224.307 331.078 224.55 329.701 224.55C327.596 224.55 325.895 223.861 324.599 222.484C323.304 221.189 322.453 219.245 322.048 216.654C319.781 202.725 317.797 188.876 316.096 175.109C314.396 161.261 313.302 147.332 312.816 133.322C312.654 131.054 312.533 128.584 312.452 125.912C312.371 123.24 312.33 120.486 312.33 117.652C312.33 113.684 310.67 111.699 307.35 111.699ZM447.653 121.782C444.657 121.782 442.025 122.592 439.757 124.211C437.49 125.75 435.546 127.937 433.927 130.771C432.307 133.524 430.971 136.804 429.918 140.61C428.865 144.336 428.015 148.425 427.367 152.879C426.719 157.334 426.274 161.99 426.031 166.849C425.788 171.708 425.666 176.608 425.666 181.547C425.666 188.026 425.909 194.424 426.395 200.74C426.962 206.976 427.246 212.766 427.246 218.111C427.246 221.594 425.95 224.307 423.358 226.25C420.767 228.275 417.082 229.287 412.304 229.287C411.413 229.287 410.401 229.206 409.267 229.044C408.134 228.882 407.04 228.558 405.988 228.072C405.016 227.586 404.125 226.898 403.315 226.007C402.586 225.197 402.181 224.064 402.1 222.606C401.371 215.479 400.319 208.191 398.942 200.74C397.565 193.29 395.824 185.88 393.719 178.511C391.694 171.06 389.224 163.691 386.309 156.402C383.474 149.114 380.194 141.987 376.469 135.023C375.821 133.808 375.254 132.674 374.768 131.621C374.364 130.569 374.161 129.556 374.161 128.584C374.161 127.37 374.688 126.074 375.74 124.697C376.874 123.24 378.251 121.903 379.87 120.689C381.571 119.474 383.393 118.502 385.337 117.773C387.361 116.963 389.305 116.558 391.168 116.558C394.245 116.558 396.958 118.705 399.306 122.997C401.655 127.208 403.841 133.97 405.866 143.283C406.271 144.903 406.595 146.036 406.838 146.684C407.081 147.332 407.405 147.656 407.81 147.656C408.7 147.656 409.267 146.279 409.51 143.526C410.482 135.832 412.142 129.232 414.491 123.725C416.839 118.138 419.755 113.562 423.237 109.999C426.8 106.355 430.849 103.682 435.384 101.982C440 100.281 445.062 99.4305 450.569 99.4305C453.727 99.4305 456.926 99.714 460.165 100.281C463.405 100.848 466.32 101.698 468.911 102.832C471.503 103.966 473.608 105.342 475.228 106.962C476.848 108.582 477.658 110.404 477.658 112.428C477.658 113.886 477.334 115.627 476.686 117.652C476.119 119.595 475.35 121.498 474.378 123.361C473.406 125.143 472.272 126.681 470.977 127.977C469.762 129.192 468.507 129.799 467.211 129.799C465.753 129.799 464.336 129.394 462.959 128.584C461.582 127.694 460.084 126.762 458.465 125.791C456.926 124.819 455.266 123.928 453.484 123.118C451.783 122.227 449.84 121.782 447.653 121.782ZM573.38 186.042C575.728 184.017 578.036 183.005 580.304 183.005C581.6 183.005 582.774 183.329 583.827 183.977C584.879 184.625 586.054 185.637 587.349 187.014C588.564 188.876 589.414 190.415 589.9 191.63C590.467 192.764 590.751 193.897 590.751 195.031C590.751 197.461 589.536 199.769 587.106 201.955C583.219 205.195 579.008 208.11 574.473 210.701C569.938 213.212 565.2 215.358 560.26 217.14C555.32 218.921 550.219 220.257 544.955 221.148C539.691 222.12 534.467 222.606 529.284 222.606C522.725 222.606 516.57 221.756 510.82 220.055C505.07 218.435 499.928 216.087 495.393 213.009C490.939 209.932 487.173 206.247 484.096 201.955C481.018 197.582 478.832 192.683 477.536 187.257C476.807 184.989 476.119 183.532 475.471 182.884C474.904 182.155 473.932 181.79 472.556 181.79C469.559 181.79 467.251 181.062 465.632 179.604C464.012 178.146 463.202 176.041 463.202 173.287C463.202 172.153 463.283 171.425 463.445 171.101L463.688 168.671C464.093 165.756 464.862 163.65 465.996 162.354C467.211 161.059 469.073 160.411 471.584 160.411H473.406C476.807 160.411 479.196 158.832 480.573 155.673C483.083 150.086 486.282 144.984 490.17 140.368C494.057 135.751 498.43 131.824 503.289 128.584C508.148 125.264 513.331 122.713 518.838 120.932C524.425 119.069 530.094 118.138 535.844 118.138C541.837 118.138 547.425 119.028 552.608 120.81C557.871 122.511 562.447 124.9 566.334 127.977C570.221 131.054 573.258 134.658 575.445 138.788C577.712 142.919 578.846 147.373 578.846 152.151C578.846 155.471 578.198 158.508 576.902 161.261C575.607 164.015 573.744 166.444 571.315 168.55C568.885 170.574 565.929 172.234 562.447 173.53C559.046 174.826 555.159 175.676 550.785 176.081L508.634 180.333C507.014 180.333 505.678 180.738 504.625 181.547C503.653 182.357 503.167 183.451 503.167 184.827C503.167 186.933 503.937 188.957 505.475 190.901C507.095 192.845 509.201 194.586 511.792 196.124C514.464 197.582 517.501 198.756 520.903 199.647C524.385 200.538 527.948 200.983 531.592 200.983C535.075 200.983 538.638 200.66 542.282 200.012C546.007 199.283 549.652 198.271 553.215 196.975C556.859 195.679 560.382 194.14 563.783 192.359C567.185 190.496 570.383 188.391 573.38 186.042ZM546.291 154.702C547.506 154.459 548.558 153.892 549.449 153.001C550.34 152.029 550.785 150.855 550.785 149.478C550.785 148.263 550.34 147.13 549.449 146.077C548.558 145.024 547.344 144.093 545.805 143.283C544.266 142.392 542.485 141.704 540.46 141.218C538.435 140.732 536.289 140.489 534.022 140.489C530.702 140.489 527.3 140.975 523.818 141.947C520.336 142.919 517.177 144.214 514.343 145.834C511.509 147.373 509.201 149.114 507.419 151.057C505.637 152.92 504.746 154.783 504.746 156.645C504.746 158.508 505.88 159.439 508.148 159.439C509.524 159.439 511.752 159.277 514.829 158.953C517.906 158.629 521.308 158.265 525.033 157.86C528.758 157.374 532.524 156.848 536.33 156.281C540.136 155.714 543.456 155.187 546.291 154.702ZM591.965 74.2853C591.965 70.0741 593.18 67.0778 595.61 65.2961C598.039 63.5145 602.048 62.6237 607.636 62.6237C609.579 62.6237 611.28 62.8262 612.738 63.2311C614.195 63.636 615.41 64.3243 616.382 65.2961C617.354 66.187 618.123 67.4422 618.69 69.0619C619.338 70.6005 619.864 72.5846 620.269 75.0141C621.322 82.2216 622.375 89.7935 623.427 97.7299C624.561 105.585 625.614 113.441 626.586 121.296C627.638 129.07 628.61 136.683 629.501 144.133C630.392 151.503 631.161 158.386 631.809 164.784C632.538 171.101 633.064 176.729 633.388 181.669C633.793 186.528 633.996 190.375 633.996 193.209C633.996 196.124 633.712 198.594 633.145 200.619C632.659 202.644 631.769 204.263 630.473 205.478C629.258 206.693 627.638 207.584 625.614 208.15C623.67 208.636 621.241 208.879 618.325 208.879C615.491 208.879 613.223 208.15 611.523 206.693C609.903 205.235 609.093 203.008 609.093 200.012C609.093 196.934 608.85 192.845 608.364 187.743C607.879 182.56 607.231 176.81 606.421 170.493C605.611 164.177 604.68 157.455 603.627 150.328C602.655 143.202 601.602 136.156 600.469 129.192C599.416 122.227 598.363 115.546 597.31 109.149C596.338 102.67 595.448 96.9606 594.638 92.0206C593.828 86.9996 593.18 82.91 592.694 79.7516C592.208 76.5123 591.965 74.6902 591.965 74.2853ZM729.718 106.476C734.172 106.476 738.464 107.164 742.594 108.541C746.724 109.918 750.368 111.821 753.527 114.25C756.685 116.68 759.196 119.595 761.058 122.997C763.002 126.398 763.974 130.164 763.974 134.294C763.974 135.994 763.569 137.655 762.759 139.274C762.03 140.813 761.018 142.19 759.722 143.404C758.426 144.538 756.928 145.469 755.227 146.198C753.608 146.846 751.907 147.17 750.125 147.17C749.964 147.17 749.802 147.211 749.64 147.292C749.559 147.292 749.437 147.292 749.275 147.292C749.113 147.373 748.951 147.413 748.789 147.413L749.275 157.131C749.599 168.712 751.219 177.174 754.134 182.519C757.131 187.864 761.018 190.537 765.796 190.537C767.496 190.537 768.995 190.375 770.29 190.051C771.667 189.727 772.922 189.362 774.056 188.957C775.271 188.472 776.405 188.067 777.457 187.743C778.51 187.419 779.563 187.257 780.616 187.257C782.478 187.257 784.098 188.067 785.475 189.686C786.932 191.306 787.661 193.25 787.661 195.517C787.661 197.785 786.77 200.052 784.989 202.32C783.288 204.587 781.021 206.652 778.186 208.515C775.352 210.297 772.153 211.754 768.59 212.888C765.026 214.022 761.423 214.589 757.778 214.589C751.462 214.589 745.914 211.997 741.136 206.814C736.358 201.55 732.957 193.857 730.932 183.734C730.447 182.114 729.799 181.305 728.989 181.305C728.017 181.305 727.167 181.79 726.438 182.762C718.421 192.885 709.877 200.498 700.807 205.599C691.737 210.62 682.788 213.131 673.961 213.131C669.831 213.131 666.105 212.524 662.785 211.309C659.465 210.094 656.63 208.393 654.282 206.207C652.014 203.939 650.233 201.226 648.937 198.068C647.722 194.829 647.115 191.225 647.115 187.257C647.115 181.669 648.33 175.798 650.759 169.643C653.27 163.488 656.63 157.414 660.842 151.422C665.053 145.429 669.912 139.72 675.419 134.294C681.006 128.868 686.837 124.09 692.911 119.96C699.066 115.83 705.301 112.55 711.618 110.12C717.935 107.691 723.968 106.476 729.718 106.476ZM725.709 148.506C727.167 145.753 728.503 143.769 729.718 142.554C730.932 141.258 732.674 140.408 734.941 140.003C736.723 139.76 737.614 139.193 737.614 138.302C737.614 137.655 737.371 136.966 736.885 136.237C735.346 134.132 733.726 132.31 732.026 130.771C730.325 129.151 728.058 128.342 725.223 128.342C722.146 128.342 718.704 129.232 714.898 131.014C711.092 132.796 707.204 135.185 703.236 138.181C699.349 141.096 695.502 144.457 691.696 148.263C687.971 151.989 684.651 155.835 681.735 159.803C678.82 163.772 676.471 167.699 674.69 171.587C672.908 175.474 672.017 178.956 672.017 182.033C672.017 184.787 672.746 186.933 674.204 188.472C675.742 190.01 677.808 190.78 680.399 190.78C687.04 190.78 694.288 187.257 702.143 180.211C709.998 173.166 717.854 162.597 725.709 148.506ZM753.527 56.1855C753.527 57.4003 752.919 58.5745 751.705 59.7083C750.571 60.8421 748.992 62.0973 746.967 63.474C745.024 64.8507 742.716 66.4704 740.043 68.333C737.371 70.1146 734.536 72.3417 731.54 75.0141C728.624 77.6056 725.588 80.7639 722.429 84.4892C719.271 88.1334 716.194 92.466 713.197 97.4869C712.549 98.6207 711.618 99.3901 710.403 99.795C709.269 100.2 707.974 100.402 706.516 100.402C705.139 100.402 703.763 100.24 702.386 99.9164C701.09 99.5115 699.875 99.0256 698.742 98.4587C697.689 97.8109 696.798 97.082 696.069 96.2722C695.421 95.3814 695.097 94.4501 695.097 93.4783C695.097 91.2917 695.745 88.5788 697.041 85.3395C698.418 82.0192 700.199 78.5774 702.386 75.0141C704.653 71.3699 707.245 67.7661 710.16 64.2029C713.157 60.5586 716.275 57.3193 719.514 54.4849C722.834 51.5695 726.154 49.221 729.475 47.4393C732.876 45.6577 736.156 44.7669 739.314 44.7669C740.772 44.7669 742.311 45.1718 743.93 45.9817C745.631 46.7915 747.17 47.8038 748.546 49.0185C750.004 50.1523 751.178 51.4075 752.069 52.7842C753.041 54.08 753.527 55.2137 753.527 56.1855ZM821.917 107.205C827.343 107.205 832.931 107.934 838.681 109.391C844.43 110.768 849.694 112.59 854.472 114.858C859.25 117.044 863.178 119.514 866.255 122.268C869.333 125.021 870.871 127.694 870.871 130.285C870.871 131.581 870.305 133.039 869.171 134.658C868.037 136.197 866.66 137.695 865.041 139.153C863.421 140.53 861.639 141.704 859.696 142.676C857.833 143.566 856.173 144.012 854.715 144.012C852.772 144.012 850.585 143.202 848.156 141.582C845.807 139.963 843.175 138.181 840.26 136.237C837.425 134.213 834.308 132.391 830.906 130.771C827.505 129.151 823.82 128.342 819.852 128.342C817.261 128.342 815.114 128.989 813.414 130.285C811.794 131.5 810.984 133.241 810.984 135.509C810.984 137.533 811.956 139.598 813.9 141.704C815.843 143.728 818.394 145.834 821.553 148.02C824.792 150.207 828.436 152.515 832.485 154.945C836.535 157.374 840.665 159.965 844.876 162.719C849.168 165.472 853.339 168.469 857.388 171.708C861.437 174.947 865.041 178.47 868.199 182.276C871.438 186.083 874.03 190.253 875.973 194.788C877.917 199.242 878.889 204.101 878.889 209.365C878.889 213.9 878.079 218.03 876.459 221.756C874.84 225.481 872.532 228.68 869.535 231.352C866.539 234.025 862.976 236.09 858.845 237.547C854.715 239.005 850.18 239.734 845.24 239.734C839.005 239.734 833.255 238.762 827.991 236.818C822.727 234.956 818.192 232.364 814.386 229.044C810.579 225.724 807.583 221.756 805.397 217.14C803.291 212.524 802.238 207.462 802.238 201.955C802.238 194.829 803.493 189.646 806.004 186.406C808.595 183.167 812.645 181.547 818.151 181.547C821.553 181.547 824.266 182.195 826.29 183.491C828.315 184.787 829.327 186.366 829.327 188.229C829.327 189.2 829.165 190.213 828.841 191.265C828.517 192.237 828.153 193.29 827.748 194.424C827.424 195.477 827.1 196.61 826.776 197.825C826.533 199.04 826.412 200.255 826.412 201.469C826.412 203.575 826.898 205.599 827.869 207.543C828.841 209.487 830.137 211.187 831.757 212.645C833.457 214.184 835.401 215.398 837.587 216.289C839.774 217.18 842.082 217.625 844.511 217.625C850.99 217.625 854.229 214.953 854.229 209.608C854.229 205.397 852.569 201.429 849.249 197.704C845.929 193.897 841.758 190.213 836.737 186.649C831.716 183.005 826.29 179.361 820.459 175.717C814.71 172.072 809.324 168.266 804.303 164.298C799.282 160.33 795.112 156.119 791.791 151.665C788.471 147.13 786.811 142.23 786.811 136.966C786.811 132.593 787.702 128.584 789.483 124.94C791.346 121.296 793.856 118.178 797.015 115.587C800.173 112.914 803.858 110.849 808.069 109.391C812.361 107.934 816.977 107.205 821.917 107.205ZM913.509 107.205C918.935 107.205 924.523 107.934 930.273 109.391C936.022 110.768 941.286 112.59 946.064 114.858C950.842 117.044 954.77 119.514 957.847 122.268C960.925 125.021 962.463 127.694 962.463 130.285C962.463 131.581 961.897 133.039 960.763 134.658C959.629 136.197 958.252 137.695 956.633 139.153C955.013 140.53 953.231 141.704 951.288 142.676C949.425 143.566 947.765 144.012 946.307 144.012C944.364 144.012 942.177 143.202 939.748 141.582C937.399 139.963 934.767 138.181 931.852 136.237C929.017 134.213 925.899 132.391 922.498 130.771C919.097 129.151 915.412 128.342 911.444 128.342C908.853 128.342 906.706 128.989 905.006 130.285C903.386 131.5 902.576 133.241 902.576 135.509C902.576 137.533 903.548 139.598 905.492 141.704C907.435 143.728 909.986 145.834 913.145 148.02C916.384 150.207 920.028 152.515 924.077 154.945C928.127 157.374 932.257 159.965 936.468 162.719C940.76 165.472 944.931 168.469 948.98 171.708C953.029 174.947 956.633 178.47 959.791 182.276C963.03 186.083 965.622 190.253 967.565 194.788C969.509 199.242 970.481 204.101 970.481 209.365C970.481 213.9 969.671 218.03 968.051 221.756C966.432 225.481 964.124 228.68 961.127 231.352C958.131 234.025 954.568 236.09 950.437 237.547C946.307 239.005 941.772 239.734 936.832 239.734C930.597 239.734 924.847 238.762 919.583 236.818C914.319 234.956 909.784 232.364 905.978 229.044C902.171 225.724 899.175 221.756 896.988 217.14C894.883 212.524 893.83 207.462 893.83 201.955C893.83 194.829 895.085 189.646 897.596 186.406C900.187 183.167 904.236 181.547 909.743 181.547C913.145 181.547 915.858 182.195 917.882 183.491C919.907 184.787 920.919 186.366 920.919 188.229C920.919 189.2 920.757 190.213 920.433 191.265C920.109 192.237 919.745 193.29 919.34 194.424C919.016 195.477 918.692 196.61 918.368 197.825C918.125 199.04 918.004 200.255 918.004 201.469C918.004 203.575 918.49 205.599 919.461 207.543C920.433 209.487 921.729 211.187 923.349 212.645C925.049 214.184 926.993 215.398 929.179 216.289C931.366 217.18 933.674 217.625 936.103 217.625C942.582 217.625 945.821 214.953 945.821 209.608C945.821 205.397 944.161 201.429 940.841 197.704C937.521 193.897 933.35 190.213 928.329 186.649C923.308 183.005 917.882 179.361 912.051 175.717C906.302 172.072 900.916 168.266 895.895 164.298C890.874 160.33 886.704 156.119 883.383 151.665C880.063 147.13 878.403 142.23 878.403 136.966C878.403 132.593 879.294 128.584 881.075 124.94C882.938 121.296 885.448 118.178 888.607 115.587C891.765 112.914 895.45 110.849 899.661 109.391C903.953 107.934 908.569 107.205 913.509 107.205ZM993.075 88.7408C990.727 88.7408 988.499 88.4168 986.394 87.769C984.369 87.0401 982.588 86.0683 981.049 84.8536C979.591 83.5578 978.417 82.0597 977.526 80.359C976.635 78.6584 976.19 76.7957 976.19 74.7712C976.19 71.3699 977.526 68.6164 980.199 66.5109C982.952 64.4053 986.596 63.3525 991.131 63.3525C993.237 63.3525 995.262 63.7575 997.205 64.5673C999.149 65.2961 1000.85 66.3084 1002.31 67.6042C1003.85 68.8999 1005.06 70.4386 1005.95 72.2202C1006.84 73.9208 1007.29 75.7025 1007.29 77.5651C1007.29 81.0474 1005.99 83.8008 1003.4 85.8254C1000.89 87.769 997.448 88.7408 993.075 88.7408ZM976.433 125.791C976.433 122.956 977.648 120.648 980.077 118.867C982.588 117.004 985.868 116.073 989.917 116.073C997.205 116.073 1001.09 118.583 1001.58 123.604C1001.9 127.086 1002.23 131.014 1002.55 135.387C1002.95 139.76 1003.32 144.417 1003.64 149.357C1004.05 154.216 1004.37 159.277 1004.62 164.541C1004.94 169.724 1005.22 174.866 1005.47 179.968C1005.71 184.989 1005.91 189.848 1006.07 194.545C1006.23 199.242 1006.32 203.534 1006.32 207.422C1006.32 211.471 1004.86 214.508 1001.94 216.532C999.108 218.557 994.938 219.569 989.431 219.569C986.92 219.569 984.936 218.962 983.479 217.747C982.102 216.613 981.413 214.913 981.413 212.645C981.413 201.469 981.13 191.023 980.563 181.305C980.077 171.506 979.51 162.8 978.862 155.187C978.296 147.575 977.729 141.258 977.162 136.237C976.676 131.135 976.433 127.653 976.433 125.791ZM1030.37 172.315C1030.37 170.939 1030.53 169.4 1030.85 167.699C1031.18 165.999 1031.34 164.136 1031.34 162.112C1031.34 160.735 1030.73 159.682 1029.52 158.953C1028.38 158.224 1027.09 157.414 1025.63 156.524C1024.17 155.633 1022.84 154.499 1021.62 153.122C1020.49 151.746 1019.92 149.762 1019.92 147.17C1019.92 145.308 1020.41 143.445 1021.38 141.582C1022.43 139.72 1023.93 138.019 1025.87 136.48C1030.65 132.917 1035.59 129.718 1040.69 126.884C1045.88 124.049 1051.02 121.66 1056.12 119.717C1061.3 117.773 1066.41 116.275 1071.43 115.222C1076.45 114.169 1081.27 113.643 1085.88 113.643C1093.66 113.643 1100.94 115.101 1107.75 118.016C1114.63 120.851 1120.58 124.778 1125.6 129.799C1130.71 134.739 1134.71 140.57 1137.63 147.292C1140.63 153.932 1142.12 161.059 1142.12 168.671C1142.12 176.122 1140.55 183.208 1137.39 189.929C1134.31 196.57 1130.14 202.401 1124.88 207.422C1119.61 212.443 1113.42 216.411 1106.29 219.326C1099.24 222.323 1091.79 223.821 1083.94 223.821C1076.24 223.821 1069.12 222.525 1062.56 219.934C1056 217.342 1050.33 213.779 1045.55 209.244C1040.77 204.628 1037.05 199.202 1034.38 192.966C1031.7 186.649 1030.37 179.766 1030.37 172.315ZM1086.61 201.955C1090.01 201.955 1093.53 201.267 1097.18 199.89C1100.82 198.513 1104.14 196.529 1107.14 193.938C1110.22 191.265 1112.73 188.026 1114.67 184.22C1116.7 180.414 1117.71 176.122 1117.71 171.344C1117.71 166.485 1116.82 161.95 1115.04 157.738C1113.25 153.527 1110.78 149.883 1107.63 146.806C1104.55 143.647 1100.86 141.177 1096.57 139.396C1092.36 137.614 1087.78 136.723 1082.84 136.723C1073.86 136.723 1066.97 139.072 1062.19 143.769C1057.42 148.385 1055.03 155.511 1055.03 165.148C1055.03 170.412 1055.8 175.312 1057.34 179.847C1058.95 184.301 1061.18 188.188 1064.02 191.508C1066.85 194.748 1070.17 197.299 1073.98 199.161C1077.86 201.024 1082.08 201.955 1086.61 201.955Z" fill="black"/>
</svg>
