<svg width="1773" height="484" viewBox="0 0 1773 484" fill="none" xmlns="http://www.w3.org/2000/svg">
<path d="M47.8709 135.464C54.6544 113.895 45.7337 93.4585 63.7399 79.7833C81.8877 66.0005 99.3254 78.8142 122.093 79.7833C161 81.4395 182.667 85.2809 221.149 91.2535C250.983 95.8839 283.625 102.668 287.576 112.189C290.972 120.374 298.998 128.7 297.153 153.337C295.782 171.644 300.008 194.225 297.153 212.359C293.717 234.182 297.153 268.93 297.153 268.93C297.153 268.93 303.893 259.553 310.405 258.351C323.983 255.844 317.157 281.664 310.405 293.708C301.009 310.468 297.153 344.99 287.757 344.99C283.007 344.99 276.829 339.645 276.829 339.645C276.829 339.645 263.567 382.541 245.871 404.178C235.202 417.223 228.05 423.935 214.077 433.355C186.817 451.734 165.967 464.01 133.619 458.133C112.941 454.376 101.924 449.338 85.0099 436.863C75.7598 430.04 63.1491 416.108 54.664 408.354C40.4291 395.347 37.0145 396.699 28.3827 379.456C22.1988 367.103 22.834 360.537 20.4204 344.99L14.2398 305.178C14.2398 305.178 12.1914 309.166 9.84107 310.468C3.36549 314.054 3.00828 300.829 0.987861 293.708C-2.81076 280.32 5.58009 272.267 5.44231 258.351C5.31456 245.448 -2.35594 238.074 0.987861 225.611C2.90603 218.461 3.91166 213.282 9.84107 208.851C20.2521 201.071 15.8697 235.618 14.561 244.691C15.4307 238.992 17.9336 223.124 20.4204 212.359C27.5974 181.292 38.3048 165.881 47.8709 135.464Z" fill="#E2B297"/>
<path d="M25.3352 204.564C14.4775 249.085 14.3104 242.705 14.3104 242.705C14.3104 242.705 17.317 221.658 15.8693 214.81C15.2462 211.862 11.9162 208.184 11.9162 208.184H11.916C11.916 208.184 19.2161 188.033 24.2772 161.245C28.7271 137.691 23.3131 115.673 30.162 92.702C36.3778 71.8546 39.9792 52.7233 50.2801 36.1305C60.581 19.5377 72.7345 9.21008 94.8802 5.95164C137.643 -0.340267 151.622 -2.66199 188.646 4.05849C223.49 10.3831 249.841 14.7944 281.577 30.5068C309.919 44.5383 317.213 52.9461 326.734 80.0068C332.014 95.0123 320.039 162.712 316.099 178.116C309.919 202.281 309.919 258.352 309.919 258.352C309.919 258.352 303.861 261.066 300.898 264.588C296.844 269.408 295.108 280.29 295.108 280.29C295.108 280.29 291.129 243.537 292.156 218.095C293.184 192.652 297.056 189.783 297.056 184.13C297.056 174.105 297.367 168.48 297.056 158.461C296.701 147.003 298.748 140.042 295.108 129.173C291.893 119.575 289.592 113.249 281.577 107.068C272.915 100.387 254.516 99.8291 254.516 99.8291L197.277 87.4123C197.277 87.4123 157.72 82.2295 125.672 80.0068C110.675 78.9667 91.7064 74.7171 91.7064 74.7171C91.7064 74.7171 77.1572 73.4413 70.9933 76.1092C63.2299 79.4693 59.5252 84.8614 56.3493 92.702C51.0039 105.898 53.0827 111.348 50.2801 124.885C48.0602 135.608 45.8892 141.41 42.5405 151.835C36.7099 169.986 29.8425 186.082 25.3352 204.564Z" fill="#5C402B"/>
<path d="M152.065 297.983C145.188 297.994 136.975 287.181 136.975 288.907C136.975 288.907 128.584 293.782 125.227 295.923C117.092 301.108 115.257 301.694 106.518 305.778C96.3262 310.541 88.807 310.107 80.0696 317.193C74.5152 321.697 70.405 324.252 68.0426 331.001C65.9379 337.015 68.0426 347.316 68.0426 347.316C74.2231 340.578 76.4503 339.242 82.1854 336.235C91.4329 331.387 97.1532 329.773 106.518 325.155C112.58 322.166 115.47 319.321 121.886 317.193C128.917 314.86 133.252 314.026 140.65 314.409C146.144 314.693 147.455 317.291 152.955 317.193C158.009 317.102 162.049 314.182 167.098 314.409C172.408 314.647 175.092 316.694 180.016 318.696C186.629 321.385 190.231 323.25 196.275 327.048C203.527 331.605 207.527 334.475 213.536 340.578C220.035 347.179 225.396 354.109 225.396 354.109C225.396 354.109 232.84 340.915 227.679 331.001C225.395 326.615 223.453 324.375 219.661 321.202C215.215 317.482 211.639 317.021 206.464 314.409C199.65 310.968 194.532 310.959 188.925 305.778C186.293 303.346 185.646 301.206 183.079 298.707C177.833 293.6 167.098 288.907 167.098 288.907C167.098 288.907 158.922 297.971 152.065 297.983Z" fill="#5C402B" fill-opacity="0.71"/>
<path d="M121.886 380.724C119.578 377.418 128.178 370.423 130.516 368.53C134.358 365.42 138.749 371.931 146.107 371.76C154.605 371.562 161.308 366.47 164.203 366.47C168.508 366.47 176.468 377.156 174.058 380.724C171.163 385.012 155.294 380.724 155.739 383.898C157.076 393.419 156.951 395.376 160.528 400.379C164.508 405.946 164.439 406.176 170.383 409.567C177.302 413.514 185.586 419.251 193.547 418.977C201.847 418.69 202.374 415.45 209.36 410.959C213.258 408.453 220.034 407.555 221.498 410.959C222.963 414.363 221.498 418.921 211.42 433.843C208.062 438.816 197.458 447.719 192.377 450.381C181.854 455.893 177.497 455.891 164.203 457.953C148.431 460.399 146.775 459.512 128.623 459.512C119.841 459.512 112.072 455.725 104.346 451.55C96.8346 447.49 87.5297 441.33 81.1275 435.681C77.0934 431.33 67.0389 419.251 64.9801 413.687C63.8022 410.503 64.3793 408.409 66.3165 406.114C69.2533 402.636 73.5363 404.337 77.9688 406.098L78.0094 406.114C90.2034 410.959 91.2995 413.001 100.671 413.687C110.266 414.39 112.879 412.948 121.886 409.567C126.871 407.695 133.968 401.938 133.968 401.938C138.367 394.199 141.374 388.742 140.65 385.179C139.926 381.615 126.006 386.626 121.886 380.724Z" fill="#5C402B" fill-opacity="0.71"/>
<path d="M231.298 380.724C231.575 373.578 229.794 366.917 235.752 362.962C240.644 359.715 245.642 365.792 250.786 362.962C257.697 359.161 273.107 349.464 270.163 356.782C266.266 366.47 265.74 371.899 261.087 380.724C257.093 388.3 256.588 391.662 250.786 398.876C244.984 406.091 234.36 415.97 234.36 415.97C234.36 415.97 235.87 407.444 235.752 401.938C235.571 393.475 230.97 389.183 231.298 380.724Z" fill="#5C402B" fill-opacity="0.71"/>
<path d="M26.672 376.951C19.879 361.918 21.6785 348.934 19.6562 336.235C19.6562 336.235 28.1996 353.917 34.523 356.782C41.4523 359.92 46.6414 356.308 53.0088 360.47C56.8214 362.962 53.1856 375.448 48.9999 380.724C45.499 385.137 46.4943 400.379 46.4943 400.379C38.3643 394.199 33.465 391.985 26.672 376.951Z" fill="#5C402B" fill-opacity="0.71"/>
<path d="M25.3906 247.759C25.3905 242.079 28.2778 239.54 29.9008 239.128C31.5237 238.717 32.8358 238.141 34.1882 239.128C36.3822 240.73 32.836 243.147 31.9053 245.698C31.1483 247.774 31.8187 249.892 29.9008 250.988C27.4508 252.388 25.3907 250.58 25.3906 247.759Z" fill="#5C402B"/>
<path d="M98.3324 174.538C113.763 178.491 138.088 184.116 138.088 184.116L144.325 168.915C144.325 168.915 136.763 167.739 131.963 166.743C122.791 164.841 117.887 162.784 108.8 160.507C98.6284 157.959 93.0753 155.425 82.6305 154.493C75.8297 153.887 71.6312 152.355 65.1468 154.493C57.8902 156.886 54.7944 160.884 49.8903 166.743C47.173 169.99 45.6025 171.897 43.8768 175.763C41.3661 181.388 41.1484 191.298 41.1484 191.298C41.1484 191.298 45.4709 183.309 47.2733 180.942C51.1019 175.914 50.0985 175.72 55.347 172.2C61.5433 168.044 66.708 168.75 74.167 168.915C83.9107 169.131 88.8911 172.12 98.3324 174.538Z" fill="#5C402B" fill-opacity="0.59"/>
<path d="M190.595 188.57L183.524 180.942C183.524 180.942 190.279 179.565 194.66 179.049C204.723 177.862 210.491 178.461 220.607 179.049C227.981 179.477 232.302 178.994 239.427 180.942C248.057 183.301 254.648 185.385 262.089 190.352C271.435 196.59 278.247 202.599 281.132 213.459C282.5 218.608 281.132 224.317 281.132 224.317C281.132 224.317 269.245 210.977 259.862 204.662C254.13 200.804 250.995 198.005 244.327 196.198C236.813 194.162 232.178 196.198 224.393 196.198C217.587 196.198 213.616 197.644 206.965 196.198C200.073 194.7 190.595 188.57 190.595 188.57Z" fill="#5C402B" fill-opacity="0.59"/>
<path d="M142.208 214.852V187.011C142.208 187.011 152.591 191.904 159.747 192.913C166.925 193.925 178.289 192.078 178.289 192.078C178.289 192.078 170.46 205.474 170.661 214.852C170.804 221.517 174.232 226.549 175.672 233.059C177.296 240.399 179.124 242.302 179.124 250.32C179.124 252.048 202.343 252.436 202.343 274.987C202.343 279.788 197.659 283.312 193.211 285.12C183.077 289.241 162.309 280.053 162.309 280.053C162.309 280.053 192.265 278.884 187.143 274.987C182.021 271.089 176.706 272.777 170.661 274.987C165.482 276.88 164.424 277.993 158.689 282.838C158.689 282.838 151.58 287.676 146.217 286.847C140.895 286.024 140.516 284.011 136.863 280.053C133.21 276.096 133.689 274.987 125.727 269.92C122.608 267.935 116.261 266.223 116.261 269.92C116.261 274.987 120.444 275.045 125.727 276.88C131.01 278.714 133.689 280.053 133.689 280.053C133.689 280.053 122.963 288.823 116.261 286.847C111.918 285.566 105.297 281.663 103.677 274.987C102.339 269.471 103.731 265.153 106.127 260.008C109.962 251.772 125.727 246.478 125.727 246.478C126.358 243.527 129.012 236.456 133.689 229.384C138.365 222.313 137.642 223.482 142.208 214.852Z" fill="#F2D5BF"/>
<path d="M101.784 331.614C95.8025 334.959 84.6348 337.404 84.6348 337.404C84.6348 337.404 90.1629 339.322 97.8311 340.021C105.663 340.735 119.871 340.268 127.732 340.021C136.056 339.761 135.662 340.021 143.99 340.021C152.34 340.021 156.651 339.457 164.982 340.021C173.965 340.63 180.438 341.483 189.426 342.026C196.198 342.435 202.177 345.213 208.468 342.026C208.468 342.026 204.91 338.537 201.453 336.082C195.885 332.128 189.934 328.762 182.967 325.377C178.041 322.985 175.525 319.987 170.049 319.921C166.035 319.872 162.691 321.654 158.801 322.649C154.259 323.811 153.133 325.472 148.445 325.377C142.261 325.253 139.75 320.315 133.578 319.921C128.05 319.568 124.94 320.98 119.658 322.649C112.212 325.002 108.355 327.939 101.784 331.614Z" fill="#C67577"/>
<path d="M101.784 354.665C95.7448 349.996 84.6348 340.021 84.6348 340.021C84.6348 340.021 92.5852 342.332 97.8311 342.75C103.344 343.189 106.446 342.189 111.974 342.026C119.538 341.802 123.784 342.026 131.351 342.026C141.44 342.026 147.101 341.76 157.187 342.026C166.589 342.274 171.876 342.369 181.241 343.251C185.62 343.663 192.432 344.532 192.432 344.532H206.798C206.798 344.532 193.688 354.357 184.47 358.173C175.338 361.954 169.879 363.465 160.138 365.133C143.99 367.898 139.202 367.305 124.391 365.133C114.572 363.694 109.635 360.735 101.784 354.665Z" fill="#C67577"/>
<path d="M193.833 274.931L198.816 236.647L237.1 241.631L193.833 274.931Z" fill="#C69024"/>
<path d="M244.602 131.557L229.643 246.478L237.155 240.696L251.249 132.422L244.602 131.557Z" fill="#C69024"/>
<path d="M234.781 240.559L191.514 273.86L83.2396 259.766L102.316 113.208L248.874 132.285L234.781 240.559Z" fill="#FCC24C"/>
<path d="M191.513 273.86L196.496 235.576L234.78 240.559L191.513 273.86Z" fill="#DEA42E"/>
<path d="M169.49 103.349L186.467 105.559L181.705 142.146L164.728 139.936L169.49 103.349Z" fill="#F4EFED"/>
<path d="M132.821 188.427C131.897 188.483 131.406 188.049 131.351 187.124C131.332 186.816 131.393 186.549 131.534 186.324C131.706 186.097 131.879 185.886 132.053 185.69C132.225 185.463 132.353 185.285 132.438 185.156C135.08 181.779 137.559 179.541 139.875 178.442C140.326 178.23 140.706 178.114 141.014 178.095C141.939 178.039 142.429 178.474 142.485 179.399C142.516 179.923 142.052 180.43 141.092 180.921C140.13 181.381 138.99 182.239 137.674 183.494C136.358 184.749 135.328 185.879 134.584 186.883C133.871 187.885 133.284 188.4 132.821 188.427ZM145.94 205.872L147.397 205.412C148.321 205.357 148.812 205.791 148.868 206.716C148.909 207.394 148.476 207.915 147.57 208.279C147.026 208.497 146.477 208.623 145.922 208.657C145.398 208.689 144.882 208.596 144.374 208.379C143.866 208.162 143.458 207.816 143.151 207.339C142.64 206.566 142.249 205.723 141.978 204.812L141.745 204.037C141.275 204.962 140.059 206.088 138.098 207.413C136.167 208.736 134.061 209.466 131.78 209.604C130.547 209.678 129.44 209.281 128.46 208.412C127.479 207.543 126.952 206.492 126.877 205.26C126.697 202.27 127.773 199.606 130.107 197.269C132.439 194.901 134.869 193.64 137.396 193.488C138.783 193.404 139.986 193.594 141.004 194.059C142.05 194.49 142.59 194.968 142.621 195.492C142.677 196.417 142.243 196.907 141.318 196.963C141.133 196.974 140.677 196.847 139.949 196.582C139.222 196.316 138.427 196.21 137.564 196.262C135.899 196.362 134.13 197.289 132.256 199.042C130.38 200.763 129.512 202.78 129.651 205.092C129.679 205.554 129.89 205.975 130.284 206.353C130.707 206.699 131.15 206.858 131.612 206.83C133.431 206.72 135.097 206.14 136.612 205.089C138.124 204.008 139.077 203.146 139.472 202.504C139.864 201.83 140.183 201.223 140.429 200.683C140.675 200.142 140.855 199.791 140.969 199.629C141.112 199.435 141.414 199.324 141.877 199.296C142.339 199.268 142.704 199.416 142.971 199.74C143.238 200.064 143.502 200.59 143.762 201.316C144.021 202.012 144.285 202.801 144.554 203.682C144.824 204.562 145.045 205.152 145.218 205.451C145.422 205.748 145.662 205.888 145.94 205.872ZM156.853 210.271C156.653 210.035 156.056 209.36 155.06 208.244C154.065 207.129 153.384 206.35 153.017 205.908C152.679 205.434 152.189 204.752 151.548 203.862C150.434 202.321 149.826 200.718 149.726 199.054C149.625 197.389 149.984 195.898 150.801 194.581C151.65 193.261 152.767 192.559 154.155 192.476C155.542 192.392 156.784 192.734 157.882 193.503C158.981 194.272 159.746 195.417 160.178 196.938C160.255 197.181 160.3 197.425 160.315 197.672C160.371 198.597 159.937 199.087 159.012 199.143C158.334 199.184 157.843 198.749 157.541 197.839C156.998 196.016 156.017 195.147 154.599 195.233C153.829 195.279 153.267 195.7 152.912 196.495C152.587 197.257 152.447 198.008 152.492 198.748C152.536 199.487 152.669 200.144 152.889 200.719C153.14 201.291 153.52 201.949 154.029 202.692C154.567 203.402 155.003 203.963 155.337 204.376C156.24 205.497 157.419 206.833 158.874 208.385C160.817 206.752 162.8 205.519 164.822 204.685C165.456 204.43 165.82 204.3 165.912 204.294C166.837 204.238 167.327 204.673 167.383 205.598C167.424 206.276 166.991 206.797 166.085 207.161C164.302 207.856 162.468 208.988 160.583 210.556C162.167 212.718 163.006 214.57 163.099 216.111C163.192 217.652 162.669 219.231 161.529 220.846C160.391 222.493 159.098 223.36 157.649 223.447C156.2 223.535 154.969 223.114 153.953 222.186C152.938 221.257 152.386 220.053 152.297 218.573C152.159 216.293 153.678 213.525 156.853 210.271ZM158.562 212.441C156.149 215 154.985 216.988 155.071 218.406C155.116 219.146 155.351 219.719 155.778 220.127C156.205 220.534 156.757 220.717 157.435 220.676C158.144 220.633 158.807 220.083 159.424 219.025C160.071 217.965 160.367 216.972 160.311 216.048C160.257 215.154 159.674 213.952 158.562 212.441ZM175.384 184.883C175.878 184.853 176.4 185.053 176.952 185.484C177.502 185.884 177.792 186.33 177.822 186.824C177.85 187.286 177.655 187.653 177.239 187.926C176.853 188.197 176.413 188.347 175.92 188.377C175.427 188.407 174.998 188.216 174.633 187.805C174.297 187.361 174.113 186.877 174.081 186.353C174.025 185.429 174.46 184.938 175.384 184.883ZM172.262 202.333C170.648 204.287 168.971 205.718 167.231 206.628C166.691 206.908 166.252 207.058 165.913 207.078C164.988 207.134 164.498 206.7 164.442 205.775C164.407 205.19 164.84 204.684 165.743 204.258C166.225 204.043 166.849 203.634 167.617 203.031C168.416 202.426 168.946 201.977 169.206 201.682C169.467 201.388 169.914 200.851 170.548 200.07C171.212 199.288 171.733 198.699 172.111 198.305C172.488 197.88 173.003 197.447 173.657 197.005C174.342 196.562 174.977 196.322 175.563 196.287C176.765 196.214 177.715 196.59 178.415 197.414C179.114 198.238 179.557 199.17 179.744 200.211C180.25 202.964 180.874 204.319 181.613 204.274C182.199 204.239 182.945 204.039 183.851 203.675C184.757 203.311 185.256 203.126 185.349 203.12C186.273 203.065 186.764 203.499 186.82 204.424C186.861 205.102 186.428 205.623 185.522 205.987C183.891 206.642 182.551 207.002 181.503 207.065C180.486 207.126 179.628 206.745 178.929 205.921C178.229 205.097 177.786 204.165 177.6 203.124C177.093 200.371 176.47 199.016 175.73 199.061C175.329 199.085 174.883 199.375 174.391 199.931C173.927 200.454 173.551 200.879 173.261 201.205C172.97 201.502 172.637 201.877 172.262 202.333ZM201.686 206.31C198.727 206.489 196.112 204.419 193.84 200.102C192.785 201.063 191.442 202.134 189.812 203.315C188.181 204.496 187.112 205.226 186.603 205.504C186.092 205.752 185.667 205.885 185.328 205.906C184.403 205.962 183.913 205.527 183.857 204.603C183.822 204.017 184.255 203.511 185.157 203.086C185.668 202.838 186.724 202.125 188.323 200.946C189.951 199.734 191.322 198.614 192.436 197.588C191.623 195.41 191.135 192.964 190.972 190.252C190.724 186.153 191.265 182.562 192.595 179.481C193.954 176.368 195.573 174.754 197.453 174.64C198.255 174.592 198.963 174.797 199.579 175.255C200.194 175.712 200.663 176.303 200.985 177.026C201.594 178.412 201.949 179.937 202.05 181.602C202.151 183.266 202.068 184.973 201.802 186.721C201.535 188.439 201.174 189.899 200.721 191.102C200.299 192.303 199.764 193.433 199.116 194.493C198.16 196.067 197.139 197.351 196.054 198.344C197.94 201.912 199.762 203.642 201.519 203.536C202.721 203.463 204.001 203.154 205.36 202.608C206.719 202.062 207.445 201.786 207.538 201.78C208.462 201.725 208.953 202.159 209.008 203.084C209.049 203.762 208.617 204.283 207.711 204.647C205.174 205.666 203.166 206.221 201.686 206.31ZM197.621 177.414C197.097 177.446 196.458 178.134 195.704 179.479C194.142 182.296 193.489 185.831 193.746 190.085C193.876 192.242 194.222 194.124 194.783 195.729C195.742 194.713 196.608 193.423 197.38 191.86C198.869 188.863 199.494 185.376 199.254 181.399C199.2 180.505 199.022 179.619 198.722 178.74C198.419 177.83 198.052 177.388 197.621 177.414Z" fill="#11145F"/>
<path d="M474.045 171.017C473.044 171.017 471.106 171.267 468.228 171.767C465.476 172.143 462.224 172.643 458.471 173.269C454.719 173.894 450.778 174.645 446.65 175.52C442.522 176.271 438.645 176.959 435.017 177.584C431.389 178.21 428.262 178.773 425.635 179.273C422.883 179.648 421.069 179.836 420.194 179.836C411.813 179.836 407.622 175.458 407.622 166.701C407.622 164.325 407.872 162.01 408.373 159.759C408.748 157.382 409.499 155.256 410.624 153.379C411.75 151.378 413.251 149.689 415.128 148.313C417.004 146.937 419.381 145.999 422.258 145.498C436.893 143.247 451.466 140.87 465.977 138.368C480.487 135.867 495.123 133.24 509.884 130.488C513.136 129.862 516.075 129.299 518.702 128.799C521.329 128.174 524.269 127.36 527.521 126.36C531.024 125.359 534.839 124.421 538.967 123.545C543.095 122.544 547.223 121.669 551.351 120.918C555.604 120.168 559.669 119.542 563.547 119.042C567.55 118.542 571.178 118.291 574.43 118.291C578.433 118.291 581.435 119.605 583.437 122.232C585.563 124.734 586.626 128.299 586.626 132.927C586.626 135.304 586.439 137.618 586.063 139.869C585.688 141.996 585 143.935 583.999 145.686C582.999 147.437 581.623 148.876 579.872 150.002C578.12 151.128 575.869 151.816 573.117 152.066C565.987 153.066 558.356 154.317 550.225 155.818C542.094 157.194 535.027 158.758 529.022 160.509C526.521 161.26 524.644 162.511 523.393 164.262C522.142 165.888 521.329 167.952 520.954 170.454C520.579 172.831 520.329 175.27 520.203 177.772C520.203 180.148 520.203 182.463 520.203 184.714C520.203 189.968 520.391 195.222 520.766 200.476C521.267 205.729 521.705 210.983 522.08 216.237C523.206 234.25 524.894 252.075 527.146 269.713C529.523 287.351 532.087 305.176 534.839 323.189C535.089 323.815 535.214 324.44 535.214 325.066C535.214 325.691 535.214 326.316 535.214 326.942C535.214 333.822 531.337 338.7 523.581 341.577L515.137 344.204C512.886 344.955 510.697 345.33 508.57 345.33C505.318 345.33 502.691 344.267 500.689 342.14C498.688 340.139 497.375 337.137 496.749 333.134C493.247 311.618 490.182 290.228 487.555 268.963C484.928 247.572 483.239 226.057 482.489 204.416C482.239 200.913 482.051 197.098 481.926 192.97C481.801 188.842 481.738 184.589 481.738 180.211C481.738 174.082 479.174 171.017 474.045 171.017ZM690.764 186.591C686.136 186.591 682.07 187.842 678.568 190.343C675.065 192.72 672.063 196.098 669.561 200.476C667.059 204.729 664.995 209.795 663.369 215.674C661.743 221.428 660.43 227.745 659.429 234.625C658.428 241.505 657.74 248.698 657.365 256.203C656.99 263.709 656.802 271.277 656.802 278.907C656.802 288.914 657.177 298.797 657.928 308.554C658.803 318.186 659.241 327.13 659.241 335.385C659.241 340.764 657.24 344.955 653.237 347.957C649.234 351.084 643.542 352.648 636.162 352.648C634.786 352.648 633.223 352.523 631.471 352.273C629.72 352.022 628.031 351.522 626.405 350.772C624.904 350.021 623.528 348.958 622.277 347.582C621.151 346.331 620.526 344.58 620.401 342.328C619.275 331.32 617.649 320.062 615.522 308.554C613.396 297.045 610.706 285.6 607.454 274.216C604.327 262.708 600.511 251.325 596.008 240.067C591.63 228.809 586.564 217.801 580.81 207.043C579.809 205.167 578.933 203.415 578.183 201.789C577.557 200.163 577.245 198.599 577.245 197.098C577.245 195.222 578.058 193.22 579.684 191.094C581.435 188.842 583.562 186.778 586.063 184.902C588.69 183.026 591.505 181.524 594.507 180.399C597.634 179.148 600.636 178.522 603.514 178.522C608.267 178.522 612.458 181.837 616.085 188.467C619.713 194.972 623.09 205.417 626.217 219.802C626.843 222.304 627.343 224.055 627.719 225.056C628.094 226.057 628.594 226.557 629.22 226.557C630.596 226.557 631.471 224.43 631.847 220.177C633.348 208.294 635.912 198.099 639.54 189.593C643.167 180.962 647.67 173.894 653.049 168.39C658.553 162.761 664.808 158.633 671.813 156.006C678.943 153.379 686.761 152.066 695.267 152.066C700.146 152.066 705.087 152.504 710.09 153.379C715.094 154.255 719.597 155.568 723.6 157.32C727.603 159.071 730.855 161.197 733.357 163.699C735.859 166.201 737.11 169.015 737.11 172.143C737.11 174.394 736.61 177.084 735.609 180.211C734.733 183.213 733.545 186.153 732.044 189.03C730.543 191.782 728.791 194.159 726.79 196.16C724.914 198.036 722.975 198.975 720.973 198.975C718.722 198.975 716.533 198.349 714.406 197.098C712.28 195.722 709.965 194.284 707.464 192.783C705.087 191.282 702.522 189.906 699.771 188.655C697.144 187.279 694.141 186.591 690.764 186.591ZM884.967 285.85C888.594 282.722 892.159 281.159 895.662 281.159C897.663 281.159 899.477 281.659 901.103 282.66C902.729 283.661 904.543 285.224 906.545 287.351C908.421 290.228 909.734 292.605 910.485 294.481C911.361 296.232 911.798 297.984 911.798 299.735C911.798 303.487 909.922 307.053 906.169 310.43C900.165 315.434 893.66 319.937 886.655 323.94C879.65 327.818 872.332 331.132 864.702 333.884C857.071 336.636 849.191 338.7 841.06 340.076C832.929 341.577 824.861 342.328 816.855 342.328C806.723 342.328 797.216 341.015 788.334 338.388C779.453 335.886 771.51 332.258 764.505 327.505C757.625 322.751 751.808 317.06 747.055 310.43C742.301 303.675 738.924 296.107 736.922 287.726C735.796 284.224 734.733 281.972 733.733 280.971C732.857 279.845 731.356 279.283 729.229 279.283C724.601 279.283 721.036 278.157 718.534 275.905C716.032 273.653 714.781 270.401 714.781 266.148C714.781 264.397 714.906 263.271 715.157 262.771L715.532 259.018C716.157 254.515 717.346 251.262 719.097 249.261C720.973 247.259 723.85 246.259 727.728 246.259H730.543C735.796 246.259 739.487 243.819 741.613 238.941C745.491 230.31 750.432 222.429 756.436 215.299C762.441 208.169 769.196 202.102 776.701 197.098C784.206 191.97 792.212 188.029 800.718 185.277C809.35 182.4 818.106 180.962 826.987 180.962C836.244 180.962 844.875 182.338 852.881 185.09C861.012 187.716 868.079 191.407 874.084 196.16C880.088 200.913 884.779 206.48 888.156 212.86C891.659 219.239 893.41 226.119 893.41 233.499C893.41 238.628 892.409 243.319 890.408 247.572C888.407 251.825 885.53 255.578 881.777 258.83C878.024 261.958 873.458 264.522 868.079 266.523C862.826 268.525 856.821 269.838 850.066 270.464L784.957 277.031C782.455 277.031 780.391 277.656 778.765 278.907C777.264 280.158 776.513 281.847 776.513 283.973C776.513 287.226 777.702 290.353 780.078 293.355C782.58 296.357 785.833 299.047 789.835 301.423C793.963 303.675 798.654 305.489 803.908 306.865C809.287 308.241 814.791 308.929 820.42 308.929C825.799 308.929 831.303 308.429 836.932 307.428C842.686 306.302 848.315 304.738 853.819 302.737C859.448 300.735 864.89 298.359 870.143 295.607C875.397 292.73 880.338 289.477 884.967 285.85ZM843.124 237.44C845 237.065 846.626 236.189 848.002 234.813C849.378 233.312 850.066 231.498 850.066 229.372C850.066 227.495 849.378 225.744 848.002 224.118C846.626 222.492 844.75 221.053 842.373 219.802C839.997 218.426 837.245 217.363 834.117 216.612C830.99 215.862 827.675 215.486 824.173 215.486C819.044 215.486 813.79 216.237 808.411 217.738C803.032 219.239 798.154 221.241 793.776 223.742C789.398 226.119 785.833 228.809 783.081 231.811C780.329 234.688 778.953 237.565 778.953 240.442C778.953 243.319 780.704 244.758 784.206 244.758C786.333 244.758 789.773 244.507 794.526 244.007C799.28 243.507 804.534 242.944 810.288 242.318C816.042 241.568 821.859 240.755 827.738 239.879C833.617 239.003 838.746 238.19 843.124 237.44ZM913.675 113.225C913.675 106.721 915.551 102.092 919.304 99.3402C923.057 96.5882 929.249 95.2122 937.88 95.2122C940.882 95.2122 943.509 95.5249 945.76 96.1504C948.012 96.7759 949.888 97.8391 951.39 99.3402C952.891 100.716 954.079 102.655 954.955 105.157C955.955 107.534 956.768 110.598 957.394 114.351C959.02 125.484 960.646 137.18 962.272 149.439C964.024 161.573 965.65 173.706 967.151 185.84C968.777 197.849 970.278 209.607 971.654 221.116C973.03 232.499 974.219 243.131 975.219 253.014C976.345 262.771 977.158 271.464 977.658 279.095C978.284 286.6 978.597 292.542 978.597 296.92C978.597 301.423 978.159 305.239 977.283 308.366C976.533 311.493 975.157 313.995 973.155 315.871C971.279 317.748 968.777 319.124 965.65 319.999C962.648 320.75 958.895 321.125 954.392 321.125C950.014 321.125 946.511 319.999 943.884 317.748C941.382 315.496 940.131 312.056 940.131 307.428C940.131 302.674 939.756 296.357 939.006 288.477C938.255 280.471 937.254 271.589 936.003 261.832C934.753 252.075 933.314 241.693 931.688 230.685C930.187 219.677 928.561 208.794 926.809 198.036C925.183 187.279 923.557 176.959 921.931 167.077C920.43 157.069 919.054 148.25 917.803 140.62C916.552 132.864 915.551 126.547 914.801 121.669C914.05 116.665 913.675 113.851 913.675 113.225ZM1126.45 162.949C1133.33 162.949 1139.96 164.012 1146.34 166.138C1152.72 168.265 1158.35 171.205 1163.23 174.957C1168.11 178.71 1171.99 183.213 1174.86 188.467C1177.87 193.721 1179.37 199.537 1179.37 205.917C1179.37 208.544 1178.74 211.108 1177.49 213.61C1176.36 215.987 1174.8 218.113 1172.8 219.99C1170.8 221.741 1168.48 223.18 1165.86 224.305C1163.35 225.306 1160.73 225.806 1157.98 225.806C1157.73 225.806 1157.48 225.869 1157.23 225.994C1157.1 225.994 1156.91 225.994 1156.66 225.994C1156.41 226.119 1156.16 226.182 1155.91 226.182L1156.66 241.193C1157.16 259.08 1159.66 272.152 1164.17 280.408C1168.8 288.664 1174.8 292.792 1182.18 292.792C1184.81 292.792 1187.12 292.542 1189.12 292.042C1191.25 291.541 1193.19 290.978 1194.94 290.353C1196.82 289.602 1198.57 288.977 1200.19 288.477C1201.82 287.976 1203.45 287.726 1205.07 287.726C1207.95 287.726 1210.45 288.977 1212.58 291.479C1214.83 293.981 1215.96 296.983 1215.96 300.485C1215.96 303.988 1214.58 307.49 1211.83 310.993C1209.2 314.495 1205.7 317.685 1201.32 320.562C1196.94 323.314 1192 325.566 1186.5 327.317C1180.99 329.068 1175.43 329.944 1169.8 329.944C1160.04 329.944 1151.47 325.941 1144.09 317.935C1136.71 309.805 1131.46 297.921 1128.33 282.285C1127.58 279.783 1126.58 278.532 1125.33 278.532C1123.83 278.532 1122.51 279.283 1121.39 280.784C1109 296.42 1095.81 308.178 1081.8 316.059C1067.79 323.815 1053.96 327.692 1040.33 327.692C1033.95 327.692 1028.19 326.754 1023.07 324.878C1017.94 323.002 1013.56 320.375 1009.93 316.997C1006.43 313.495 1003.68 309.304 1001.68 304.426C999.799 299.422 998.861 293.856 998.861 287.726C998.861 279.095 1000.74 270.026 1004.49 260.519C1008.37 251.012 1013.56 241.63 1020.06 232.374C1026.57 223.117 1034.07 214.298 1042.58 205.917C1051.21 197.536 1060.22 190.156 1069.6 183.776C1079.11 177.397 1088.74 172.33 1098.5 168.578C1108.25 164.825 1117.57 162.949 1126.45 162.949ZM1120.26 227.87C1122.51 223.617 1124.58 220.553 1126.45 218.676C1128.33 216.675 1131.02 215.361 1134.52 214.736C1137.27 214.361 1138.65 213.485 1138.65 212.109C1138.65 211.108 1138.27 210.045 1137.52 208.919C1135.15 205.667 1132.65 202.852 1130.02 200.476C1127.39 197.974 1123.89 196.723 1119.51 196.723C1114.76 196.723 1109.44 198.099 1103.56 200.851C1097.68 203.603 1091.68 207.293 1085.55 211.921C1079.54 216.425 1073.6 221.616 1067.72 227.495C1061.97 233.249 1056.84 239.191 1052.34 245.321C1047.83 251.45 1044.21 257.517 1041.45 263.521C1038.7 269.525 1037.33 274.904 1037.33 279.658C1037.33 283.911 1038.45 287.226 1040.7 289.602C1043.08 291.979 1046.27 293.168 1050.27 293.168C1060.53 293.168 1071.73 287.726 1083.86 276.843C1095.99 265.96 1108.13 249.636 1120.26 227.87ZM1163.23 85.2675C1163.23 87.1439 1162.29 88.9577 1160.42 90.709C1158.66 92.4602 1156.22 94.3991 1153.1 96.5257C1150.1 98.6522 1146.53 101.154 1142.4 104.031C1138.27 106.783 1133.9 110.223 1129.27 114.351C1124.76 118.354 1120.07 123.232 1115.2 128.987C1110.32 134.616 1105.56 141.308 1100.93 149.064C1099.93 150.815 1098.5 152.003 1096.62 152.629C1094.87 153.254 1092.87 153.567 1090.61 153.567C1088.49 153.567 1086.36 153.317 1084.24 152.816C1082.23 152.191 1080.36 151.44 1078.61 150.565C1076.98 149.564 1075.6 148.438 1074.48 147.187C1073.48 145.811 1072.98 144.373 1072.98 142.872C1072.98 139.494 1073.98 135.304 1075.98 130.3C1078.11 125.171 1080.86 119.855 1084.24 114.351C1087.74 108.722 1091.74 103.155 1096.24 97.6515C1100.87 92.0224 1105.69 87.0188 1110.69 82.6407C1115.82 78.1374 1120.95 74.5098 1126.08 71.7578C1131.33 69.0058 1136.4 67.6298 1141.28 67.6298C1143.53 67.6298 1145.9 68.2553 1148.41 69.5062C1151.03 70.7571 1153.41 72.3207 1155.54 74.1971C1157.79 75.9483 1159.6 77.8872 1160.98 80.0138C1162.48 82.0152 1163.23 83.7665 1163.23 85.2675ZM1268.87 164.074C1277.25 164.074 1285.88 165.2 1294.76 167.452C1303.64 169.578 1311.77 172.393 1319.15 175.895C1326.54 179.273 1332.6 183.088 1337.36 187.341C1342.11 191.594 1344.49 195.722 1344.49 199.725C1344.49 201.727 1343.61 203.978 1341.86 206.48C1340.11 208.857 1337.98 211.171 1335.48 213.423C1332.98 215.549 1330.23 217.363 1327.22 218.864C1324.35 220.24 1321.78 220.928 1319.53 220.928C1316.53 220.928 1313.15 219.677 1309.4 217.175C1305.77 214.673 1301.7 211.921 1297.2 208.919C1292.82 205.792 1288.01 202.977 1282.75 200.476C1277.5 197.974 1271.81 196.723 1265.68 196.723C1261.68 196.723 1258.36 197.724 1255.73 199.725C1253.23 201.601 1251.98 204.291 1251.98 207.793C1251.98 210.921 1253.48 214.11 1256.48 217.363C1259.49 220.49 1263.43 223.742 1268.31 227.12C1273.31 230.497 1278.94 234.062 1285.19 237.815C1291.45 241.568 1297.83 245.571 1304.33 249.824C1310.96 254.077 1317.4 258.705 1323.66 263.709C1329.91 268.712 1335.48 274.154 1340.36 280.033C1345.36 285.912 1349.36 292.354 1352.37 299.359C1355.37 306.239 1356.87 313.745 1356.87 321.876C1356.87 328.881 1355.62 335.26 1353.12 341.015C1350.62 346.769 1347.05 351.71 1342.42 355.838C1337.79 359.966 1332.29 363.156 1325.91 365.407C1319.53 367.659 1312.53 368.785 1304.89 368.785C1295.26 368.785 1286.38 367.283 1278.25 364.281C1270.12 361.404 1263.11 357.401 1257.24 352.273C1251.36 347.144 1246.73 341.015 1243.35 333.884C1240.1 326.754 1238.47 318.936 1238.47 310.43C1238.47 299.422 1240.41 291.416 1244.29 286.413C1248.29 281.409 1254.55 278.907 1263.05 278.907C1268.31 278.907 1272.5 279.908 1275.62 281.909C1278.75 283.911 1280.31 286.35 1280.31 289.227C1280.31 290.728 1280.06 292.292 1279.56 293.918C1279.06 295.419 1278.5 297.045 1277.88 298.797C1277.37 300.423 1276.87 302.174 1276.37 304.05C1276 305.927 1275.81 307.803 1275.81 309.679C1275.81 312.932 1276.56 316.059 1278.06 319.061C1279.56 322.063 1281.57 324.69 1284.07 326.942C1286.69 329.319 1289.7 331.195 1293.07 332.571C1296.45 333.947 1300.02 334.635 1303.77 334.635C1313.78 334.635 1318.78 330.507 1318.78 322.251C1318.78 315.746 1316.22 309.617 1311.09 303.863C1305.96 297.984 1299.52 292.292 1291.76 286.788C1284 281.159 1275.62 275.53 1266.62 269.901C1257.74 264.272 1249.42 258.392 1241.66 252.263C1233.91 246.134 1227.46 239.629 1222.33 232.749C1217.21 225.744 1214.64 218.176 1214.64 210.045C1214.64 203.29 1216.02 197.098 1218.77 191.469C1221.65 185.84 1225.52 181.024 1230.4 177.021C1235.28 172.893 1240.97 169.703 1247.48 167.452C1254.11 165.2 1261.24 164.074 1268.87 164.074ZM1410.35 164.074C1418.73 164.074 1427.36 165.2 1436.24 167.452C1445.12 169.578 1453.25 172.393 1460.63 175.895C1468.01 179.273 1474.08 183.088 1478.83 187.341C1483.59 191.594 1485.96 195.722 1485.96 199.725C1485.96 201.727 1485.09 203.978 1483.34 206.48C1481.58 208.857 1479.46 211.171 1476.96 213.423C1474.45 215.549 1471.7 217.363 1468.7 218.864C1465.82 220.24 1463.26 220.928 1461.01 220.928C1458 220.928 1454.63 219.677 1450.87 217.175C1447.25 214.673 1443.18 211.921 1438.68 208.919C1434.3 205.792 1429.48 202.977 1424.23 200.476C1418.98 197.974 1413.29 196.723 1407.16 196.723C1403.15 196.723 1399.84 197.724 1397.21 199.725C1394.71 201.601 1393.46 204.291 1393.46 207.793C1393.46 210.921 1394.96 214.11 1397.96 217.363C1400.96 220.49 1404.9 223.742 1409.78 227.12C1414.79 230.497 1420.42 234.062 1426.67 237.815C1432.92 241.568 1439.3 245.571 1445.81 249.824C1452.44 254.077 1458.88 258.705 1465.14 263.709C1471.39 268.712 1476.96 274.154 1481.83 280.033C1486.84 285.912 1490.84 292.354 1493.84 299.359C1496.85 306.239 1498.35 313.745 1498.35 321.876C1498.35 328.881 1497.1 335.26 1494.59 341.015C1492.09 346.769 1488.53 351.71 1483.9 355.838C1479.27 359.966 1473.77 363.156 1467.39 365.407C1461.01 367.659 1454 368.785 1446.37 368.785C1436.74 368.785 1427.86 367.283 1419.73 364.281C1411.6 361.404 1404.59 357.401 1398.71 352.273C1392.83 347.144 1388.2 341.015 1384.83 333.884C1381.57 326.754 1379.95 318.936 1379.95 310.43C1379.95 299.422 1381.89 291.416 1385.77 286.413C1389.77 281.409 1396.02 278.907 1404.53 278.907C1409.78 278.907 1413.97 279.908 1417.1 281.909C1420.23 283.911 1421.79 286.35 1421.79 289.227C1421.79 290.728 1421.54 292.292 1421.04 293.918C1420.54 295.419 1419.98 297.045 1419.35 298.797C1418.85 300.423 1418.35 302.174 1417.85 304.05C1417.48 305.927 1417.29 307.803 1417.29 309.679C1417.29 312.932 1418.04 316.059 1419.54 319.061C1421.04 322.063 1423.04 324.69 1425.54 326.942C1428.17 329.319 1431.17 331.195 1434.55 332.571C1437.93 333.947 1441.49 334.635 1445.25 334.635C1455.25 334.635 1460.26 330.507 1460.26 322.251C1460.26 315.746 1457.69 309.617 1452.56 303.863C1447.43 297.984 1440.99 292.292 1433.24 286.788C1425.48 281.159 1417.1 275.53 1408.09 269.901C1399.21 264.272 1390.89 258.392 1383.14 252.263C1375.38 246.134 1368.94 239.629 1363.81 232.749C1358.68 225.744 1356.12 218.176 1356.12 210.045C1356.12 203.29 1357.49 197.098 1360.25 191.469C1363.12 185.84 1367 181.024 1371.88 177.021C1376.76 172.893 1382.45 169.703 1388.96 167.452C1395.58 165.2 1402.72 164.074 1410.35 164.074ZM1533.25 135.554C1529.62 135.554 1526.18 135.053 1522.93 134.053C1519.8 132.927 1517.05 131.426 1514.67 129.549C1512.42 127.548 1510.61 125.234 1509.23 122.607C1507.85 119.98 1507.17 117.103 1507.17 113.976C1507.17 108.722 1509.23 104.469 1513.36 101.217C1517.61 97.9642 1523.24 96.338 1530.24 96.338C1533.5 96.338 1536.62 96.9635 1539.63 98.2144C1542.63 99.3402 1545.26 100.904 1547.51 102.905C1549.88 104.907 1551.76 107.283 1553.14 110.035C1554.51 112.662 1555.2 115.414 1555.2 118.291C1555.2 123.67 1553.2 127.923 1549.2 131.051C1545.32 134.053 1540 135.554 1533.25 135.554ZM1507.54 192.783C1507.54 188.404 1509.42 184.839 1513.17 182.087C1517.05 179.21 1522.11 177.772 1528.37 177.772C1539.63 177.772 1545.63 181.65 1546.38 189.405C1546.88 194.784 1547.38 200.851 1547.88 207.606C1548.51 214.361 1549.07 221.553 1549.57 229.184C1550.2 236.689 1550.7 244.507 1551.07 252.638C1551.57 260.644 1552.01 268.587 1552.39 276.468C1552.76 284.224 1553.07 291.729 1553.32 298.984C1553.57 306.239 1553.7 312.869 1553.7 318.874C1553.7 325.128 1551.45 329.819 1546.94 332.946C1542.57 336.073 1536.12 337.637 1527.62 337.637C1523.74 337.637 1520.68 336.699 1518.42 334.823C1516.3 333.071 1515.23 330.444 1515.23 326.942C1515.23 309.679 1514.8 293.543 1513.92 278.532C1513.17 263.396 1512.29 249.949 1511.29 238.19C1510.42 226.432 1509.54 216.675 1508.67 208.919C1507.92 201.039 1507.54 195.66 1507.54 192.783ZM1590.85 264.647C1590.85 262.52 1591.1 260.144 1591.6 257.517C1592.1 254.89 1592.35 252.013 1592.35 248.886C1592.35 246.759 1591.41 245.133 1589.54 244.007C1587.79 242.881 1585.78 241.63 1583.53 240.254C1581.28 238.878 1579.22 237.127 1577.34 235.001C1575.59 232.874 1574.71 229.809 1574.71 225.806C1574.71 222.929 1575.46 220.052 1576.97 217.175C1578.59 214.298 1580.91 211.671 1583.91 209.295C1591.29 203.791 1598.92 198.849 1606.8 194.471C1614.81 190.093 1622.75 186.403 1630.63 183.401C1638.64 180.399 1646.52 178.085 1654.27 176.458C1662.03 174.832 1669.47 174.019 1676.6 174.019C1688.61 174.019 1699.87 176.271 1710.37 180.774C1721.01 185.152 1730.2 191.219 1737.96 198.975C1745.84 206.605 1752.03 215.612 1756.53 225.994C1761.16 236.251 1763.48 247.259 1763.48 259.018C1763.48 270.526 1761.04 281.472 1756.16 291.854C1751.4 302.111 1744.96 311.118 1736.83 318.874C1728.7 326.629 1719.13 332.759 1708.12 337.262C1697.24 341.89 1685.73 344.204 1673.6 344.204C1661.71 344.204 1650.71 342.203 1640.57 338.2C1630.44 334.197 1621.69 328.693 1614.31 321.688C1606.92 314.558 1601.17 306.177 1597.04 296.545C1592.91 286.788 1590.85 276.155 1590.85 264.647ZM1677.73 310.43C1682.98 310.43 1688.42 309.367 1694.05 307.24C1699.68 305.114 1704.81 302.049 1709.44 298.046C1714.19 293.918 1718.07 288.914 1721.07 283.035C1724.2 277.156 1725.76 270.526 1725.76 263.146C1725.76 255.64 1724.38 248.635 1721.63 242.131C1718.88 235.626 1715.07 229.997 1710.19 225.244C1705.43 220.365 1699.74 216.55 1693.11 213.798C1686.61 211.046 1679.54 209.67 1671.91 209.67C1658.02 209.67 1647.39 213.297 1640.01 220.553C1632.63 227.683 1628.94 238.691 1628.94 253.576C1628.94 261.707 1630.13 269.275 1632.51 276.28C1635.01 283.16 1638.45 289.165 1642.83 294.293C1647.2 299.297 1652.33 303.237 1658.21 306.114C1664.22 308.991 1670.72 310.43 1677.73 310.43Z" fill="white"/>
</svg>
