<svg width="156" height="44" viewBox="0 0 156 44" fill="none" xmlns="http://www.w3.org/2000/svg">
<path d="M6.16568 13.7877C6.75598 11.9108 5.97971 10.1324 7.54659 8.94243C9.1258 7.74306 10.6432 8.85809 12.6244 8.94243C16.0101 9.08655 17.8956 9.42083 21.2442 9.94056C23.8403 10.3435 26.6808 10.9338 27.0246 11.7624C27.3202 12.4746 28.0185 13.1991 27.858 15.343C27.7387 16.9361 28.1065 18.901 27.858 20.479C27.559 22.3781 27.858 25.4018 27.858 25.4018C27.858 25.4018 28.4445 24.5859 29.0112 24.4812C30.1927 24.2631 29.5987 26.5099 29.0112 27.558C28.1936 29.0164 27.858 32.0205 27.0404 32.0205C26.627 32.0205 26.0895 31.5553 26.0895 31.5553C26.0895 31.5553 24.9354 35.2882 23.3955 37.171C22.4671 38.3062 21.8447 38.8902 20.6288 39.7099C18.2567 41.3092 16.4423 42.3775 13.6274 41.8661C11.828 41.5392 10.8693 41.1008 9.39749 40.0152C8.59255 39.4215 7.49518 38.2091 6.75681 37.5344C5.51811 36.4025 5.22097 36.5202 4.46984 35.0197C3.93172 33.9448 3.987 33.3734 3.77696 32.0205L3.23914 28.5561C3.23914 28.5561 3.06089 28.9031 2.85636 29.0164C2.29286 29.3285 2.26178 28.1777 2.08596 27.558C1.75541 26.3929 2.48557 25.6922 2.47358 24.4812C2.46247 23.3584 1.79499 22.7167 2.08596 21.6322C2.25288 21.0101 2.34039 20.5594 2.85636 20.1738C3.76232 19.4968 3.38097 22.503 3.26709 23.2925C3.34276 22.7967 3.56056 21.4158 3.77696 20.479C4.4015 17.7756 5.33325 16.4345 6.16568 13.7877Z" fill="#E2B297"/>
<path d="M7.54659 8.94243C5.97971 10.1324 6.75598 11.9108 6.16568 13.7877C5.33325 16.4345 4.4015 17.7756 3.77696 20.479C3.50912 21.6384 3.23914 23.4783 3.23914 23.4783C3.23914 23.4783 3.89699 19.3961 2.85636 20.1738C2.34039 20.5594 2.25288 21.0101 2.08596 21.6322C1.79499 22.7167 2.46247 23.3584 2.47358 24.4812C2.48557 25.6922 1.75541 26.3929 2.08596 27.558C2.26178 28.1777 2.29286 29.3285 2.85636 29.0164C3.06089 28.9031 3.23914 28.5561 3.23914 28.5561C3.44917 29.909 3.56693 30.6676 3.77696 32.0205C3.987 33.3734 3.93172 33.9448 4.46984 35.0197C5.22097 36.5202 5.51811 36.4025 6.75681 37.5344C7.49518 38.2091 8.59255 39.4215 9.39749 40.0152C10.8693 41.1008 11.828 41.5392 13.6274 41.8661C16.4423 42.3775 18.2567 41.3092 20.6288 39.7099C21.8447 38.8902 22.4671 38.3062 23.3955 37.171C24.9354 35.2882 26.0895 31.5553 26.0895 31.5553C26.0895 31.5553 26.627 32.0205 27.0404 32.0205C27.858 32.0205 28.1936 29.0164 29.0112 27.558C29.5987 26.5099 30.1927 24.2631 29.0112 24.4812C28.4445 24.5859 27.858 25.4018 27.858 25.4018C27.858 25.4018 27.559 22.3781 27.858 20.479C28.1065 18.901 27.7387 16.9361 27.858 15.343C28.0185 13.1991 27.3202 12.4746 27.0246 11.7624C26.6808 10.9338 23.8403 10.3435 21.2442 9.94056C17.8956 9.42083 16.0101 9.08655 12.6244 8.94243C10.6432 8.85809 9.1258 7.74306 7.54659 8.94243Z" stroke="white" stroke-width="3.5"/>
<path d="M4.20483 19.801C3.26 23.6752 3.24547 23.12 3.24547 23.12C3.24547 23.12 3.5071 21.2885 3.38112 20.6925C3.3269 20.436 3.03712 20.1159 3.03711 20.1159C3.03711 20.1159 3.67236 18.3625 4.11277 16.0314C4.5 13.9818 4.02888 12.0657 4.62486 10.0668C5.16575 8.25272 5.47914 6.58794 6.37552 5.14404C7.27189 3.70015 8.32948 2.80145 10.2566 2.51791C13.9777 1.97039 15.1942 1.76836 18.416 2.35317C21.4481 2.90353 23.7411 3.2874 26.5028 4.65467C28.969 5.87568 29.6038 6.60732 30.4323 8.96212C30.8917 10.2679 29.8497 16.159 29.5069 17.4995C28.969 19.6023 28.969 24.4815 28.969 24.4815C28.969 24.4815 28.4419 24.7178 28.1841 25.0242C27.8313 25.4437 27.6802 26.3906 27.6802 26.3906C27.6802 26.3906 27.3339 23.1924 27.4234 20.9784C27.5128 18.7644 27.8498 18.5148 27.8498 18.0228C27.8498 17.1505 27.8768 16.661 27.8498 15.7891C27.8189 14.7921 27.997 14.1864 27.6802 13.2405C27.4005 12.4053 27.2002 11.8548 26.5028 11.3169C25.749 10.7356 24.148 10.687 24.148 10.687L19.167 9.60654C19.167 9.60654 15.7248 9.15554 12.936 8.96212C11.631 8.87162 9.9804 8.50182 9.9804 8.50182C9.9804 8.50182 8.71434 8.39079 8.17796 8.62295C7.5024 8.91535 7.18002 9.38457 6.90365 10.0668C6.43851 11.2152 6.6194 11.6894 6.37552 12.8674C6.18235 13.8005 5.99343 14.3053 5.70202 15.2125C5.19465 16.7921 4.59705 18.1927 4.20483 19.801Z" fill="#5C402B"/>
<path d="M3.24547 23.12C3.24547 23.12 3.26 23.6752 4.20483 19.801C4.59705 18.1927 5.19465 16.7921 5.70202 15.2125C5.99343 14.3053 6.18235 13.8005 6.37552 12.8674C6.6194 11.6894 6.43851 11.2152 6.90365 10.0668C7.18002 9.38457 7.5024 8.91535 8.17796 8.62295C8.71434 8.39079 9.9804 8.50182 9.9804 8.50182C9.9804 8.50182 11.631 8.87162 12.936 8.96212C15.7248 9.15554 19.167 9.60654 19.167 9.60654L24.148 10.687C24.148 10.687 25.749 10.7356 26.5028 11.3169C27.2002 11.8548 27.4005 12.4053 27.6802 13.2405C27.997 14.1864 27.8189 14.7921 27.8498 15.7891C27.8768 16.661 27.8498 17.1505 27.8498 18.0228C27.8498 18.5148 27.5128 18.7644 27.4234 20.9784C27.3339 23.1924 27.6802 26.3906 27.6802 26.3906C27.6802 26.3906 27.8313 25.4437 28.1841 25.0242C28.4419 24.7178 28.969 24.4815 28.969 24.4815C28.969 24.4815 28.969 19.6023 29.5069 17.4995C29.8497 16.159 30.8917 10.2679 30.4323 8.96212C29.6038 6.60732 28.969 5.87568 26.5028 4.65467C23.7411 3.2874 21.4481 2.90353 18.416 2.35317C15.1942 1.76836 13.9777 1.97039 10.2566 2.51791C8.32948 2.80145 7.27189 3.70015 6.37552 5.14404C5.47914 6.58794 5.16575 8.25272 4.62486 10.0668C4.02888 12.0657 4.5 13.9818 4.11277 16.0314C3.67236 18.3625 3.03711 20.1159 3.03711 20.1159H3.03712C3.03712 20.1159 3.3269 20.436 3.38112 20.6925C3.5071 21.2885 3.24547 23.12 3.24547 23.12Z" stroke="white" stroke-width="3.5"/>
<path d="M15.233 27.93C14.6346 27.931 13.9199 26.9901 13.9199 27.1403C13.9199 27.1403 13.1897 27.5645 12.8976 27.7508C12.1897 28.202 12.0301 28.253 11.2696 28.6084C10.3827 29.0228 9.72837 28.9851 8.96805 29.6017C8.48472 29.9936 8.12705 30.2159 7.92147 30.8033C7.73832 31.3266 7.92147 32.223 7.92147 32.223C8.4593 31.6367 8.65311 31.5204 9.15217 31.2588C9.95688 30.8369 10.4546 30.6964 11.2696 30.2945C11.7971 30.0344 12.0486 29.7869 12.6069 29.6017C13.2187 29.3987 13.5959 29.3261 14.2397 29.3594C14.7178 29.3841 14.8319 29.6102 15.3105 29.6017C15.7503 29.5938 16.1018 29.3397 16.5412 29.3594C17.0033 29.3802 17.2369 29.5583 17.6653 29.7325C18.2407 29.9665 18.5542 30.1288 19.0801 30.4593C19.7112 30.8558 20.0593 31.1056 20.5822 31.6367C21.1477 32.2111 21.6142 32.8141 21.6142 32.8141C21.6142 32.8141 22.262 31.666 21.8129 30.8033C21.6142 30.4216 21.4452 30.2266 21.1152 29.9505C20.7283 29.6269 20.4171 29.5867 19.9668 29.3594C19.3738 29.06 18.9285 29.0592 18.4406 28.6084C18.2116 28.3968 18.1552 28.2105 17.9318 27.993C17.4754 27.5487 16.5412 27.1403 16.5412 27.1403C16.5412 27.1403 15.8298 27.9291 15.233 27.93Z" fill="#5C402B" fill-opacity="0.71"/>
<path d="M12.6069 35.1301C12.406 34.8425 13.1544 34.2338 13.3579 34.069C13.6922 33.7984 14.0743 34.3649 14.7145 34.35C15.4541 34.3328 16.0373 33.8897 16.2893 33.8897C16.6639 33.8897 17.3566 34.8196 17.1469 35.1301C16.8949 35.5032 15.514 35.1301 15.5528 35.4063C15.6691 36.2348 15.6582 36.4051 15.9695 36.8405C16.3158 37.3249 16.3098 37.3449 16.8271 37.64C17.4291 37.9834 18.15 38.4827 18.8427 38.4588C19.565 38.4339 19.6108 38.1519 20.2188 37.7611C20.5579 37.5431 21.1476 37.4649 21.2751 37.7611C21.4025 38.0573 21.2751 38.454 20.3981 39.7525C20.1058 40.1852 19.1831 40.96 18.741 41.1916C17.8252 41.6712 17.4461 41.6711 16.2893 41.8505C14.9168 42.0634 14.7727 41.9862 13.1931 41.9862C12.429 41.9862 11.7529 41.6567 11.0806 41.2933C10.4269 40.94 9.61722 40.404 9.06011 39.9124C8.70907 39.5338 7.83413 38.4827 7.65498 37.9985C7.55248 37.7215 7.60269 37.5392 7.77127 37.3396C8.02683 37.0369 8.39953 37.1849 8.78524 37.3382L8.78878 37.3396C9.84989 37.7611 9.94527 37.9388 10.7608 37.9985C11.5957 38.0597 11.8231 37.9342 12.6069 37.64C13.0407 37.4771 13.6583 36.9762 13.6583 36.9762C14.0411 36.3027 14.3027 35.8279 14.2397 35.5177C14.1767 35.2076 12.9654 35.6437 12.6069 35.1301Z" fill="#5C402B" fill-opacity="0.71"/>
<path d="M22.1278 35.1301C22.1519 34.5083 21.997 33.9286 22.5154 33.5845C22.9411 33.3019 23.376 33.8307 23.8237 33.5845C24.425 33.2537 25.766 32.4099 25.5098 33.0467C25.1707 33.8897 25.1249 34.3622 24.7201 35.1301C24.3725 35.7894 24.3285 36.0819 23.8237 36.7097C23.3188 37.3375 22.3943 38.1972 22.3943 38.1972C22.3943 38.1972 22.5257 37.4552 22.5154 36.9762C22.4997 36.2397 22.0993 35.8662 22.1278 35.1301Z" fill="#5C402B" fill-opacity="0.71"/>
<path d="M4.32144 34.8018C3.73032 33.4936 3.88691 32.3638 3.71094 31.2588C3.71094 31.2588 4.45437 32.7974 5.00463 33.0467C5.60761 33.3198 6.05916 33.0054 6.61325 33.3676C6.94502 33.5845 6.62863 34.671 6.2644 35.1301C5.95975 35.5142 6.04636 36.8405 6.04636 36.8405C5.3389 36.3027 4.91257 36.11 4.32144 34.8018Z" fill="#5C402B" fill-opacity="0.71"/>
<path d="M15.233 27.93C14.6346 27.931 13.9199 26.9901 13.9199 27.1403C13.9199 27.1403 13.1897 27.5645 12.8976 27.7508C12.1897 28.202 12.0301 28.253 11.2696 28.6084C10.3827 29.0228 9.72837 28.9851 8.96805 29.6017C8.48472 29.9936 8.12705 30.2159 7.92147 30.8033C7.73832 31.3266 7.92147 32.223 7.92147 32.223C8.4593 31.6367 8.65311 31.5204 9.15217 31.2588C9.95688 30.8369 10.4546 30.6964 11.2696 30.2945C11.7971 30.0344 12.0486 29.7869 12.6069 29.6017C13.2187 29.3987 13.5959 29.3261 14.2397 29.3594C14.7178 29.3841 14.8319 29.6102 15.3105 29.6017C15.7503 29.5938 16.1018 29.3397 16.5412 29.3594C17.0033 29.3802 17.2369 29.5583 17.6653 29.7325C18.2407 29.9665 18.5542 30.1288 19.0801 30.4593C19.7112 30.8558 20.0593 31.1056 20.5822 31.6367C21.1477 32.2111 21.6142 32.8141 21.6142 32.8141C21.6142 32.8141 22.262 31.666 21.8129 30.8033C21.6142 30.4216 21.4452 30.2266 21.1152 29.9505C20.7283 29.6269 20.4171 29.5867 19.9668 29.3594C19.3738 29.06 18.9285 29.0592 18.4406 28.6084C18.2116 28.3968 18.1552 28.2105 17.9318 27.993C17.4754 27.5487 16.5412 27.1403 16.5412 27.1403C16.5412 27.1403 15.8298 27.9291 15.233 27.93Z" stroke="white" stroke-width="3.5"/>
<path d="M12.6069 35.1301C12.406 34.8425 13.1544 34.2338 13.3579 34.069C13.6922 33.7984 14.0743 34.3649 14.7145 34.35C15.4541 34.3328 16.0373 33.8897 16.2893 33.8897C16.6639 33.8897 17.3566 34.8196 17.1469 35.1301C16.8949 35.5032 15.514 35.1301 15.5528 35.4063C15.6691 36.2348 15.6582 36.4051 15.9695 36.8405C16.3158 37.3249 16.3098 37.3449 16.8271 37.64C17.4291 37.9834 18.15 38.4827 18.8427 38.4588C19.565 38.4339 19.6108 38.1519 20.2188 37.7611C20.5579 37.5431 21.1476 37.4649 21.2751 37.7611C21.4025 38.0573 21.2751 38.454 20.3981 39.7525C20.1058 40.1852 19.1831 40.96 18.741 41.1916C17.8252 41.6712 17.4461 41.6711 16.2893 41.8505C14.9168 42.0634 14.7727 41.9862 13.1931 41.9862C12.429 41.9862 11.7529 41.6567 11.0806 41.2933C10.4269 40.94 9.61722 40.404 9.06011 39.9124C8.70907 39.5338 7.83413 38.4827 7.65498 37.9985C7.55248 37.7215 7.60269 37.5392 7.77127 37.3396C8.02683 37.0369 8.39953 37.1849 8.78524 37.3382L8.78878 37.3396C9.84989 37.7611 9.94527 37.9388 10.7608 37.9985C11.5957 38.0597 11.8231 37.9342 12.6069 37.64C13.0407 37.4771 13.6583 36.9762 13.6583 36.9762C14.0411 36.3027 14.3027 35.8279 14.2397 35.5177C14.1767 35.2076 12.9654 35.6437 12.6069 35.1301Z" stroke="white" stroke-width="3.5"/>
<path d="M22.1278 35.1301C22.1519 34.5083 21.997 33.9286 22.5154 33.5845C22.9411 33.3019 23.376 33.8307 23.8237 33.5845C24.425 33.2537 25.766 32.4099 25.5098 33.0467C25.1707 33.8897 25.1249 34.3622 24.7201 35.1301C24.3725 35.7894 24.3285 36.0819 23.8237 36.7097C23.3188 37.3375 22.3943 38.1972 22.3943 38.1972C22.3943 38.1972 22.5257 37.4552 22.5154 36.9762C22.4997 36.2397 22.0993 35.8662 22.1278 35.1301Z" stroke="white" stroke-width="3.5"/>
<path d="M4.32144 34.8018C3.73032 33.4936 3.88691 32.3638 3.71094 31.2588C3.71094 31.2588 4.45437 32.7974 5.00463 33.0467C5.60761 33.3198 6.05916 33.0054 6.61325 33.3676C6.94502 33.5845 6.62863 34.671 6.2644 35.1301C5.95975 35.5142 6.04636 36.8405 6.04636 36.8405C5.3389 36.3027 4.91257 36.11 4.32144 34.8018Z" stroke="white" stroke-width="3.5"/>
<path d="M4.20898 23.5597C4.20898 23.0655 4.46022 22.8445 4.60145 22.8087C4.74268 22.7729 4.85685 22.7228 4.97454 22.8087C5.16546 22.948 4.85688 23.1583 4.77588 23.3804C4.71001 23.561 4.76835 23.7453 4.60145 23.8407C4.38826 23.9625 4.20899 23.8052 4.20898 23.5597Z" fill="#5C402B" stroke="white" stroke-width="3.5"/>
<path d="M10.5562 17.1882C11.8989 17.5321 14.0157 18.0215 14.0157 18.0215L14.5584 16.6988C14.5584 16.6988 13.9003 16.5964 13.4827 16.5098C12.6845 16.3443 12.2578 16.1653 11.4671 15.9671C10.5819 15.7454 10.0987 15.5249 9.18981 15.4439C8.59801 15.3911 8.23266 15.2578 7.66839 15.4439C7.03693 15.6521 6.76754 15.9999 6.34079 16.5098C6.10433 16.7923 5.96767 16.9583 5.8175 17.2948C5.59901 17.7842 5.58008 18.6466 5.58008 18.6466C5.58008 18.6466 5.95621 17.9513 6.11306 17.7454C6.44622 17.3078 6.3589 17.291 6.81562 16.9847C7.35482 16.623 7.80425 16.6844 8.45333 16.6988C9.30122 16.7176 9.7346 16.9777 10.5562 17.1882Z" fill="#5C402B" fill-opacity="0.59"/>
<path d="M18.5848 18.4092L17.9694 17.7454C17.9694 17.7454 18.5573 17.6256 18.9385 17.5806C19.8142 17.4774 20.3161 17.5295 21.1964 17.5806C21.8381 17.6179 22.2141 17.5759 22.8341 17.7454C23.5851 17.9507 24.1586 18.132 24.8061 18.5642C25.6194 19.1071 26.2122 19.63 26.4632 20.575C26.5822 21.0231 26.4632 21.5198 26.4632 21.5198C26.4632 21.5198 25.4288 20.359 24.6123 19.8095C24.1136 19.4738 23.8407 19.2302 23.2605 19.073C22.6067 18.8958 22.2033 19.073 21.5259 19.073C20.9336 19.073 20.588 19.1988 20.0093 19.073C19.4096 18.9426 18.5848 18.4092 18.5848 18.4092Z" fill="#5C402B" fill-opacity="0.59"/>
<path d="M10.5562 17.1882C11.8989 17.5321 14.0157 18.0215 14.0157 18.0215L14.5584 16.6988C14.5584 16.6988 13.9003 16.5964 13.4827 16.5098C12.6845 16.3443 12.2578 16.1653 11.4671 15.9671C10.5819 15.7454 10.0987 15.5249 9.18981 15.4439C8.59801 15.3911 8.23266 15.2578 7.66839 15.4439C7.03693 15.6521 6.76754 15.9999 6.34079 16.5098C6.10433 16.7923 5.96767 16.9583 5.8175 17.2948C5.59901 17.7842 5.58008 18.6466 5.58008 18.6466C5.58008 18.6466 5.95621 17.9513 6.11306 17.7454C6.44622 17.3078 6.3589 17.291 6.81562 16.9847C7.35482 16.623 7.80425 16.6844 8.45333 16.6988C9.30122 16.7176 9.7346 16.9777 10.5562 17.1882Z" stroke="white" stroke-width="3.5"/>
<path d="M18.5848 18.4092L17.9694 17.7454C17.9694 17.7454 18.5573 17.6256 18.9385 17.5806C19.8142 17.4774 20.3161 17.5295 21.1964 17.5806C21.8381 17.6179 22.2141 17.5759 22.8341 17.7454C23.5851 17.9507 24.1586 18.132 24.8061 18.5642C25.6194 19.1071 26.2122 19.63 26.4632 20.575C26.5822 21.0231 26.4632 21.5198 26.4632 21.5198C26.4632 21.5198 25.4288 20.359 24.6123 19.8095C24.1136 19.4738 23.8407 19.2302 23.2605 19.073C22.6067 18.8958 22.2033 19.073 21.5259 19.073C20.9336 19.073 20.588 19.1988 20.0093 19.073C19.4096 18.9426 18.5848 18.4092 18.5848 18.4092Z" stroke="white" stroke-width="3.5"/>
<path d="M14.3748 20.6961V18.2734C14.3748 18.2734 15.2784 18.6992 15.9011 18.787C16.5256 18.8751 17.5146 18.7144 17.5146 18.7144C17.5146 18.7144 16.8333 19.8801 16.8508 20.6961C16.8632 21.2761 17.1615 21.714 17.2868 22.2805C17.4281 22.9192 17.5872 23.0848 17.5872 23.7825C17.5872 23.9328 19.6077 23.9666 19.6077 25.929C19.6077 26.3468 19.2001 26.6535 18.8131 26.8108C17.9312 27.1694 16.1239 26.3699 16.1239 26.3699C16.1239 26.3699 18.7307 26.2682 18.285 25.929C17.8393 25.5898 17.3768 25.7367 16.8508 25.929C16.4001 26.0937 16.3081 26.1906 15.809 26.6122C15.809 26.6122 15.1904 27.0332 14.7237 26.961C14.2605 26.8894 14.2276 26.7143 13.9097 26.3699C13.5918 26.0255 13.6335 25.929 12.9406 25.4881C12.6693 25.3154 12.1169 25.1664 12.1169 25.4881C12.1169 25.929 12.4809 25.9341 12.9406 26.0937C13.4004 26.2533 13.6335 26.3699 13.6335 26.3699C13.6335 26.3699 12.7001 27.133 12.1169 26.961C11.739 26.8496 11.1628 26.5099 11.0219 25.929C10.9054 25.449 11.0266 25.0733 11.2351 24.6256C11.5688 23.9088 12.9406 23.4482 12.9406 23.4482C12.9956 23.1914 13.2265 22.576 13.6335 21.9607C14.0404 21.3453 13.9775 21.4471 14.3748 20.6961Z" fill="#F2D5BF" stroke="white" stroke-width="3.5"/>
<path d="M10.8576 30.8567C10.337 31.1479 9.36523 31.3606 9.36523 31.3606C9.36523 31.3606 9.84629 31.5275 10.5136 31.5884C11.1951 31.6505 12.4315 31.6098 13.1155 31.5884C13.8398 31.5657 13.8056 31.5884 14.5303 31.5884C15.2569 31.5884 15.632 31.5393 16.357 31.5884C17.1387 31.6413 17.7019 31.7155 18.484 31.7628C19.0733 31.7984 19.5936 32.0402 20.1411 31.7628C20.1411 31.7628 19.8315 31.4592 19.5306 31.2455C19.0461 30.9015 18.5283 30.6086 17.922 30.3141C17.4933 30.1058 17.2744 29.845 16.7979 29.8392C16.4486 29.835 16.1576 29.9901 15.8191 30.0766C15.4238 30.1778 15.3259 30.3223 14.9179 30.3141C14.3799 30.3032 14.1613 29.8735 13.6242 29.8392C13.1432 29.8085 12.8726 29.9314 12.4129 30.0766C11.765 30.2813 11.4293 30.5369 10.8576 30.8567Z" fill="#C67577"/>
<path d="M10.8576 32.8627C10.332 32.4564 9.36523 31.5884 9.36523 31.5884C9.36523 31.5884 10.0571 31.7894 10.5136 31.8258C10.9933 31.864 11.2632 31.777 11.7443 31.7628C12.4025 31.7433 12.7719 31.7628 13.4304 31.7628C14.3084 31.7628 14.801 31.7397 15.6786 31.7628C16.4968 31.7843 16.9569 31.7927 17.7718 31.8694C18.1529 31.9053 18.7457 31.9808 18.7457 31.9808H19.9958C19.9958 31.9808 18.855 32.8358 18.0528 33.1679C17.2582 33.4969 16.7831 33.6284 15.9354 33.7736C14.5303 34.0142 14.1136 33.9625 12.8248 33.7736C11.9704 33.6483 11.5408 33.3908 10.8576 32.8627Z" fill="#C67577"/>
<path d="M10.8576 30.8567C10.337 31.1479 9.36523 31.3606 9.36523 31.3606C9.36523 31.3606 9.84629 31.5275 10.5136 31.5884C11.1951 31.6505 12.4315 31.6098 13.1155 31.5884C13.8398 31.5657 13.8056 31.5884 14.5303 31.5884C15.2569 31.5884 15.632 31.5393 16.357 31.5884C17.1387 31.6413 17.7019 31.7155 18.484 31.7628C19.0733 31.7984 19.5936 32.0402 20.1411 31.7628C20.1411 31.7628 19.8315 31.4592 19.5306 31.2455C19.0461 30.9015 18.5283 30.6086 17.922 30.3141C17.4933 30.1058 17.2744 29.845 16.7979 29.8392C16.4486 29.835 16.1576 29.9901 15.8191 30.0766C15.4238 30.1778 15.3259 30.3223 14.9179 30.3141C14.3799 30.3032 14.1613 29.8735 13.6242 29.8392C13.1432 29.8085 12.8726 29.9314 12.4129 30.0766C11.765 30.2813 11.4293 30.5369 10.8576 30.8567Z" stroke="white" stroke-width="3.5"/>
<path d="M10.8576 32.8627C10.332 32.4564 9.36523 31.5884 9.36523 31.5884C9.36523 31.5884 10.0571 31.7894 10.5136 31.8258C10.9933 31.864 11.2632 31.777 11.7443 31.7628C12.4025 31.7433 12.7719 31.7628 13.4304 31.7628C14.3084 31.7628 14.801 31.7397 15.6786 31.7628C16.4968 31.7843 16.9569 31.7927 17.7718 31.8694C18.1529 31.9053 18.7457 31.9808 18.7457 31.9808H19.9958C19.9958 31.9808 18.855 32.8358 18.0528 33.1679C17.2582 33.4969 16.7831 33.6284 15.9354 33.7736C14.5303 34.0142 14.1136 33.9625 12.8248 33.7736C11.9704 33.6483 11.5408 33.3908 10.8576 32.8627Z" stroke="white" stroke-width="3.5"/>
<mask id="path-10-inside-1" fill="white">
<path d="M18.8652 25.9247L19.2988 22.5933L22.6303 23.0269L18.8652 25.9247Z"/>
</mask>
<path d="M18.8652 25.9247L19.2988 22.5933L22.6303 23.0269L18.8652 25.9247Z" fill="#C69024"/>
<path d="M18.8652 25.9247L15.3945 25.4729L14.3038 33.852L20.9999 28.6983L18.8652 25.9247ZM19.2988 22.5933L19.7506 19.1225L16.2799 18.6708L15.8281 22.1415L19.2988 22.5933ZM22.6303 23.0269L24.765 25.8005L31.4611 20.6468L23.082 19.5562L22.6303 23.0269ZM22.3359 26.3765L22.7695 23.045L15.8281 22.1415L15.3945 25.4729L22.3359 26.3765ZM18.8471 26.064L22.1785 26.4976L23.082 19.5562L19.7506 19.1225L18.8471 26.064ZM20.4955 20.2533L16.7305 23.1511L20.9999 28.6983L24.765 25.8005L20.4955 20.2533Z" fill="white" mask="url(#path-10-inside-1)"/>
<mask id="path-12-inside-2" fill="white">
<path d="M23.2832 13.4482L21.9815 23.4485L22.6352 22.9454L23.8616 13.5235L23.2832 13.4482Z"/>
</mask>
<path d="M23.2832 13.4482L21.9815 23.4485L22.6352 22.9454L23.8616 13.5235L23.2832 13.4482Z" fill="#C69024"/>
<path d="M23.2832 13.4482L23.735 9.97752L20.2642 9.52575L19.8125 12.9965L23.2832 13.4482ZM21.9815 23.4485L18.5108 22.9968L17.4201 31.3758L24.1162 26.2221L21.9815 23.4485ZM22.6352 22.9454L24.77 25.719L25.9188 24.8348L26.106 23.3971L22.6352 22.9454ZM23.8616 13.5235L27.3324 13.9753L27.7841 10.5046L24.3134 10.0528L23.8616 13.5235ZM19.8125 12.9965L18.5108 22.9968L25.4522 23.9003L26.7539 13.9L19.8125 12.9965ZM24.1162 26.2221L24.77 25.719L20.5005 20.1718L19.8468 20.6749L24.1162 26.2221ZM26.106 23.3971L27.3324 13.9753L20.3909 13.0718L19.1645 22.4936L26.106 23.3971ZM24.3134 10.0528L23.735 9.97752L22.8314 16.919L23.4099 16.9943L24.3134 10.0528Z" fill="white" mask="url(#path-12-inside-2)"/>
<path d="M21.6944 15.0211L20.7875 21.9888L18.1713 24.0024L11.2035 23.0954L12.4118 13.8128L21.6944 15.0211Z" fill="#FCC24C" stroke="white" stroke-width="3.5"/>
<mask id="path-15-inside-3" fill="white">
<path d="M18.664 25.8314L19.0977 22.5L22.4291 22.9336L18.664 25.8314Z"/>
</mask>
<path d="M18.664 25.8314L19.0977 22.5L22.4291 22.9336L18.664 25.8314Z" fill="#DEA42E"/>
<path d="M18.664 25.8314L15.1933 25.3797L14.1026 33.7587L20.7987 28.6051L18.664 25.8314ZM19.0977 22.5L19.5494 19.0293L16.0787 18.5775L15.6269 22.0482L19.0977 22.5ZM22.4291 22.9336L24.5638 25.7073L31.2599 20.5536L22.8809 19.4629L22.4291 22.9336ZM22.1347 26.2832L22.5684 22.9518L15.6269 22.0482L15.1933 25.3797L22.1347 26.2832ZM18.6459 25.9707L21.9773 26.4044L22.8809 19.4629L19.5494 19.0293L18.6459 25.9707ZM20.2944 20.16L16.5293 23.0578L20.7987 28.6051L24.5638 25.7073L20.2944 20.16Z" fill="white" mask="url(#path-15-inside-3)"/>
<mask id="path-17-inside-4" fill="white">
<path d="M16.748 10.9937L18.2254 11.1859L17.811 14.3697L16.3336 14.1774L16.748 10.9937Z"/>
</mask>
<path d="M16.748 10.9937L18.2254 11.1859L17.811 14.3697L16.3336 14.1774L16.748 10.9937Z" fill="#F4EFED"/>
<path d="M16.748 10.9937L17.1998 7.52293L13.7291 7.07116L13.2773 10.5419L16.748 10.9937ZM18.2254 11.1859L21.6961 11.6377L22.1479 8.167L18.6771 7.71523L18.2254 11.1859ZM17.811 14.3697L17.3592 17.8404L20.8299 18.2922L21.2817 14.8215L17.811 14.3697ZM16.3336 14.1774L12.8629 13.7256L12.4111 17.1964L15.8819 17.6481L16.3336 14.1774ZM16.2963 14.4644L17.7736 14.6567L18.6771 7.71523L17.1998 7.52293L16.2963 14.4644ZM14.7546 10.7342L14.3402 13.9179L21.2817 14.8215L21.6961 11.6377L14.7546 10.7342ZM18.2627 10.899L16.7854 10.7067L15.8819 17.6481L17.3592 17.8404L18.2627 10.899ZM19.8044 14.6292L20.2188 11.4454L13.2773 10.5419L12.8629 13.7256L19.8044 14.6292Z" fill="white" mask="url(#path-17-inside-4)"/>
<mask id="path-19-outside-5" maskUnits="userSpaceOnUse" x="7.33984" y="13.2466" width="22" height="15" fill="black">
<rect fill="white" x="7.33984" y="13.2466" width="22" height="15"/>
<path d="M12.8915 20.4014C12.634 20.417 12.4064 20.2369 12.2088 19.8612C12.1169 19.9448 12 20.038 11.8582 20.1408C11.7163 20.2436 11.6233 20.3071 11.579 20.3313C11.5345 20.3528 11.4975 20.3645 11.468 20.3662C11.3875 20.3711 11.3449 20.3333 11.34 20.2528C11.3369 20.2019 11.3747 20.1579 11.4532 20.1208C11.4976 20.0993 11.5895 20.0372 11.7286 19.9346C11.8703 19.8291 11.9896 19.7317 12.0865 19.6424C12.0158 19.4529 11.9734 19.2401 11.9591 19.004C11.9376 18.6473 11.9847 18.3349 12.1004 18.0668C12.2186 17.7958 12.3595 17.6554 12.5232 17.6455C12.5929 17.6413 12.6545 17.6591 12.7081 17.699C12.7616 17.7388 12.8024 17.7902 12.8305 17.8531C12.8835 17.9737 12.9144 18.1065 12.9232 18.2513C12.9319 18.3961 12.9247 18.5446 12.9016 18.6968C12.8783 18.8462 12.847 18.9733 12.8075 19.078C12.7708 19.1825 12.7242 19.2809 12.6679 19.3731C12.5846 19.5101 12.4958 19.6218 12.4014 19.7082C12.5655 20.0186 12.724 20.1692 12.8769 20.16C12.9815 20.1537 13.093 20.1268 13.2112 20.0793C13.3295 20.0317 13.3926 20.0077 13.4007 20.0072C13.4812 20.0024 13.5238 20.0402 13.5287 20.1206C13.5322 20.1797 13.4946 20.225 13.4158 20.2567C13.195 20.3454 13.0202 20.3936 12.8915 20.4014ZM12.5377 17.8869C12.4921 17.8897 12.4365 17.9496 12.3709 18.0666C12.235 18.3117 12.1782 18.6193 12.2005 18.9895C12.2119 19.1772 12.2419 19.341 12.2908 19.4807C12.3743 19.3922 12.4496 19.28 12.5167 19.144C12.6464 18.8831 12.7007 18.5797 12.6798 18.2337C12.6751 18.1559 12.6597 18.0788 12.6335 18.0023C12.6072 17.9231 12.5753 17.8847 12.5377 17.8869Z"/>
<path d="M14.2253 18.318C14.2682 18.3154 14.3137 18.3329 14.3617 18.3704C14.4095 18.4052 14.4348 18.444 14.4374 18.4869C14.4398 18.5272 14.4229 18.5591 14.3866 18.5829C14.3531 18.6064 14.3148 18.6195 14.2719 18.6221C14.229 18.6247 14.1916 18.6081 14.1599 18.5723C14.1306 18.5337 14.1146 18.4916 14.1119 18.446C14.107 18.3656 14.1448 18.3229 14.2253 18.318ZM13.9536 19.8366C13.8131 20.0066 13.6672 20.1311 13.5158 20.2103C13.4688 20.2346 13.4306 20.2477 13.4011 20.2495C13.3206 20.2544 13.2779 20.2166 13.2731 20.1361C13.27 20.0851 13.3077 20.0411 13.3862 20.0041C13.4282 19.9854 13.4826 19.9498 13.5494 19.8973C13.6189 19.8447 13.665 19.8055 13.6877 19.7799C13.7104 19.7543 13.7493 19.7076 13.8044 19.6396C13.8622 19.5715 13.9075 19.5203 13.9405 19.486C13.9732 19.4491 14.0181 19.4114 14.075 19.3729C14.1345 19.3343 14.1898 19.3135 14.2408 19.3104C14.3454 19.3041 14.4281 19.3368 14.489 19.4085C14.5498 19.4802 14.5884 19.5613 14.6046 19.6519C14.6487 19.8915 14.7029 20.0094 14.7673 20.0055C14.8183 20.0024 14.8832 19.985 14.962 19.9533C15.0409 19.9216 15.0843 19.9056 15.0924 19.9051C15.1728 19.9002 15.2155 19.938 15.2203 20.0185C15.2239 20.0775 15.1863 20.1228 15.1074 20.1545C14.9655 20.2115 14.8489 20.2428 14.7577 20.2483C14.6692 20.2537 14.5946 20.2205 14.5337 20.1488C14.4728 20.0771 14.4343 19.996 14.418 19.9054C14.374 19.6658 14.3197 19.5479 14.2554 19.5518C14.2205 19.5539 14.1816 19.5792 14.1388 19.6275C14.0985 19.673 14.0657 19.71 14.0405 19.7384C14.0151 19.7642 13.9862 19.7969 13.9536 19.8366Z"/>
<path d="M17.6418 20.0015C17.4999 20.0585 17.3887 20.0894 17.3082 20.0943C17.2277 20.0992 17.1629 20.0735 17.1138 20.0172C17.0646 19.9609 17.0169 19.8629 16.9708 19.723C16.9274 19.5829 16.8962 19.5135 16.8775 19.5146C16.8077 19.5188 16.7405 19.6306 16.6756 19.8498C16.651 19.9321 16.6072 20.0088 16.5442 20.0799C16.4811 20.151 16.3987 20.1896 16.2968 20.1958C16.1975 20.2018 16.1171 20.1622 16.0554 20.0771C15.9937 19.992 15.9544 19.8974 15.9373 19.7935C15.923 19.6894 15.9037 19.5936 15.8796 19.5062C15.8555 19.4189 15.8219 19.3765 15.779 19.3791C15.7495 19.3808 15.7286 19.3902 15.7161 19.4071C15.7037 19.424 15.6926 19.4408 15.6828 19.4575C15.6756 19.4714 15.6671 19.4868 15.6573 19.5035C15.6501 19.5174 15.6405 19.5368 15.6285 19.5618C15.6193 19.5866 15.6074 19.6129 15.5929 19.6406C15.545 19.7378 15.5063 19.8101 15.4768 19.8576C15.4186 19.9634 15.3281 20.047 15.2053 20.1082C15.1583 20.1326 15.12 20.1457 15.0905 20.1475C15.0101 20.1523 14.9674 20.1145 14.9625 20.0341C14.9595 19.9831 14.9999 19.9389 15.0838 19.9016C15.1676 19.8642 15.2252 19.8149 15.2565 19.7538C15.2904 19.6899 15.3277 19.6176 15.3686 19.5371C15.4095 19.4566 15.4372 19.4024 15.4517 19.3746C15.4688 19.3466 15.4897 19.3131 15.5143 19.2739C15.5386 19.2321 15.5612 19.2051 15.5821 19.1931C15.6366 19.1602 15.6974 19.1417 15.7645 19.1377C15.8744 19.131 15.9602 19.1702 16.0219 19.2554C16.0836 19.3405 16.1216 19.4351 16.136 19.5392C16.153 19.6432 16.1736 19.7388 16.1977 19.8262C16.2218 19.9136 16.2554 19.956 16.2983 19.9534C16.3412 19.9508 16.3794 19.9148 16.4129 19.8455C16.4491 19.776 16.4795 19.7002 16.5041 19.6179C16.5288 19.5357 16.5713 19.4591 16.6316 19.3881C16.6946 19.317 16.7717 19.2787 16.8629 19.2732C16.9326 19.269 16.9846 19.2834 17.0189 19.3163C17.0531 19.3465 17.0774 19.3706 17.0919 19.3886C17.1092 19.4064 17.1243 19.4338 17.1373 19.4707C17.153 19.5074 17.164 19.535 17.1705 19.5534C17.1769 19.5692 17.1867 19.5982 17.2 19.6405C17.2411 19.7861 17.275 19.8567 17.3017 19.8524C17.3526 19.8493 17.4175 19.832 17.4964 19.8003C17.5752 19.7686 17.6187 19.7525 17.6267 19.752C17.7072 19.7472 17.7498 19.785 17.7547 19.8654C17.7583 19.9244 17.7206 19.9698 17.6418 20.0015Z"/>
<path d="M18.1458 17.9238C18.0934 17.8596 18.0652 17.7927 18.0609 17.723C18.0567 17.6532 18.0759 17.5915 18.1184 17.5378C18.1636 17.4839 18.2205 17.4455 18.2891 17.4225C18.3604 17.3994 18.4425 17.3769 18.5354 17.3551C18.6283 17.3334 18.7094 17.3164 18.7786 17.3041C18.9597 17.2716 19.0556 17.2551 19.0664 17.2544C19.0796 17.2509 19.0983 17.2485 19.1224 17.247C19.2029 17.2421 19.2456 17.2799 19.2504 17.3604C19.2517 17.3819 19.2425 17.4067 19.2226 17.4348C19.2028 17.4629 19.1822 17.4789 19.1609 17.4829C19.1396 17.4869 19.0931 17.4964 19.0213 17.5115C18.9521 17.5238 18.8802 17.5376 18.8058 17.5528C18.7311 17.5654 18.654 17.5808 18.5744 17.5991C18.3912 17.6425 18.3006 17.6789 18.3023 17.7084C18.3036 17.7299 18.3561 17.7967 18.4598 17.9089C18.5633 18.0184 18.6842 18.147 18.8223 18.2948C18.9631 18.4424 19.0645 18.5615 19.1265 18.652C19.191 18.7396 19.2268 18.8411 19.2338 18.9564C19.2406 19.0691 19.2067 19.199 19.1321 19.3462C19.0601 19.4905 18.968 19.6145 18.8558 19.7182C18.7461 19.819 18.6314 19.904 18.5118 19.9732C18.392 20.0396 18.2798 20.076 18.1752 20.0823C18.0732 20.0885 17.9827 20.0603 17.9035 19.9978C17.8271 19.9351 17.7856 19.8501 17.7791 19.7428C17.7618 19.4558 17.8391 19.2196 18.0109 19.0343C18.1853 18.8461 18.3731 18.7459 18.5742 18.7338C18.6118 18.7315 18.6712 18.7346 18.7525 18.7432C18.8338 18.7517 18.8896 18.7632 18.9201 18.7775C18.8611 18.6922 18.7311 18.5453 18.5301 18.3367C18.3289 18.1254 18.2008 17.9878 18.1458 17.9238ZM18.9849 19.0482C18.9407 19.0293 18.875 19.0117 18.7879 18.9954C18.7008 18.9792 18.6344 18.9724 18.5888 18.9752C18.4574 18.9831 18.3258 19.0557 18.1941 19.1928C18.0649 19.3271 18.0071 19.5056 18.0205 19.7282C18.0228 19.7658 18.0407 19.7943 18.0741 19.8138C18.1076 19.8334 18.1512 19.8415 18.2048 19.8382C18.2585 19.835 18.3372 19.802 18.4411 19.7392C18.5477 19.6762 18.6564 19.5822 18.7673 19.457C18.878 19.3292 18.9506 19.1929 18.9849 19.0482Z"/>
<path d="M19.827 18.8519C19.9074 18.8471 19.9501 18.8849 19.9549 18.9653C19.9569 18.9975 19.9521 19.0301 19.9407 19.0631C19.9292 19.0961 19.9248 19.1354 19.9276 19.181C19.9302 19.2239 19.9463 19.2674 19.9758 19.3113C20.0081 19.3552 20.0527 19.4023 20.1096 19.4527C20.1663 19.5004 20.2494 19.5398 20.359 19.5709C20.4685 19.6019 20.5769 19.6142 20.6842 19.6078C20.7942 19.6011 20.8864 19.5673 20.9608 19.5063C21.0351 19.4452 21.0693 19.3638 21.0631 19.2618C21.0529 19.0929 21.0058 18.9598 20.9219 18.8625C20.8378 18.7626 20.726 18.7169 20.5865 18.7253C20.5221 18.7292 20.4576 18.7533 20.393 18.7976C20.3311 18.8417 20.2907 18.8643 20.2719 18.8654C20.1915 18.8703 20.1488 18.8325 20.144 18.752C20.1409 18.7011 20.1833 18.646 20.2713 18.5869C20.3617 18.5249 20.462 18.4906 20.5719 18.4839C20.7758 18.4716 20.9453 18.5367 21.0804 18.6793C21.2154 18.8192 21.2901 19.0085 21.3045 19.2473C21.3149 19.4189 21.2587 19.5596 21.1362 19.6693C21.0163 19.7788 20.8839 19.838 20.739 19.8467C20.5942 19.8555 20.4604 19.8461 20.3376 19.8185C20.2173 19.7881 20.1193 19.7482 20.0437 19.6989C19.9678 19.647 19.9012 19.5904 19.8436 19.5293C19.7456 19.4222 19.6938 19.3217 19.6881 19.2278C19.6823 19.1312 19.692 19.0458 19.7171 18.9716C19.7421 18.8948 19.7787 18.8549 19.827 18.8519Z"/>
</mask>
<path d="M12.8915 20.4014C12.634 20.417 12.4064 20.2369 12.2088 19.8612C12.1169 19.9448 12 20.038 11.8582 20.1408C11.7163 20.2436 11.6233 20.3071 11.579 20.3313C11.5345 20.3528 11.4975 20.3645 11.468 20.3662C11.3875 20.3711 11.3449 20.3333 11.34 20.2528C11.3369 20.2019 11.3747 20.1579 11.4532 20.1208C11.4976 20.0993 11.5895 20.0372 11.7286 19.9346C11.8703 19.8291 11.9896 19.7317 12.0865 19.6424C12.0158 19.4529 11.9734 19.2401 11.9591 19.004C11.9376 18.6473 11.9847 18.3349 12.1004 18.0668C12.2186 17.7958 12.3595 17.6554 12.5232 17.6455C12.5929 17.6413 12.6545 17.6591 12.7081 17.699C12.7616 17.7388 12.8024 17.7902 12.8305 17.8531C12.8835 17.9737 12.9144 18.1065 12.9232 18.2513C12.9319 18.3961 12.9247 18.5446 12.9016 18.6968C12.8783 18.8462 12.847 18.9733 12.8075 19.078C12.7708 19.1825 12.7242 19.2809 12.6679 19.3731C12.5846 19.5101 12.4958 19.6218 12.4014 19.7082C12.5655 20.0186 12.724 20.1692 12.8769 20.16C12.9815 20.1537 13.093 20.1268 13.2112 20.0793C13.3295 20.0317 13.3926 20.0077 13.4007 20.0072C13.4812 20.0024 13.5238 20.0402 13.5287 20.1206C13.5322 20.1797 13.4946 20.225 13.4158 20.2567C13.195 20.3454 13.0202 20.3936 12.8915 20.4014ZM12.5377 17.8869C12.4921 17.8897 12.4365 17.9496 12.3709 18.0666C12.235 18.3117 12.1782 18.6193 12.2005 18.9895C12.2119 19.1772 12.2419 19.341 12.2908 19.4807C12.3743 19.3922 12.4496 19.28 12.5167 19.144C12.6464 18.8831 12.7007 18.5797 12.6798 18.2337C12.6751 18.1559 12.6597 18.0788 12.6335 18.0023C12.6072 17.9231 12.5753 17.8847 12.5377 17.8869Z" fill="#11145F"/>
<path d="M14.2253 18.318C14.2682 18.3154 14.3137 18.3329 14.3617 18.3704C14.4095 18.4052 14.4348 18.444 14.4374 18.4869C14.4398 18.5272 14.4229 18.5591 14.3866 18.5829C14.3531 18.6064 14.3148 18.6195 14.2719 18.6221C14.229 18.6247 14.1916 18.6081 14.1599 18.5723C14.1306 18.5337 14.1146 18.4916 14.1119 18.446C14.107 18.3656 14.1448 18.3229 14.2253 18.318ZM13.9536 19.8366C13.8131 20.0066 13.6672 20.1311 13.5158 20.2103C13.4688 20.2346 13.4306 20.2477 13.4011 20.2495C13.3206 20.2544 13.2779 20.2166 13.2731 20.1361C13.27 20.0851 13.3077 20.0411 13.3862 20.0041C13.4282 19.9854 13.4826 19.9498 13.5494 19.8973C13.6189 19.8447 13.665 19.8055 13.6877 19.7799C13.7104 19.7543 13.7493 19.7076 13.8044 19.6396C13.8622 19.5715 13.9075 19.5203 13.9405 19.486C13.9732 19.4491 14.0181 19.4114 14.075 19.3729C14.1345 19.3343 14.1898 19.3135 14.2408 19.3104C14.3454 19.3041 14.4281 19.3368 14.489 19.4085C14.5498 19.4802 14.5884 19.5613 14.6046 19.6519C14.6487 19.8915 14.7029 20.0094 14.7673 20.0055C14.8183 20.0024 14.8832 19.985 14.962 19.9533C15.0409 19.9216 15.0843 19.9056 15.0924 19.9051C15.1728 19.9002 15.2155 19.938 15.2203 20.0185C15.2239 20.0775 15.1863 20.1228 15.1074 20.1545C14.9655 20.2115 14.8489 20.2428 14.7577 20.2483C14.6692 20.2537 14.5946 20.2205 14.5337 20.1488C14.4728 20.0771 14.4343 19.996 14.418 19.9054C14.374 19.6658 14.3197 19.5479 14.2554 19.5518C14.2205 19.5539 14.1816 19.5792 14.1388 19.6275C14.0985 19.673 14.0657 19.71 14.0405 19.7384C14.0151 19.7642 13.9862 19.7969 13.9536 19.8366Z" fill="#11145F"/>
<path d="M17.6418 20.0015C17.4999 20.0585 17.3887 20.0894 17.3082 20.0943C17.2277 20.0992 17.1629 20.0735 17.1138 20.0172C17.0646 19.9609 17.0169 19.8629 16.9708 19.723C16.9274 19.5829 16.8962 19.5135 16.8775 19.5146C16.8077 19.5188 16.7405 19.6306 16.6756 19.8498C16.651 19.9321 16.6072 20.0088 16.5442 20.0799C16.4811 20.151 16.3987 20.1896 16.2968 20.1958C16.1975 20.2018 16.1171 20.1622 16.0554 20.0771C15.9937 19.992 15.9544 19.8974 15.9373 19.7935C15.923 19.6894 15.9037 19.5936 15.8796 19.5062C15.8555 19.4189 15.8219 19.3765 15.779 19.3791C15.7495 19.3808 15.7286 19.3902 15.7161 19.4071C15.7037 19.424 15.6926 19.4408 15.6828 19.4575C15.6756 19.4714 15.6671 19.4868 15.6573 19.5035C15.6501 19.5174 15.6405 19.5368 15.6285 19.5618C15.6193 19.5866 15.6074 19.6129 15.5929 19.6406C15.545 19.7378 15.5063 19.8101 15.4768 19.8576C15.4186 19.9634 15.3281 20.047 15.2053 20.1082C15.1583 20.1326 15.12 20.1457 15.0905 20.1475C15.0101 20.1523 14.9674 20.1145 14.9625 20.0341C14.9595 19.9831 14.9999 19.9389 15.0838 19.9016C15.1676 19.8642 15.2252 19.8149 15.2565 19.7538C15.2904 19.6899 15.3277 19.6176 15.3686 19.5371C15.4095 19.4566 15.4372 19.4024 15.4517 19.3746C15.4688 19.3466 15.4897 19.3131 15.5143 19.2739C15.5386 19.2321 15.5612 19.2051 15.5821 19.1931C15.6366 19.1602 15.6974 19.1417 15.7645 19.1377C15.8744 19.131 15.9602 19.1702 16.0219 19.2554C16.0836 19.3405 16.1216 19.4351 16.136 19.5392C16.153 19.6432 16.1736 19.7388 16.1977 19.8262C16.2218 19.9136 16.2554 19.956 16.2983 19.9534C16.3412 19.9508 16.3794 19.9148 16.4129 19.8455C16.4491 19.776 16.4795 19.7002 16.5041 19.6179C16.5288 19.5357 16.5713 19.4591 16.6316 19.3881C16.6946 19.317 16.7717 19.2787 16.8629 19.2732C16.9326 19.269 16.9846 19.2834 17.0189 19.3163C17.0531 19.3465 17.0774 19.3706 17.0919 19.3886C17.1092 19.4064 17.1243 19.4338 17.1373 19.4707C17.153 19.5074 17.164 19.535 17.1705 19.5534C17.1769 19.5692 17.1867 19.5982 17.2 19.6405C17.2411 19.7861 17.275 19.8567 17.3017 19.8524C17.3526 19.8493 17.4175 19.832 17.4964 19.8003C17.5752 19.7686 17.6187 19.7525 17.6267 19.752C17.7072 19.7472 17.7498 19.785 17.7547 19.8654C17.7583 19.9244 17.7206 19.9698 17.6418 20.0015Z" fill="#11145F"/>
<path d="M18.1458 17.9238C18.0934 17.8596 18.0652 17.7927 18.0609 17.723C18.0567 17.6532 18.0759 17.5915 18.1184 17.5378C18.1636 17.4839 18.2205 17.4455 18.2891 17.4225C18.3604 17.3994 18.4425 17.3769 18.5354 17.3551C18.6283 17.3334 18.7094 17.3164 18.7786 17.3041C18.9597 17.2716 19.0556 17.2551 19.0664 17.2544C19.0796 17.2509 19.0983 17.2485 19.1224 17.247C19.2029 17.2421 19.2456 17.2799 19.2504 17.3604C19.2517 17.3819 19.2425 17.4067 19.2226 17.4348C19.2028 17.4629 19.1822 17.4789 19.1609 17.4829C19.1396 17.4869 19.0931 17.4964 19.0213 17.5115C18.9521 17.5238 18.8802 17.5376 18.8058 17.5528C18.7311 17.5654 18.654 17.5808 18.5744 17.5991C18.3912 17.6425 18.3006 17.6789 18.3023 17.7084C18.3036 17.7299 18.3561 17.7967 18.4598 17.9089C18.5633 18.0184 18.6842 18.147 18.8223 18.2948C18.9631 18.4424 19.0645 18.5615 19.1265 18.652C19.191 18.7396 19.2268 18.8411 19.2338 18.9564C19.2406 19.0691 19.2067 19.199 19.1321 19.3462C19.0601 19.4905 18.968 19.6145 18.8558 19.7182C18.7461 19.819 18.6314 19.904 18.5118 19.9732C18.392 20.0396 18.2798 20.076 18.1752 20.0823C18.0732 20.0885 17.9827 20.0603 17.9035 19.9978C17.8271 19.9351 17.7856 19.8501 17.7791 19.7428C17.7618 19.4558 17.8391 19.2196 18.0109 19.0343C18.1853 18.8461 18.3731 18.7459 18.5742 18.7338C18.6118 18.7315 18.6712 18.7346 18.7525 18.7432C18.8338 18.7517 18.8896 18.7632 18.9201 18.7775C18.8611 18.6922 18.7311 18.5453 18.5301 18.3367C18.3289 18.1254 18.2008 17.9878 18.1458 17.9238ZM18.9849 19.0482C18.9407 19.0293 18.875 19.0117 18.7879 18.9954C18.7008 18.9792 18.6344 18.9724 18.5888 18.9752C18.4574 18.9831 18.3258 19.0557 18.1941 19.1928C18.0649 19.3271 18.0071 19.5056 18.0205 19.7282C18.0228 19.7658 18.0407 19.7943 18.0741 19.8138C18.1076 19.8334 18.1512 19.8415 18.2048 19.8382C18.2585 19.835 18.3372 19.802 18.4411 19.7392C18.5477 19.6762 18.6564 19.5822 18.7673 19.457C18.878 19.3292 18.9506 19.1929 18.9849 19.0482Z" fill="#11145F"/>
<path d="M19.827 18.8519C19.9074 18.8471 19.9501 18.8849 19.9549 18.9653C19.9569 18.9975 19.9521 19.0301 19.9407 19.0631C19.9292 19.0961 19.9248 19.1354 19.9276 19.181C19.9302 19.2239 19.9463 19.2674 19.9758 19.3113C20.0081 19.3552 20.0527 19.4023 20.1096 19.4527C20.1663 19.5004 20.2494 19.5398 20.359 19.5709C20.4685 19.6019 20.5769 19.6142 20.6842 19.6078C20.7942 19.6011 20.8864 19.5673 20.9608 19.5063C21.0351 19.4452 21.0693 19.3638 21.0631 19.2618C21.0529 19.0929 21.0058 18.9598 20.9219 18.8625C20.8378 18.7626 20.726 18.7169 20.5865 18.7253C20.5221 18.7292 20.4576 18.7533 20.393 18.7976C20.3311 18.8417 20.2907 18.8643 20.2719 18.8654C20.1915 18.8703 20.1488 18.8325 20.144 18.752C20.1409 18.7011 20.1833 18.646 20.2713 18.5869C20.3617 18.5249 20.462 18.4906 20.5719 18.4839C20.7758 18.4716 20.9453 18.5367 21.0804 18.6793C21.2154 18.8192 21.2901 19.0085 21.3045 19.2473C21.3149 19.4189 21.2587 19.5596 21.1362 19.6693C21.0163 19.7788 20.8839 19.838 20.739 19.8467C20.5942 19.8555 20.4604 19.8461 20.3376 19.8185C20.2173 19.7881 20.1193 19.7482 20.0437 19.6989C19.9678 19.647 19.9012 19.5904 19.8436 19.5293C19.7456 19.4222 19.6938 19.3217 19.6881 19.2278C19.6823 19.1312 19.692 19.0458 19.7171 18.9716C19.7421 18.8948 19.7787 18.8549 19.827 18.8519Z" fill="#11145F"/>
<path d="M12.8915 20.4014C12.634 20.417 12.4064 20.2369 12.2088 19.8612C12.1169 19.9448 12 20.038 11.8582 20.1408C11.7163 20.2436 11.6233 20.3071 11.579 20.3313C11.5345 20.3528 11.4975 20.3645 11.468 20.3662C11.3875 20.3711 11.3449 20.3333 11.34 20.2528C11.3369 20.2019 11.3747 20.1579 11.4532 20.1208C11.4976 20.0993 11.5895 20.0372 11.7286 19.9346C11.8703 19.8291 11.9896 19.7317 12.0865 19.6424C12.0158 19.4529 11.9734 19.2401 11.9591 19.004C11.9376 18.6473 11.9847 18.3349 12.1004 18.0668C12.2186 17.7958 12.3595 17.6554 12.5232 17.6455C12.5929 17.6413 12.6545 17.6591 12.7081 17.699C12.7616 17.7388 12.8024 17.7902 12.8305 17.8531C12.8835 17.9737 12.9144 18.1065 12.9232 18.2513C12.9319 18.3961 12.9247 18.5446 12.9016 18.6968C12.8783 18.8462 12.847 18.9733 12.8075 19.078C12.7708 19.1825 12.7242 19.2809 12.6679 19.3731C12.5846 19.5101 12.4958 19.6218 12.4014 19.7082C12.5655 20.0186 12.724 20.1692 12.8769 20.16C12.9815 20.1537 13.093 20.1268 13.2112 20.0793C13.3295 20.0317 13.3926 20.0077 13.4007 20.0072C13.4812 20.0024 13.5238 20.0402 13.5287 20.1206C13.5322 20.1797 13.4946 20.225 13.4158 20.2567C13.195 20.3454 13.0202 20.3936 12.8915 20.4014ZM12.5377 17.8869C12.4921 17.8897 12.4365 17.9496 12.3709 18.0666C12.235 18.3117 12.1782 18.6193 12.2005 18.9895C12.2119 19.1772 12.2419 19.341 12.2908 19.4807C12.3743 19.3922 12.4496 19.28 12.5167 19.144C12.6464 18.8831 12.7007 18.5797 12.6798 18.2337C12.6751 18.1559 12.6597 18.0788 12.6335 18.0023C12.6072 17.9231 12.5753 17.8847 12.5377 17.8869Z" stroke="white" stroke-width="7" mask="url(#path-19-outside-5)"/>
<path d="M14.2253 18.318C14.2682 18.3154 14.3137 18.3329 14.3617 18.3704C14.4095 18.4052 14.4348 18.444 14.4374 18.4869C14.4398 18.5272 14.4229 18.5591 14.3866 18.5829C14.3531 18.6064 14.3148 18.6195 14.2719 18.6221C14.229 18.6247 14.1916 18.6081 14.1599 18.5723C14.1306 18.5337 14.1146 18.4916 14.1119 18.446C14.107 18.3656 14.1448 18.3229 14.2253 18.318ZM13.9536 19.8366C13.8131 20.0066 13.6672 20.1311 13.5158 20.2103C13.4688 20.2346 13.4306 20.2477 13.4011 20.2495C13.3206 20.2544 13.2779 20.2166 13.2731 20.1361C13.27 20.0851 13.3077 20.0411 13.3862 20.0041C13.4282 19.9854 13.4826 19.9498 13.5494 19.8973C13.6189 19.8447 13.665 19.8055 13.6877 19.7799C13.7104 19.7543 13.7493 19.7076 13.8044 19.6396C13.8622 19.5715 13.9075 19.5203 13.9405 19.486C13.9732 19.4491 14.0181 19.4114 14.075 19.3729C14.1345 19.3343 14.1898 19.3135 14.2408 19.3104C14.3454 19.3041 14.4281 19.3368 14.489 19.4085C14.5498 19.4802 14.5884 19.5613 14.6046 19.6519C14.6487 19.8915 14.7029 20.0094 14.7673 20.0055C14.8183 20.0024 14.8832 19.985 14.962 19.9533C15.0409 19.9216 15.0843 19.9056 15.0924 19.9051C15.1728 19.9002 15.2155 19.938 15.2203 20.0185C15.2239 20.0775 15.1863 20.1228 15.1074 20.1545C14.9655 20.2115 14.8489 20.2428 14.7577 20.2483C14.6692 20.2537 14.5946 20.2205 14.5337 20.1488C14.4728 20.0771 14.4343 19.996 14.418 19.9054C14.374 19.6658 14.3197 19.5479 14.2554 19.5518C14.2205 19.5539 14.1816 19.5792 14.1388 19.6275C14.0985 19.673 14.0657 19.71 14.0405 19.7384C14.0151 19.7642 13.9862 19.7969 13.9536 19.8366Z" stroke="white" stroke-width="7" mask="url(#path-19-outside-5)"/>
<path d="M17.6418 20.0015C17.4999 20.0585 17.3887 20.0894 17.3082 20.0943C17.2277 20.0992 17.1629 20.0735 17.1138 20.0172C17.0646 19.9609 17.0169 19.8629 16.9708 19.723C16.9274 19.5829 16.8962 19.5135 16.8775 19.5146C16.8077 19.5188 16.7405 19.6306 16.6756 19.8498C16.651 19.9321 16.6072 20.0088 16.5442 20.0799C16.4811 20.151 16.3987 20.1896 16.2968 20.1958C16.1975 20.2018 16.1171 20.1622 16.0554 20.0771C15.9937 19.992 15.9544 19.8974 15.9373 19.7935C15.923 19.6894 15.9037 19.5936 15.8796 19.5062C15.8555 19.4189 15.8219 19.3765 15.779 19.3791C15.7495 19.3808 15.7286 19.3902 15.7161 19.4071C15.7037 19.424 15.6926 19.4408 15.6828 19.4575C15.6756 19.4714 15.6671 19.4868 15.6573 19.5035C15.6501 19.5174 15.6405 19.5368 15.6285 19.5618C15.6193 19.5866 15.6074 19.6129 15.5929 19.6406C15.545 19.7378 15.5063 19.8101 15.4768 19.8576C15.4186 19.9634 15.3281 20.047 15.2053 20.1082C15.1583 20.1326 15.12 20.1457 15.0905 20.1475C15.0101 20.1523 14.9674 20.1145 14.9625 20.0341C14.9595 19.9831 14.9999 19.9389 15.0838 19.9016C15.1676 19.8642 15.2252 19.8149 15.2565 19.7538C15.2904 19.6899 15.3277 19.6176 15.3686 19.5371C15.4095 19.4566 15.4372 19.4024 15.4517 19.3746C15.4688 19.3466 15.4897 19.3131 15.5143 19.2739C15.5386 19.2321 15.5612 19.2051 15.5821 19.1931C15.6366 19.1602 15.6974 19.1417 15.7645 19.1377C15.8744 19.131 15.9602 19.1702 16.0219 19.2554C16.0836 19.3405 16.1216 19.4351 16.136 19.5392C16.153 19.6432 16.1736 19.7388 16.1977 19.8262C16.2218 19.9136 16.2554 19.956 16.2983 19.9534C16.3412 19.9508 16.3794 19.9148 16.4129 19.8455C16.4491 19.776 16.4795 19.7002 16.5041 19.6179C16.5288 19.5357 16.5713 19.4591 16.6316 19.3881C16.6946 19.317 16.7717 19.2787 16.8629 19.2732C16.9326 19.269 16.9846 19.2834 17.0189 19.3163C17.0531 19.3465 17.0774 19.3706 17.0919 19.3886C17.1092 19.4064 17.1243 19.4338 17.1373 19.4707C17.153 19.5074 17.164 19.535 17.1705 19.5534C17.1769 19.5692 17.1867 19.5982 17.2 19.6405C17.2411 19.7861 17.275 19.8567 17.3017 19.8524C17.3526 19.8493 17.4175 19.832 17.4964 19.8003C17.5752 19.7686 17.6187 19.7525 17.6267 19.752C17.7072 19.7472 17.7498 19.785 17.7547 19.8654C17.7583 19.9244 17.7206 19.9698 17.6418 20.0015Z" stroke="white" stroke-width="7" mask="url(#path-19-outside-5)"/>
<path d="M18.1458 17.9238C18.0934 17.8596 18.0652 17.7927 18.0609 17.723C18.0567 17.6532 18.0759 17.5915 18.1184 17.5378C18.1636 17.4839 18.2205 17.4455 18.2891 17.4225C18.3604 17.3994 18.4425 17.3769 18.5354 17.3551C18.6283 17.3334 18.7094 17.3164 18.7786 17.3041C18.9597 17.2716 19.0556 17.2551 19.0664 17.2544C19.0796 17.2509 19.0983 17.2485 19.1224 17.247C19.2029 17.2421 19.2456 17.2799 19.2504 17.3604C19.2517 17.3819 19.2425 17.4067 19.2226 17.4348C19.2028 17.4629 19.1822 17.4789 19.1609 17.4829C19.1396 17.4869 19.0931 17.4964 19.0213 17.5115C18.9521 17.5238 18.8802 17.5376 18.8058 17.5528C18.7311 17.5654 18.654 17.5808 18.5744 17.5991C18.3912 17.6425 18.3006 17.6789 18.3023 17.7084C18.3036 17.7299 18.3561 17.7967 18.4598 17.9089C18.5633 18.0184 18.6842 18.147 18.8223 18.2948C18.9631 18.4424 19.0645 18.5615 19.1265 18.652C19.191 18.7396 19.2268 18.8411 19.2338 18.9564C19.2406 19.0691 19.2067 19.199 19.1321 19.3462C19.0601 19.4905 18.968 19.6145 18.8558 19.7182C18.7461 19.819 18.6314 19.904 18.5118 19.9732C18.392 20.0396 18.2798 20.076 18.1752 20.0823C18.0732 20.0885 17.9827 20.0603 17.9035 19.9978C17.8271 19.9351 17.7856 19.8501 17.7791 19.7428C17.7618 19.4558 17.8391 19.2196 18.0109 19.0343C18.1853 18.8461 18.3731 18.7459 18.5742 18.7338C18.6118 18.7315 18.6712 18.7346 18.7525 18.7432C18.8338 18.7517 18.8896 18.7632 18.9201 18.7775C18.8611 18.6922 18.7311 18.5453 18.5301 18.3367C18.3289 18.1254 18.2008 17.9878 18.1458 17.9238ZM18.9849 19.0482C18.9407 19.0293 18.875 19.0117 18.7879 18.9954C18.7008 18.9792 18.6344 18.9724 18.5888 18.9752C18.4574 18.9831 18.3258 19.0557 18.1941 19.1928C18.0649 19.3271 18.0071 19.5056 18.0205 19.7282C18.0228 19.7658 18.0407 19.7943 18.0741 19.8138C18.1076 19.8334 18.1512 19.8415 18.2048 19.8382C18.2585 19.835 18.3372 19.802 18.4411 19.7392C18.5477 19.6762 18.6564 19.5822 18.7673 19.457C18.878 19.3292 18.9506 19.1929 18.9849 19.0482Z" stroke="white" stroke-width="7" mask="url(#path-19-outside-5)"/>
<path d="M19.827 18.8519C19.9074 18.8471 19.9501 18.8849 19.9549 18.9653C19.9569 18.9975 19.9521 19.0301 19.9407 19.0631C19.9292 19.0961 19.9248 19.1354 19.9276 19.181C19.9302 19.2239 19.9463 19.2674 19.9758 19.3113C20.0081 19.3552 20.0527 19.4023 20.1096 19.4527C20.1663 19.5004 20.2494 19.5398 20.359 19.5709C20.4685 19.6019 20.5769 19.6142 20.6842 19.6078C20.7942 19.6011 20.8864 19.5673 20.9608 19.5063C21.0351 19.4452 21.0693 19.3638 21.0631 19.2618C21.0529 19.0929 21.0058 18.9598 20.9219 18.8625C20.8378 18.7626 20.726 18.7169 20.5865 18.7253C20.5221 18.7292 20.4576 18.7533 20.393 18.7976C20.3311 18.8417 20.2907 18.8643 20.2719 18.8654C20.1915 18.8703 20.1488 18.8325 20.144 18.752C20.1409 18.7011 20.1833 18.646 20.2713 18.5869C20.3617 18.5249 20.462 18.4906 20.5719 18.4839C20.7758 18.4716 20.9453 18.5367 21.0804 18.6793C21.2154 18.8192 21.2901 19.0085 21.3045 19.2473C21.3149 19.4189 21.2587 19.5596 21.1362 19.6693C21.0163 19.7788 20.8839 19.838 20.739 19.8467C20.5942 19.8555 20.4604 19.8461 20.3376 19.8185C20.2173 19.7881 20.1193 19.7482 20.0437 19.6989C19.9678 19.647 19.9012 19.5904 19.8436 19.5293C19.7456 19.4222 19.6938 19.3217 19.6881 19.2278C19.6823 19.1312 19.692 19.0458 19.7171 18.9716C19.7421 18.8948 19.7787 18.8549 19.827 18.8519Z" stroke="white" stroke-width="7" mask="url(#path-19-outside-5)"/>
<path d="M6.16568 13.7877C6.75598 11.9108 5.97971 10.1324 7.54659 8.94243C9.1258 7.74306 10.6432 8.85809 12.6244 8.94243C16.0101 9.08655 17.8956 9.42083 21.2442 9.94056C23.8403 10.3435 26.6808 10.9338 27.0246 11.7624C27.3202 12.4746 28.0185 13.1991 27.858 15.343C27.7387 16.9361 28.1065 18.901 27.858 20.479C27.559 22.3781 27.858 25.4018 27.858 25.4018C27.858 25.4018 28.4445 24.5859 29.0112 24.4812C30.1927 24.2631 29.5987 26.5099 29.0112 27.558C28.1936 29.0164 27.858 32.0205 27.0404 32.0205C26.627 32.0205 26.0895 31.5553 26.0895 31.5553C26.0895 31.5553 24.9354 35.2882 23.3955 37.171C22.4671 38.3062 21.8447 38.8902 20.6288 39.7099C18.2567 41.3092 16.4423 42.3775 13.6274 41.8661C11.828 41.5392 10.8693 41.1008 9.39749 40.0152C8.59255 39.4215 7.49518 38.2091 6.75681 37.5344C5.51811 36.4025 5.22097 36.5202 4.46984 35.0197C3.93172 33.9448 3.987 33.3734 3.77696 32.0205L3.23914 28.5561C3.23914 28.5561 3.06089 28.9031 2.85636 29.0164C2.29286 29.3285 2.26178 28.1777 2.08596 27.558C1.75541 26.3929 2.48557 25.6922 2.47358 24.4812C2.46247 23.3584 1.79499 22.7167 2.08596 21.6322C2.25288 21.0101 2.34039 20.5594 2.85636 20.1738C3.76232 19.4968 3.38097 22.503 3.26709 23.2925C3.34276 22.7967 3.56056 21.4158 3.77696 20.479C4.4015 17.7756 5.33325 16.4345 6.16568 13.7877Z" fill="#E2B297"/>
<path d="M4.20483 19.801C3.26 23.6752 3.24547 23.12 3.24547 23.12C3.24547 23.12 3.5071 21.2885 3.38112 20.6925C3.3269 20.436 3.03712 20.1159 3.03711 20.1159C3.03711 20.1159 3.67236 18.3625 4.11277 16.0314C4.5 13.9818 4.02888 12.0657 4.62486 10.0668C5.16575 8.25272 5.47914 6.58794 6.37552 5.14404C7.27189 3.70015 8.32948 2.80145 10.2566 2.51791C13.9777 1.97039 15.1942 1.76836 18.416 2.35317C21.4481 2.90353 23.7411 3.2874 26.5028 4.65467C28.969 5.87568 29.6038 6.60732 30.4323 8.96212C30.8917 10.2679 29.8497 16.159 29.5069 17.4995C28.969 19.6023 28.969 24.4815 28.969 24.4815C28.969 24.4815 28.4419 24.7178 28.1841 25.0242C27.8313 25.4437 27.6802 26.3906 27.6802 26.3906C27.6802 26.3906 27.3339 23.1924 27.4234 20.9784C27.5128 18.7644 27.8498 18.5148 27.8498 18.0228C27.8498 17.1505 27.8768 16.661 27.8498 15.7891C27.8189 14.7921 27.997 14.1864 27.6802 13.2405C27.4005 12.4053 27.2002 11.8548 26.5028 11.3169C25.749 10.7356 24.148 10.687 24.148 10.687L19.167 9.60654C19.167 9.60654 15.7248 9.15554 12.936 8.96212C11.631 8.87162 9.9804 8.50182 9.9804 8.50182C9.9804 8.50182 8.71434 8.39079 8.17796 8.62295C7.5024 8.91535 7.18002 9.38457 6.90365 10.0668C6.43851 11.2152 6.6194 11.6894 6.37552 12.8674C6.18235 13.8005 5.99343 14.3053 5.70202 15.2125C5.19465 16.7921 4.59705 18.1927 4.20483 19.801Z" fill="#5C402B"/>
<path d="M15.233 27.93C14.6346 27.931 13.9199 26.9901 13.9199 27.1403C13.9199 27.1403 13.1897 27.5645 12.8976 27.7508C12.1897 28.202 12.0301 28.253 11.2696 28.6084C10.3827 29.0228 9.72837 28.9851 8.96805 29.6017C8.48472 29.9936 8.12705 30.2159 7.92147 30.8033C7.73832 31.3266 7.92147 32.223 7.92147 32.223C8.4593 31.6367 8.65311 31.5204 9.15217 31.2588C9.95688 30.8369 10.4546 30.6964 11.2696 30.2945C11.7971 30.0344 12.0486 29.7869 12.6069 29.6017C13.2187 29.3987 13.5959 29.3261 14.2397 29.3594C14.7178 29.3841 14.8319 29.6102 15.3105 29.6017C15.7503 29.5938 16.1018 29.3397 16.5412 29.3594C17.0033 29.3802 17.2369 29.5583 17.6653 29.7325C18.2407 29.9665 18.5542 30.1288 19.0801 30.4593C19.7112 30.8558 20.0593 31.1056 20.5822 31.6367C21.1477 32.2111 21.6142 32.8141 21.6142 32.8141C21.6142 32.8141 22.262 31.666 21.8129 30.8033C21.6142 30.4216 21.4452 30.2266 21.1152 29.9505C20.7283 29.6269 20.4171 29.5867 19.9668 29.3594C19.3738 29.06 18.9285 29.0592 18.4406 28.6084C18.2116 28.3968 18.1552 28.2105 17.9318 27.993C17.4754 27.5487 16.5412 27.1403 16.5412 27.1403C16.5412 27.1403 15.8298 27.9291 15.233 27.93Z" fill="#5C402B" fill-opacity="0.71"/>
<path d="M12.6069 35.1301C12.406 34.8425 13.1544 34.2338 13.3579 34.069C13.6922 33.7984 14.0743 34.3649 14.7145 34.35C15.4541 34.3328 16.0373 33.8897 16.2893 33.8897C16.6639 33.8897 17.3566 34.8196 17.1469 35.1301C16.8949 35.5032 15.514 35.1301 15.5528 35.4063C15.6691 36.2348 15.6582 36.4051 15.9695 36.8405C16.3158 37.3249 16.3098 37.3449 16.8271 37.64C17.4291 37.9834 18.15 38.4827 18.8427 38.4588C19.565 38.4339 19.6108 38.1519 20.2188 37.7611C20.5579 37.5431 21.1476 37.4649 21.2751 37.7611C21.4025 38.0573 21.2751 38.454 20.3981 39.7525C20.1058 40.1852 19.1831 40.96 18.741 41.1916C17.8252 41.6712 17.4461 41.6711 16.2893 41.8505C14.9168 42.0634 14.7727 41.9862 13.1931 41.9862C12.429 41.9862 11.7529 41.6567 11.0806 41.2933C10.4269 40.94 9.61722 40.404 9.06011 39.9124C8.70907 39.5338 7.83413 38.4827 7.65498 37.9985C7.55248 37.7215 7.60269 37.5392 7.77127 37.3396C8.02683 37.0369 8.39953 37.1849 8.78524 37.3382L8.78878 37.3396C9.84989 37.7611 9.94527 37.9388 10.7608 37.9985C11.5957 38.0597 11.8231 37.9342 12.6069 37.64C13.0407 37.4771 13.6583 36.9762 13.6583 36.9762C14.0411 36.3027 14.3027 35.8279 14.2397 35.5177C14.1767 35.2076 12.9654 35.6437 12.6069 35.1301Z" fill="#5C402B" fill-opacity="0.71"/>
<path d="M22.1278 35.1301C22.1519 34.5083 21.997 33.9286 22.5154 33.5845C22.9411 33.3019 23.376 33.8307 23.8237 33.5845C24.425 33.2537 25.766 32.4099 25.5098 33.0467C25.1707 33.8897 25.1249 34.3622 24.7201 35.1301C24.3725 35.7894 24.3285 36.0819 23.8237 36.7097C23.3188 37.3375 22.3943 38.1972 22.3943 38.1972C22.3943 38.1972 22.5257 37.4552 22.5154 36.9762C22.4997 36.2397 22.0993 35.8662 22.1278 35.1301Z" fill="#5C402B" fill-opacity="0.71"/>
<path d="M4.32144 34.8018C3.73032 33.4936 3.88691 32.3638 3.71094 31.2588C3.71094 31.2588 4.45437 32.7974 5.00463 33.0467C5.60761 33.3198 6.05916 33.0054 6.61325 33.3676C6.94502 33.5845 6.62863 34.671 6.2644 35.1301C5.95975 35.5142 6.04636 36.8405 6.04636 36.8405C5.3389 36.3027 4.91257 36.11 4.32144 34.8018Z" fill="#5C402B" fill-opacity="0.71"/>
<path d="M4.20898 23.5597C4.20898 23.0655 4.46022 22.8445 4.60145 22.8087C4.74268 22.7729 4.85685 22.7228 4.97454 22.8087C5.16546 22.948 4.85688 23.1583 4.77588 23.3804C4.71001 23.561 4.76835 23.7453 4.60145 23.8407C4.38826 23.9625 4.20899 23.8052 4.20898 23.5597Z" fill="#5C402B"/>
<path d="M10.5562 17.1882C11.8989 17.5321 14.0157 18.0215 14.0157 18.0215L14.5584 16.6988C14.5584 16.6988 13.9003 16.5964 13.4827 16.5098C12.6845 16.3443 12.2578 16.1653 11.4671 15.9671C10.5819 15.7454 10.0987 15.5249 9.18981 15.4439C8.59801 15.3911 8.23266 15.2578 7.66839 15.4439C7.03693 15.6521 6.76754 15.9999 6.34079 16.5098C6.10433 16.7923 5.96767 16.9583 5.8175 17.2948C5.59901 17.7842 5.58008 18.6466 5.58008 18.6466C5.58008 18.6466 5.95621 17.9513 6.11306 17.7454C6.44622 17.3078 6.3589 17.291 6.81562 16.9847C7.35482 16.623 7.80425 16.6844 8.45333 16.6988C9.30122 16.7176 9.7346 16.9777 10.5562 17.1882Z" fill="#5C402B" fill-opacity="0.59"/>
<path d="M18.5848 18.4092L17.9694 17.7454C17.9694 17.7454 18.5573 17.6256 18.9385 17.5806C19.8142 17.4774 20.3161 17.5295 21.1964 17.5806C21.8381 17.6179 22.2141 17.5759 22.8341 17.7454C23.5851 17.9507 24.1586 18.132 24.8061 18.5642C25.6194 19.1071 26.2122 19.63 26.4632 20.575C26.5822 21.0231 26.4632 21.5198 26.4632 21.5198C26.4632 21.5198 25.4288 20.359 24.6123 19.8095C24.1136 19.4738 23.8407 19.2302 23.2605 19.073C22.6067 18.8958 22.2033 19.073 21.5259 19.073C20.9336 19.073 20.588 19.1988 20.0093 19.073C19.4096 18.9426 18.5848 18.4092 18.5848 18.4092Z" fill="#5C402B" fill-opacity="0.59"/>
<path d="M14.3748 20.6961V18.2734C14.3748 18.2734 15.2784 18.6992 15.9011 18.787C16.5256 18.8751 17.5146 18.7144 17.5146 18.7144C17.5146 18.7144 16.8333 19.8801 16.8508 20.6961C16.8632 21.2761 17.1615 21.714 17.2868 22.2805C17.4281 22.9192 17.5872 23.0848 17.5872 23.7825C17.5872 23.9328 19.6077 23.9666 19.6077 25.929C19.6077 26.3468 19.2001 26.6535 18.8131 26.8108C17.9312 27.1694 16.1239 26.3699 16.1239 26.3699C16.1239 26.3699 18.7307 26.2682 18.285 25.929C17.8393 25.5898 17.3768 25.7367 16.8508 25.929C16.4001 26.0937 16.3081 26.1906 15.809 26.6122C15.809 26.6122 15.1904 27.0332 14.7237 26.961C14.2605 26.8894 14.2276 26.7143 13.9097 26.3699C13.5918 26.0255 13.6335 25.929 12.9406 25.4881C12.6693 25.3154 12.1169 25.1664 12.1169 25.4881C12.1169 25.929 12.4809 25.9341 12.9406 26.0937C13.4004 26.2533 13.6335 26.3699 13.6335 26.3699C13.6335 26.3699 12.7001 27.133 12.1169 26.961C11.739 26.8496 11.1628 26.5099 11.0219 25.929C10.9054 25.449 11.0266 25.0733 11.2351 24.6256C11.5688 23.9088 12.9406 23.4482 12.9406 23.4482C12.9956 23.1914 13.2265 22.576 13.6335 21.9607C14.0404 21.3453 13.9775 21.4471 14.3748 20.6961Z" fill="#F2D5BF"/>
<path d="M10.8576 30.8567C10.337 31.1479 9.36523 31.3606 9.36523 31.3606C9.36523 31.3606 9.84629 31.5275 10.5136 31.5884C11.1951 31.6505 12.4315 31.6098 13.1155 31.5884C13.8398 31.5657 13.8056 31.5884 14.5303 31.5884C15.2569 31.5884 15.632 31.5393 16.357 31.5884C17.1387 31.6413 17.7019 31.7155 18.484 31.7628C19.0733 31.7984 19.5936 32.0402 20.1411 31.7628C20.1411 31.7628 19.8315 31.4592 19.5306 31.2455C19.0461 30.9015 18.5283 30.6086 17.922 30.3141C17.4933 30.1058 17.2744 29.845 16.7979 29.8392C16.4486 29.835 16.1576 29.9901 15.8191 30.0766C15.4238 30.1778 15.3259 30.3223 14.9179 30.3141C14.3799 30.3032 14.1613 29.8735 13.6242 29.8392C13.1432 29.8085 12.8726 29.9314 12.4129 30.0766C11.765 30.2813 11.4293 30.5369 10.8576 30.8567Z" fill="#C67577"/>
<path d="M10.8576 32.8627C10.332 32.4564 9.36523 31.5884 9.36523 31.5884C9.36523 31.5884 10.0571 31.7894 10.5136 31.8258C10.9933 31.864 11.2632 31.777 11.7443 31.7628C12.4025 31.7433 12.7719 31.7628 13.4304 31.7628C14.3084 31.7628 14.801 31.7397 15.6786 31.7628C16.4968 31.7843 16.9569 31.7927 17.7718 31.8694C18.1529 31.9053 18.7457 31.9808 18.7457 31.9808H19.9958C19.9958 31.9808 18.855 32.8358 18.0528 33.1679C17.2582 33.4969 16.7831 33.6284 15.9354 33.7736C14.5303 34.0142 14.1136 33.9625 12.8248 33.7736C11.9704 33.6483 11.5408 33.3908 10.8576 32.8627Z" fill="#C67577"/>
<path d="M18.8652 25.9247L19.2988 22.5933L22.6303 23.0269L18.8652 25.9247Z" fill="#C69024"/>
<path d="M23.2832 13.4482L21.9815 23.4485L22.6352 22.9454L23.8616 13.5235L23.2832 13.4482Z" fill="#C69024"/>
<path d="M22.4293 22.9335L18.6642 25.8313L9.2423 24.6049L10.9023 11.8516L23.6557 13.5116L22.4293 22.9335Z" fill="#FCC24C"/>
<path d="M18.664 25.8314L19.0977 22.5L22.4291 22.9336L18.664 25.8314Z" fill="#DEA42E"/>
<path d="M16.748 10.9937L18.2254 11.1859L17.811 14.3697L16.3336 14.1774L16.748 10.9937Z" fill="#F4EFED"/>
<path d="M12.8915 20.4014C12.634 20.417 12.4064 20.2369 12.2088 19.8612C12.1169 19.9448 12 20.038 11.8582 20.1408C11.7163 20.2436 11.6233 20.3071 11.579 20.3313C11.5345 20.3528 11.4975 20.3645 11.468 20.3662C11.3875 20.3711 11.3449 20.3333 11.34 20.2528C11.3369 20.2019 11.3747 20.1579 11.4532 20.1208C11.4976 20.0993 11.5895 20.0372 11.7286 19.9346C11.8703 19.8291 11.9896 19.7317 12.0865 19.6424C12.0158 19.4529 11.9734 19.2401 11.9591 19.004C11.9376 18.6473 11.9847 18.3349 12.1004 18.0668C12.2186 17.7958 12.3595 17.6554 12.5232 17.6455C12.5929 17.6413 12.6545 17.6591 12.7081 17.699C12.7616 17.7388 12.8024 17.7902 12.8305 17.8531C12.8835 17.9737 12.9144 18.1065 12.9232 18.2513C12.9319 18.3961 12.9247 18.5446 12.9016 18.6968C12.8783 18.8462 12.847 18.9733 12.8075 19.078C12.7708 19.1825 12.7242 19.2809 12.6679 19.3731C12.5846 19.5101 12.4958 19.6218 12.4014 19.7082C12.5655 20.0186 12.724 20.1692 12.8769 20.16C12.9815 20.1537 13.093 20.1268 13.2112 20.0793C13.3295 20.0317 13.3926 20.0077 13.4007 20.0072C13.4812 20.0024 13.5238 20.0402 13.5287 20.1206C13.5322 20.1797 13.4946 20.225 13.4158 20.2567C13.195 20.3454 13.0202 20.3936 12.8915 20.4014ZM12.5377 17.8869C12.4921 17.8897 12.4365 17.9496 12.3709 18.0666C12.235 18.3117 12.1782 18.6193 12.2005 18.9895C12.2119 19.1772 12.2419 19.341 12.2908 19.4807C12.3743 19.3922 12.4496 19.28 12.5167 19.144C12.6464 18.8831 12.7007 18.5797 12.6798 18.2337C12.6751 18.1559 12.6597 18.0788 12.6335 18.0023C12.6072 17.9231 12.5753 17.8847 12.5377 17.8869Z" fill="#11145F"/>
<path d="M14.2253 18.318C14.2682 18.3154 14.3137 18.3329 14.3617 18.3704C14.4095 18.4052 14.4348 18.444 14.4374 18.4869C14.4398 18.5272 14.4229 18.5591 14.3866 18.5829C14.3531 18.6064 14.3148 18.6195 14.2719 18.6221C14.229 18.6247 14.1916 18.6081 14.1599 18.5723C14.1306 18.5337 14.1146 18.4916 14.1119 18.446C14.107 18.3656 14.1448 18.3229 14.2253 18.318ZM13.9536 19.8366C13.8131 20.0066 13.6672 20.1311 13.5158 20.2103C13.4688 20.2346 13.4306 20.2477 13.4011 20.2495C13.3206 20.2544 13.2779 20.2166 13.2731 20.1361C13.27 20.0851 13.3077 20.0411 13.3862 20.0041C13.4282 19.9854 13.4826 19.9498 13.5494 19.8973C13.6189 19.8447 13.665 19.8055 13.6877 19.7799C13.7104 19.7543 13.7493 19.7076 13.8044 19.6396C13.8622 19.5715 13.9075 19.5203 13.9405 19.486C13.9732 19.4491 14.0181 19.4114 14.075 19.3729C14.1345 19.3343 14.1898 19.3135 14.2408 19.3104C14.3454 19.3041 14.4281 19.3368 14.489 19.4085C14.5498 19.4802 14.5884 19.5613 14.6046 19.6519C14.6487 19.8915 14.7029 20.0094 14.7673 20.0055C14.8183 20.0024 14.8832 19.985 14.962 19.9533C15.0409 19.9216 15.0843 19.9056 15.0924 19.9051C15.1728 19.9002 15.2155 19.938 15.2203 20.0185C15.2239 20.0775 15.1863 20.1228 15.1074 20.1545C14.9655 20.2115 14.8489 20.2428 14.7577 20.2483C14.6692 20.2537 14.5946 20.2205 14.5337 20.1488C14.4728 20.0771 14.4343 19.996 14.418 19.9054C14.374 19.6658 14.3197 19.5479 14.2554 19.5518C14.2205 19.5539 14.1816 19.5792 14.1388 19.6275C14.0985 19.673 14.0657 19.71 14.0405 19.7384C14.0151 19.7642 13.9862 19.7969 13.9536 19.8366Z" fill="#11145F"/>
<path d="M17.6418 20.0015C17.4999 20.0585 17.3887 20.0894 17.3082 20.0943C17.2277 20.0992 17.1629 20.0735 17.1138 20.0172C17.0646 19.9609 17.0169 19.8629 16.9708 19.723C16.9274 19.5829 16.8962 19.5135 16.8775 19.5146C16.8077 19.5188 16.7405 19.6306 16.6756 19.8498C16.651 19.9321 16.6072 20.0088 16.5442 20.0799C16.4811 20.151 16.3987 20.1896 16.2968 20.1958C16.1975 20.2018 16.1171 20.1622 16.0554 20.0771C15.9937 19.992 15.9544 19.8974 15.9373 19.7935C15.923 19.6894 15.9037 19.5936 15.8796 19.5062C15.8555 19.4189 15.8219 19.3765 15.779 19.3791C15.7495 19.3808 15.7286 19.3902 15.7161 19.4071C15.7037 19.424 15.6926 19.4408 15.6828 19.4575C15.6756 19.4714 15.6671 19.4868 15.6573 19.5035C15.6501 19.5174 15.6405 19.5368 15.6285 19.5618C15.6193 19.5866 15.6074 19.6129 15.5929 19.6406C15.545 19.7378 15.5063 19.8101 15.4768 19.8576C15.4186 19.9634 15.3281 20.047 15.2053 20.1082C15.1583 20.1326 15.12 20.1457 15.0905 20.1475C15.0101 20.1523 14.9674 20.1145 14.9625 20.0341C14.9595 19.9831 14.9999 19.9389 15.0838 19.9016C15.1676 19.8642 15.2252 19.8149 15.2565 19.7538C15.2904 19.6899 15.3277 19.6176 15.3686 19.5371C15.4095 19.4566 15.4372 19.4024 15.4517 19.3746C15.4688 19.3466 15.4897 19.3131 15.5143 19.2739C15.5386 19.2321 15.5612 19.2051 15.5821 19.1931C15.6366 19.1602 15.6974 19.1417 15.7645 19.1377C15.8744 19.131 15.9602 19.1702 16.0219 19.2554C16.0836 19.3405 16.1216 19.4351 16.136 19.5392C16.153 19.6432 16.1736 19.7388 16.1977 19.8262C16.2218 19.9136 16.2554 19.956 16.2983 19.9534C16.3412 19.9508 16.3794 19.9148 16.4129 19.8455C16.4491 19.776 16.4795 19.7002 16.5041 19.6179C16.5288 19.5357 16.5713 19.4591 16.6316 19.3881C16.6946 19.317 16.7717 19.2787 16.8629 19.2732C16.9326 19.269 16.9846 19.2834 17.0189 19.3163C17.0531 19.3465 17.0774 19.3706 17.0919 19.3886C17.1092 19.4064 17.1243 19.4338 17.1373 19.4707C17.153 19.5074 17.164 19.535 17.1705 19.5534C17.1769 19.5692 17.1867 19.5982 17.2 19.6405C17.2411 19.7861 17.275 19.8567 17.3017 19.8524C17.3526 19.8493 17.4175 19.832 17.4964 19.8003C17.5752 19.7686 17.6187 19.7525 17.6267 19.752C17.7072 19.7472 17.7498 19.785 17.7547 19.8654C17.7583 19.9244 17.7206 19.9698 17.6418 20.0015Z" fill="#11145F"/>
<path d="M18.1458 17.9238C18.0934 17.8596 18.0652 17.7927 18.0609 17.723C18.0567 17.6532 18.0759 17.5915 18.1184 17.5378C18.1636 17.4839 18.2205 17.4455 18.2891 17.4225C18.3604 17.3994 18.4425 17.3769 18.5354 17.3551C18.6283 17.3334 18.7094 17.3164 18.7786 17.3041C18.9597 17.2716 19.0556 17.2551 19.0664 17.2544C19.0796 17.2509 19.0983 17.2485 19.1224 17.247C19.2029 17.2421 19.2456 17.2799 19.2504 17.3604C19.2517 17.3819 19.2425 17.4067 19.2226 17.4348C19.2028 17.4629 19.1822 17.4789 19.1609 17.4829C19.1396 17.4869 19.0931 17.4964 19.0213 17.5115C18.9521 17.5238 18.8802 17.5376 18.8058 17.5528C18.7311 17.5654 18.654 17.5808 18.5744 17.5991C18.3912 17.6425 18.3006 17.6789 18.3023 17.7084C18.3036 17.7299 18.3561 17.7967 18.4598 17.9089C18.5633 18.0184 18.6842 18.147 18.8223 18.2948C18.9631 18.4424 19.0645 18.5615 19.1265 18.652C19.191 18.7396 19.2268 18.8411 19.2338 18.9564C19.2406 19.0691 19.2067 19.199 19.1321 19.3462C19.0601 19.4905 18.968 19.6145 18.8558 19.7182C18.7461 19.819 18.6314 19.904 18.5118 19.9732C18.392 20.0396 18.2798 20.076 18.1752 20.0823C18.0732 20.0885 17.9827 20.0603 17.9035 19.9978C17.8271 19.9351 17.7856 19.8501 17.7791 19.7428C17.7618 19.4558 17.8391 19.2196 18.0109 19.0343C18.1853 18.8461 18.3731 18.7459 18.5742 18.7338C18.6118 18.7315 18.6712 18.7346 18.7525 18.7432C18.8338 18.7517 18.8896 18.7632 18.9201 18.7775C18.8611 18.6922 18.7311 18.5453 18.5301 18.3367C18.3289 18.1254 18.2008 17.9878 18.1458 17.9238ZM18.9849 19.0482C18.9407 19.0293 18.875 19.0117 18.7879 18.9954C18.7008 18.9792 18.6344 18.9724 18.5888 18.9752C18.4574 18.9831 18.3258 19.0557 18.1941 19.1928C18.0649 19.3271 18.0071 19.5056 18.0205 19.7282C18.0228 19.7658 18.0407 19.7943 18.0741 19.8138C18.1076 19.8334 18.1512 19.8415 18.2048 19.8382C18.2585 19.835 18.3372 19.802 18.4411 19.7392C18.5477 19.6762 18.6564 19.5822 18.7673 19.457C18.878 19.3292 18.9506 19.1929 18.9849 19.0482Z" fill="#11145F"/>
<path d="M19.827 18.8519C19.9074 18.8471 19.9501 18.8849 19.9549 18.9653C19.9569 18.9975 19.9521 19.0301 19.9407 19.0631C19.9292 19.0961 19.9248 19.1354 19.9276 19.181C19.9302 19.2239 19.9463 19.2674 19.9758 19.3113C20.0081 19.3552 20.0527 19.4023 20.1096 19.4527C20.1663 19.5004 20.2494 19.5398 20.359 19.5709C20.4685 19.6019 20.5769 19.6142 20.6842 19.6078C20.7942 19.6011 20.8864 19.5673 20.9608 19.5063C21.0351 19.4452 21.0693 19.3638 21.0631 19.2618C21.0529 19.0929 21.0058 18.9598 20.9219 18.8625C20.8378 18.7626 20.726 18.7169 20.5865 18.7253C20.5221 18.7292 20.4576 18.7533 20.393 18.7976C20.3311 18.8417 20.2907 18.8643 20.2719 18.8654C20.1915 18.8703 20.1488 18.8325 20.144 18.752C20.1409 18.7011 20.1833 18.646 20.2713 18.5869C20.3617 18.5249 20.462 18.4906 20.5719 18.4839C20.7758 18.4716 20.9453 18.5367 21.0804 18.6793C21.2154 18.8192 21.2901 19.0085 21.3045 19.2473C21.3149 19.4189 21.2587 19.5596 21.1362 19.6693C21.0163 19.7788 20.8839 19.838 20.739 19.8467C20.5942 19.8555 20.4604 19.8461 20.3376 19.8185C20.2173 19.7881 20.1193 19.7482 20.0437 19.6989C19.9678 19.647 19.9012 19.5904 19.8436 19.5293C19.7456 19.4222 19.6938 19.3217 19.6881 19.2278C19.6823 19.1312 19.692 19.0458 19.7171 18.9716C19.7421 18.8948 19.7787 18.8549 19.827 18.8519Z" fill="#11145F"/>
<path d="M43.3133 17.8878C43.2262 17.8878 43.0575 17.9095 42.8071 17.9531C42.5676 17.9857 42.2846 18.0293 41.9581 18.0837C41.6315 18.1381 41.2886 18.2034 40.9294 18.2796C40.5702 18.3449 40.2327 18.4048 39.9171 18.4592C39.6014 18.5137 39.3293 18.5627 39.1007 18.6062C38.8612 18.6388 38.7034 18.6552 38.6272 18.6552C37.8979 18.6552 37.5332 18.2742 37.5332 17.5122C37.5332 17.3054 37.555 17.104 37.5985 16.9081C37.6312 16.7013 37.6965 16.5162 37.7944 16.3529C37.8924 16.1788 38.023 16.0318 38.1863 15.9121C38.3496 15.7924 38.5564 15.7107 38.8068 15.6672C40.0803 15.4712 41.3485 15.2644 42.6112 15.0467C43.8739 14.829 45.1474 14.6004 46.4319 14.3609C46.7149 14.3065 46.9707 14.2575 47.1993 14.214C47.4279 14.1596 47.6837 14.0888 47.9667 14.0017C48.2715 13.9147 48.6035 13.833 48.9627 13.7568C49.3219 13.6697 49.6811 13.5935 50.0403 13.5282C50.4104 13.4629 50.7642 13.4085 51.1017 13.3649C51.45 13.3214 51.7657 13.2996 52.0487 13.2996C52.397 13.2996 52.6582 13.4139 52.8324 13.6425C53.0175 13.8602 53.11 14.1705 53.11 14.5732C53.11 14.78 53.0937 14.9814 53.061 15.1773C53.0283 15.3624 52.9685 15.5311 52.8814 15.6835C52.7943 15.8359 52.6746 15.9611 52.5222 16.059C52.3698 16.157 52.1739 16.2169 51.9344 16.2387C51.3139 16.3257 50.6499 16.4346 49.9424 16.5652C49.2348 16.6849 48.6198 16.821 48.0973 16.9734C47.8796 17.0387 47.7163 17.1476 47.6075 17.3C47.4986 17.4415 47.4279 17.6211 47.3952 17.8388C47.3626 18.0456 47.3408 18.2579 47.3299 18.4756C47.3299 18.6824 47.3299 18.8838 47.3299 19.0797C47.3299 19.5369 47.3462 19.9941 47.3789 20.4512C47.4224 20.9084 47.4605 21.3656 47.4932 21.8228C47.5912 23.3903 47.7381 24.9414 47.9341 26.4762C48.1409 28.011 48.364 29.5622 48.6035 31.1297C48.6253 31.1841 48.6362 31.2385 48.6362 31.2929C48.6362 31.3474 48.6362 31.4018 48.6362 31.4562C48.6362 32.0549 48.2987 32.4794 47.6238 32.7298L46.8891 32.9584C46.6931 33.0237 46.5026 33.0563 46.3176 33.0563C46.0346 33.0563 45.806 32.9638 45.6318 32.7788C45.4577 32.6046 45.3434 32.3434 45.2889 31.995C44.9842 30.1228 44.7175 28.2614 44.4889 26.4109C44.2603 24.5495 44.1133 22.6773 44.048 20.7941C44.0263 20.4893 44.0099 20.1573 43.999 19.7981C43.9882 19.4389 43.9827 19.0688 43.9827 18.6878C43.9827 18.1545 43.7596 17.8878 43.3133 17.8878Z" fill="black"/>
<path d="M62.1719 19.243C61.7692 19.243 61.4154 19.3518 61.1106 19.5695C60.8059 19.7764 60.5446 20.0703 60.3269 20.4512C60.1092 20.8213 59.9296 21.2622 59.7881 21.7738C59.6466 22.2745 59.5323 22.8242 59.4452 23.4229C59.3581 24.0216 59.2982 24.6475 59.2656 25.3006C59.2329 25.9537 59.2166 26.6123 59.2166 27.2763C59.2166 28.1471 59.2493 29.007 59.3146 29.8561C59.3908 30.6943 59.4289 31.4725 59.4289 32.191C59.4289 32.659 59.2547 33.0237 58.9064 33.2849C58.558 33.5571 58.0628 33.6931 57.4205 33.6931C57.3008 33.6931 57.1647 33.6823 57.0123 33.6605C56.86 33.6387 56.713 33.5952 56.5715 33.5299C56.4409 33.4645 56.3211 33.372 56.2123 33.2523C56.1143 33.1434 56.0599 32.991 56.049 32.7951C55.951 31.8372 55.8095 30.8575 55.6245 29.8561C55.4394 28.8546 55.2054 27.8586 54.9224 26.8681C54.6502 25.8666 54.3182 24.8761 53.9264 23.8964C53.5454 22.9167 53.1045 21.9588 52.6038 21.0227C52.5167 20.8594 52.4405 20.707 52.3752 20.5655C52.3208 20.424 52.2936 20.288 52.2936 20.1573C52.2936 19.9941 52.3643 19.8199 52.5059 19.6348C52.6582 19.4389 52.8433 19.2593 53.061 19.096C53.2896 18.9327 53.5345 18.8021 53.7958 18.7042C54.0679 18.5953 54.3291 18.5409 54.5795 18.5409C54.9931 18.5409 55.3578 18.8293 55.6735 19.4063C55.9891 19.9723 56.283 20.8812 56.5552 22.133C56.6096 22.3507 56.6531 22.5031 56.6858 22.5902C56.7184 22.6773 56.762 22.7208 56.8164 22.7208C56.9361 22.7208 57.0123 22.5358 57.045 22.1657C57.1756 21.1316 57.3988 20.2444 57.7144 19.5042C58.0301 18.7531 58.422 18.1381 58.89 17.6592C59.369 17.1693 59.9133 16.8101 60.5228 16.5815C61.1433 16.3529 61.8236 16.2387 62.5638 16.2387C62.9883 16.2387 63.4183 16.2767 63.8537 16.3529C64.2891 16.4291 64.681 16.5434 65.0293 16.6958C65.3777 16.8482 65.6607 17.0333 65.8784 17.251C66.0961 17.4687 66.2049 17.7136 66.2049 17.9857C66.2049 18.1817 66.1614 18.4157 66.0743 18.6878C65.9981 18.9491 65.8947 19.2049 65.7641 19.4552C65.6335 19.6947 65.4811 19.9015 65.3069 20.0757C65.1436 20.239 64.9749 20.3206 64.8007 20.3206C64.6048 20.3206 64.4143 20.2662 64.2293 20.1573C64.0442 20.0376 63.8428 19.9124 63.6251 19.7818C63.4183 19.6512 63.1952 19.5314 62.9557 19.4226C62.7271 19.3028 62.4659 19.243 62.1719 19.243Z" fill="black"/>
<path d="M79.0713 27.8804C79.387 27.6083 79.6972 27.4722 80.002 27.4722C80.1761 27.4722 80.334 27.5158 80.4755 27.6028C80.617 27.6899 80.7748 27.826 80.949 28.011C81.1123 28.2614 81.2266 28.4682 81.2919 28.6315C81.3681 28.7839 81.4062 28.9363 81.4062 29.0887C81.4062 29.4152 81.2429 29.7255 80.9163 30.0194C80.3938 30.4548 79.8278 30.8466 79.2182 31.195C78.6087 31.5324 77.9719 31.8209 77.3079 32.0603C76.6439 32.2998 75.9581 32.4794 75.2506 32.5992C74.543 32.7298 73.8409 32.7951 73.1443 32.7951C72.2626 32.7951 71.4353 32.6808 70.6624 32.4522C69.8896 32.2345 69.1984 31.9188 68.5888 31.5052C67.9901 31.0916 67.4839 30.5963 67.0703 30.0194C66.6567 29.4316 66.3628 28.773 66.1886 28.0437C66.0906 27.7389 65.9981 27.543 65.911 27.4559C65.8348 27.3579 65.7042 27.3089 65.5192 27.3089C65.1164 27.3089 64.8062 27.211 64.5885 27.015C64.3708 26.8191 64.2619 26.5361 64.2619 26.166C64.2619 26.0136 64.2728 25.9156 64.2946 25.8721L64.3272 25.5455C64.3817 25.1537 64.4851 24.8706 64.6375 24.6965C64.8007 24.5223 65.0511 24.4352 65.3885 24.4352H65.6335C66.0906 24.4352 66.4118 24.223 66.5968 23.7985C66.9342 23.0474 67.3642 22.3616 67.8867 21.7411C68.4092 21.1207 68.997 20.5927 69.6501 20.1573C70.3032 19.711 70.9999 19.3682 71.7401 19.1287C72.4912 18.8783 73.2531 18.7531 74.026 18.7531C74.8315 18.7531 75.5826 18.8729 76.2792 19.1124C76.9868 19.3409 77.6018 19.6621 78.1243 20.0757C78.6468 20.4893 79.055 20.9737 79.3489 21.5289C79.6536 22.084 79.806 22.6827 79.806 23.3249C79.806 23.7712 79.719 24.1794 79.5448 24.5495C79.3706 24.9196 79.1203 25.2462 78.7937 25.5292C78.4672 25.8013 78.0698 26.0245 77.6018 26.1986C77.1446 26.3728 76.6221 26.4871 76.0343 26.5415L70.3685 27.113C70.1508 27.113 69.9712 27.1674 69.8297 27.2763C69.6991 27.3851 69.6338 27.5321 69.6338 27.7171C69.6338 28.0002 69.7372 28.2723 69.944 28.5335C70.1617 28.7948 70.4447 29.0288 70.7931 29.2356C71.1523 29.4316 71.5605 29.5894 72.0177 29.7091C72.4857 29.8289 72.9647 29.8887 73.4545 29.8887C73.9226 29.8887 74.4015 29.8452 74.8914 29.7581C75.3921 29.6602 75.8819 29.5241 76.3609 29.3499C76.8507 29.1758 77.3242 28.9689 77.7814 28.7295C78.2386 28.4791 78.6685 28.1961 79.0713 27.8804ZM75.4302 23.6678C75.5935 23.6352 75.735 23.559 75.8547 23.4392C75.9744 23.3086 76.0343 23.1508 76.0343 22.9657C76.0343 22.8025 75.9744 22.6501 75.8547 22.5086C75.735 22.367 75.5717 22.2419 75.3649 22.133C75.158 22.0133 74.9186 21.9207 74.6464 21.8554C74.3743 21.7901 74.0858 21.7575 73.7811 21.7575C73.3348 21.7575 72.8776 21.8228 72.4095 21.9534C71.9415 22.084 71.5169 22.2582 71.1359 22.4759C70.755 22.6827 70.4447 22.9167 70.2053 23.178C69.9658 23.4284 69.846 23.6787 69.846 23.9291C69.846 24.1794 69.9984 24.3046 70.3032 24.3046C70.4883 24.3046 70.7876 24.2828 71.2013 24.2393C71.6149 24.1958 72.0721 24.1468 72.5728 24.0924C73.0735 24.027 73.5797 23.9563 74.0913 23.8801C74.6029 23.8039 75.0492 23.7331 75.4302 23.6678Z" fill="black"/>
<path d="M81.5695 12.8588C81.5695 12.2928 81.7327 11.89 82.0593 11.6505C82.3858 11.411 82.9247 11.2913 83.6757 11.2913C83.937 11.2913 84.1656 11.3185 84.3615 11.3729C84.5574 11.4274 84.7207 11.5199 84.8514 11.6505C84.982 11.7703 85.0854 11.939 85.1616 12.1567C85.2487 12.3635 85.3194 12.6302 85.3738 12.9568C85.5154 13.9255 85.6569 14.9433 85.7984 16.0101C85.9508 17.0659 86.0923 18.1218 86.2229 19.1777C86.3644 20.2226 86.495 21.2459 86.6148 22.2473C86.7345 23.2379 86.8379 24.1631 86.925 25.023C87.023 25.8721 87.0937 26.6286 87.1373 27.2926C87.1917 27.9457 87.2189 28.4628 87.2189 28.8438C87.2189 29.2356 87.1808 29.5676 87.1046 29.8398C87.0393 30.1119 86.9195 30.3296 86.7454 30.4929C86.5821 30.6562 86.3644 30.7759 86.0923 30.8521C85.831 30.9174 85.5045 30.9501 85.1126 30.9501C84.7316 30.9501 84.4268 30.8521 84.1982 30.6562C83.9805 30.4602 83.8717 30.1609 83.8717 29.7581C83.8717 29.3445 83.839 28.7948 83.7737 28.109C83.7084 27.4124 83.6213 26.6395 83.5125 25.7905C83.4036 24.9414 83.2784 24.0379 83.1369 23.08C83.0063 22.1221 82.8648 21.1751 82.7124 20.239C82.5709 19.3028 82.4294 18.4048 82.2879 17.5449C82.1573 16.6741 82.0375 15.9067 81.9287 15.2427C81.8198 14.5678 81.7327 14.0181 81.6674 13.5935C81.6021 13.1581 81.5695 12.9132 81.5695 12.8588Z" fill="black"/>
<path d="M100.085 17.1857C100.684 17.1857 101.261 17.2782 101.816 17.4632C102.371 17.6483 102.861 17.9041 103.286 18.2307C103.71 18.5572 104.047 18.9491 104.298 19.4063C104.559 19.8634 104.69 20.3696 104.69 20.9247C104.69 21.1533 104.635 21.3765 104.526 21.5942C104.428 21.801 104.292 21.9861 104.118 22.1493C103.944 22.3017 103.743 22.4269 103.514 22.5249C103.296 22.612 103.068 22.6555 102.828 22.6555C102.807 22.6555 102.785 22.6609 102.763 22.6718C102.752 22.6718 102.736 22.6718 102.714 22.6718C102.692 22.6827 102.67 22.6882 102.649 22.6882L102.714 23.9944C102.758 25.551 102.975 26.6885 103.367 27.4069C103.77 28.1253 104.292 28.4845 104.935 28.4845C105.163 28.4845 105.365 28.4628 105.539 28.4192C105.724 28.3757 105.893 28.3267 106.045 28.2723C106.208 28.207 106.361 28.1525 106.502 28.109C106.644 28.0655 106.785 28.0437 106.927 28.0437C107.177 28.0437 107.395 28.1525 107.58 28.3703C107.776 28.588 107.874 28.8492 107.874 29.154C107.874 29.4588 107.754 29.7636 107.514 30.0684C107.286 30.3731 106.981 30.6507 106.6 30.9011C106.219 31.1405 105.789 31.3365 105.31 31.4889C104.831 31.6413 104.347 31.7175 103.857 31.7175C103.008 31.7175 102.262 31.3691 101.62 30.6725C100.978 29.9649 100.521 28.9308 100.249 27.5702C100.183 27.3525 100.096 27.2436 99.9873 27.2436C99.8567 27.2436 99.7424 27.3089 99.6444 27.4396C98.5668 28.8002 97.4184 29.8234 96.1992 30.5092C94.9801 31.1841 93.7773 31.5215 92.5908 31.5215C92.0356 31.5215 91.5349 31.4399 91.0886 31.2766C90.6423 31.1133 90.2613 30.8847 89.9456 30.5908C89.6409 30.2861 89.4014 29.9214 89.2272 29.4969C89.0639 29.0615 88.9823 28.5771 88.9823 28.0437C88.9823 27.2926 89.1456 26.5034 89.4721 25.6762C89.8096 24.8489 90.2613 24.0325 90.8274 23.227C91.3934 22.4215 92.0465 21.6541 92.7867 20.9247C93.5378 20.1954 94.3215 19.5532 95.1379 18.9981C95.9652 18.4429 96.8033 18.0021 97.6524 17.6755C98.5014 17.3489 99.3124 17.1857 100.085 17.1857ZM99.5464 22.8351C99.7424 22.465 99.922 22.1983 100.085 22.035C100.249 21.8609 100.483 21.7466 100.787 21.6922C101.027 21.6595 101.147 21.5833 101.147 21.4636C101.147 21.3765 101.114 21.284 101.049 21.186C100.842 20.903 100.624 20.6581 100.395 20.4512C100.167 20.2335 99.8621 20.1247 99.4811 20.1247C99.0675 20.1247 98.6049 20.2444 98.0933 20.4839C97.5816 20.7234 97.0592 21.0445 96.5258 21.4472C96.0033 21.8391 95.4862 22.2908 94.9746 22.8025C94.4739 23.3032 94.0276 23.8202 93.6357 24.3536C93.2439 24.887 92.9282 25.4149 92.6887 25.9374C92.4492 26.4599 92.3295 26.928 92.3295 27.3416C92.3295 27.7117 92.4275 28.0002 92.6234 28.207C92.8302 28.4138 93.1078 28.5172 93.4561 28.5172C94.3487 28.5172 95.323 28.0437 96.3788 27.0967C97.4347 26.1497 98.4906 24.7291 99.5464 22.8351ZM103.286 10.4259C103.286 10.5892 103.204 10.747 103.041 10.8994C102.888 11.0518 102.676 11.2206 102.404 11.4056C102.143 11.5907 101.832 11.8084 101.473 12.0587C101.114 12.2982 100.733 12.5975 100.33 12.9568C99.9383 13.3051 99.5301 13.7296 99.1056 14.2303C98.6811 14.7202 98.2674 15.3025 97.8647 15.9774C97.7776 16.1298 97.6524 16.2332 97.4891 16.2876C97.3367 16.3421 97.1626 16.3693 96.9666 16.3693C96.7816 16.3693 96.5965 16.3475 96.4115 16.304C96.2373 16.2495 96.074 16.1842 95.9216 16.108C95.7801 16.0209 95.6604 15.923 95.5624 15.8141C95.4753 15.6944 95.4318 15.5692 95.4318 15.4386C95.4318 15.1447 95.5189 14.78 95.6931 14.3446C95.8781 13.8983 96.1176 13.4357 96.4115 12.9568C96.7163 12.4669 97.0646 11.9825 97.4565 11.5036C97.8592 11.0137 98.2783 10.5783 98.7137 10.1973C99.16 9.80547 99.6063 9.4898 100.053 9.25033C100.51 9.01085 100.951 8.89111 101.375 8.89111C101.571 8.89111 101.778 8.94554 101.996 9.05439C102.224 9.16324 102.431 9.29931 102.616 9.46259C102.812 9.61498 102.97 9.7837 103.09 9.96875C103.22 10.1429 103.286 10.2953 103.286 10.4259Z" fill="black"/>
<path d="M112.478 17.2836C113.207 17.2836 113.958 17.3816 114.731 17.5775C115.504 17.7626 116.212 18.0075 116.854 18.3123C117.496 18.6062 118.024 18.9382 118.438 19.3083C118.851 19.6784 119.058 20.0376 119.058 20.3859C119.058 20.5601 118.982 20.756 118.83 20.9737C118.677 21.1806 118.492 21.3819 118.274 21.5779C118.057 21.7629 117.817 21.9207 117.556 22.0514C117.306 22.1711 117.083 22.231 116.887 22.231C116.625 22.231 116.331 22.1221 116.005 21.9044C115.689 21.6867 115.335 21.4472 114.944 21.186C114.563 20.9139 114.144 20.6689 113.686 20.4512C113.229 20.2335 112.734 20.1247 112.201 20.1247C111.852 20.1247 111.564 20.2118 111.335 20.3859C111.117 20.5492 111.009 20.7832 111.009 21.088C111.009 21.3602 111.139 21.6377 111.4 21.9207C111.662 22.1929 112.005 22.4759 112.429 22.7698C112.865 23.0637 113.354 23.3739 113.899 23.7005C114.443 24.027 114.998 24.3754 115.564 24.7455C116.141 25.1156 116.702 25.5183 117.246 25.9537C117.79 26.3891 118.274 26.8626 118.699 27.3743C119.134 27.8859 119.483 28.4464 119.744 29.056C120.005 29.6547 120.136 30.3078 120.136 31.0154C120.136 31.6249 120.027 32.1801 119.809 32.6808C119.592 33.1815 119.281 33.6115 118.879 33.9707C118.476 34.3299 117.997 34.6075 117.442 34.8034C116.887 34.9994 116.277 35.0973 115.613 35.0973C114.775 35.0973 114.002 34.9667 113.294 34.7055C112.587 34.4551 111.977 34.1068 111.466 33.6605C110.954 33.2142 110.551 32.6808 110.258 32.0603C109.975 31.4399 109.833 30.7596 109.833 30.0194C109.833 29.0615 110.002 28.3648 110.339 27.9294C110.687 27.494 111.232 27.2763 111.972 27.2763C112.429 27.2763 112.794 27.3634 113.066 27.5375C113.338 27.7117 113.474 27.924 113.474 28.1743C113.474 28.3049 113.452 28.441 113.409 28.5825C113.365 28.7131 113.316 28.8546 113.262 29.007C113.218 29.1485 113.175 29.3009 113.131 29.4642C113.099 29.6275 113.082 29.7908 113.082 29.9541C113.082 30.2371 113.148 30.5092 113.278 30.7704C113.409 31.0317 113.583 31.2603 113.801 31.4562C114.029 31.663 114.29 31.8263 114.584 31.9461C114.878 32.0658 115.189 32.1257 115.515 32.1257C116.386 32.1257 116.821 31.7664 116.821 31.048C116.821 30.482 116.598 29.9486 116.152 29.4479C115.706 28.9363 115.145 28.441 114.47 27.9621C113.795 27.4722 113.066 26.9824 112.282 26.4925C111.509 26.0027 110.785 25.4911 110.111 24.9577C109.436 24.4244 108.875 23.8583 108.429 23.2596C107.982 22.6501 107.759 21.9915 107.759 21.284C107.759 20.6962 107.879 20.1573 108.119 19.6675C108.369 19.1777 108.706 18.7586 109.131 18.4103C109.555 18.051 110.051 17.7735 110.617 17.5775C111.194 17.3816 111.814 17.2836 112.478 17.2836Z" fill="black"/>
<path d="M124.789 17.2836C125.519 17.2836 126.27 17.3816 127.043 17.5775C127.815 17.7626 128.523 18.0075 129.165 18.3123C129.807 18.6062 130.335 18.9382 130.749 19.3083C131.163 19.6784 131.369 20.0376 131.369 20.3859C131.369 20.5601 131.293 20.756 131.141 20.9737C130.988 21.1806 130.803 21.3819 130.586 21.5779C130.368 21.7629 130.129 21.9207 129.867 22.0514C129.617 22.1711 129.394 22.231 129.198 22.231C128.937 22.231 128.643 22.1221 128.316 21.9044C128 21.6867 127.647 21.4472 127.255 21.186C126.874 20.9139 126.455 20.6689 125.998 20.4512C125.54 20.2335 125.045 20.1247 124.512 20.1247C124.163 20.1247 123.875 20.2118 123.646 20.3859C123.429 20.5492 123.32 20.7832 123.32 21.088C123.32 21.3602 123.45 21.6377 123.712 21.9207C123.973 22.1929 124.316 22.4759 124.74 22.7698C125.176 23.0637 125.666 23.3739 126.21 23.7005C126.754 24.027 127.309 24.3754 127.875 24.7455C128.452 25.1156 129.013 25.5183 129.557 25.9537C130.101 26.3891 130.586 26.8626 131.01 27.3743C131.446 27.8859 131.794 28.4464 132.055 29.056C132.316 29.6547 132.447 30.3078 132.447 31.0154C132.447 31.6249 132.338 32.1801 132.121 32.6808C131.903 33.1815 131.593 33.6115 131.19 33.9707C130.787 34.3299 130.308 34.6075 129.753 34.8034C129.198 34.9994 128.588 35.0973 127.924 35.0973C127.086 35.0973 126.313 34.9667 125.606 34.7055C124.898 34.4551 124.289 34.1068 123.777 33.6605C123.265 33.2142 122.863 32.6808 122.569 32.0603C122.286 31.4399 122.144 30.7596 122.144 30.0194C122.144 29.0615 122.313 28.3648 122.65 27.9294C122.999 27.494 123.543 27.2763 124.283 27.2763C124.74 27.2763 125.105 27.3634 125.377 27.5375C125.649 27.7117 125.785 27.924 125.785 28.1743C125.785 28.3049 125.764 28.441 125.72 28.5825C125.676 28.7131 125.627 28.8546 125.573 29.007C125.53 29.1485 125.486 29.3009 125.442 29.4642C125.41 29.6275 125.393 29.7908 125.393 29.9541C125.393 30.2371 125.459 30.5092 125.589 30.7704C125.72 31.0317 125.894 31.2603 126.112 31.4562C126.34 31.663 126.602 31.8263 126.896 31.9461C127.19 32.0658 127.5 32.1257 127.826 32.1257C128.697 32.1257 129.133 31.7664 129.133 31.048C129.133 30.482 128.909 29.9486 128.463 29.4479C128.017 28.9363 127.456 28.441 126.781 27.9621C126.106 27.4722 125.377 26.9824 124.593 26.4925C123.821 26.0027 123.097 25.4911 122.422 24.9577C121.747 24.4244 121.186 23.8583 120.74 23.2596C120.294 22.6501 120.071 21.9915 120.071 21.284C120.071 20.6962 120.19 20.1573 120.43 19.6675C120.68 19.1777 121.018 18.7586 121.442 18.4103C121.867 18.051 122.362 17.7735 122.928 17.5775C123.505 17.3816 124.125 17.2836 124.789 17.2836Z" fill="black"/>
<path d="M135.484 14.8018C135.168 14.8018 134.869 14.7583 134.586 14.6712C134.314 14.5732 134.074 14.4426 133.868 14.2793C133.672 14.1051 133.514 13.9038 133.394 13.6752C133.274 13.4466 133.214 13.1962 133.214 12.9241C133.214 12.4669 133.394 12.0968 133.753 11.8138C134.123 11.5308 134.613 11.3893 135.223 11.3893C135.506 11.3893 135.778 11.4437 136.039 11.5526C136.3 11.6505 136.529 11.7866 136.725 11.9608C136.932 12.1349 137.095 12.3417 137.215 12.5812C137.335 12.8098 137.394 13.0493 137.394 13.2996C137.394 13.7677 137.22 14.1378 136.872 14.4099C136.534 14.6712 136.072 14.8018 135.484 14.8018ZM133.247 19.7818C133.247 19.4008 133.41 19.0906 133.737 18.8511C134.074 18.6007 134.515 18.4756 135.06 18.4756C136.039 18.4756 136.562 18.813 136.627 19.4879C136.671 19.956 136.714 20.4839 136.758 21.0717C136.812 21.6595 136.861 22.2854 136.905 22.9494C136.959 23.6025 137.003 24.2828 137.035 24.9904C137.079 25.687 137.117 26.3783 137.149 27.064C137.182 27.7389 137.209 28.392 137.231 29.0234C137.253 29.6547 137.264 30.2316 137.264 30.7541C137.264 31.2984 137.068 31.7066 136.676 31.9787C136.295 32.2508 135.734 32.3869 134.994 32.3869C134.657 32.3869 134.39 32.3053 134.194 32.142C134.009 31.9896 133.917 31.761 133.917 31.4562C133.917 29.9541 133.878 28.5499 133.802 27.2436C133.737 25.9265 133.661 24.7564 133.574 23.7331C133.497 22.7099 133.421 21.8609 133.345 21.186C133.28 20.5002 133.247 20.0322 133.247 19.7818Z" fill="black"/>
<path d="M140.497 26.0354C140.497 25.8503 140.518 25.6435 140.562 25.4149C140.606 25.1863 140.627 24.936 140.627 24.6638C140.627 24.4788 140.546 24.3373 140.382 24.2393C140.23 24.1413 140.056 24.0325 139.86 23.9127C139.664 23.793 139.484 23.6406 139.321 23.4556C139.169 23.2705 139.093 23.0038 139.093 22.6555C139.093 22.4051 139.158 22.1548 139.288 21.9044C139.43 21.6541 139.631 21.4255 139.893 21.2186C140.535 20.7397 141.199 20.3097 141.885 19.9287C142.581 19.5478 143.272 19.2267 143.958 18.9654C144.655 18.7042 145.341 18.5028 146.016 18.3613C146.69 18.2198 147.338 18.149 147.959 18.149C149.004 18.149 149.983 18.3449 150.898 18.7368C151.823 19.1178 152.623 19.6457 153.298 20.3206C153.984 20.9846 154.522 21.7684 154.914 22.6718C155.317 23.5644 155.518 24.5223 155.518 25.5455C155.518 26.547 155.306 27.4994 154.882 28.4029C154.468 29.2955 153.907 30.0792 153.2 30.7541C152.492 31.429 151.66 31.9624 150.702 32.3543C149.755 32.757 148.753 32.9584 147.697 32.9584C146.663 32.9584 145.705 32.7842 144.824 32.4359C143.942 32.0876 143.18 31.6086 142.538 30.999C141.895 30.3786 141.395 29.6493 141.036 28.8111C140.676 27.9621 140.497 27.0368 140.497 26.0354ZM148.057 30.0194C148.514 30.0194 148.987 29.9268 149.477 29.7418C149.967 29.5567 150.413 29.2901 150.816 28.9417C151.23 28.5825 151.567 28.1471 151.828 27.6355C152.1 27.1239 152.236 26.547 152.236 25.9047C152.236 25.2516 152.117 24.6421 151.877 24.076C151.638 23.51 151.306 23.0202 150.881 22.6065C150.468 22.182 149.972 21.85 149.395 21.6105C148.829 21.371 148.214 21.2513 147.55 21.2513C146.342 21.2513 145.417 21.567 144.775 22.1983C144.132 22.8188 143.811 23.7767 143.811 25.072C143.811 25.7796 143.915 26.4381 144.122 27.0477C144.339 27.6464 144.639 28.1689 145.02 28.6152C145.401 29.0506 145.847 29.3935 146.358 29.6438C146.881 29.8942 147.447 30.0194 148.057 30.0194Z" fill="black"/>
</svg>
