<svg width="129" height="30" viewBox="0 0 129 30" fill="none" xmlns="http://www.w3.org/2000/svg">
<path d="M31.5638 0C29.4158 0.0596669 27.3871 0.179001 25.6568 0.417668C25.6568 0.417668 30.1915 1.25301 31.9218 5.31036C35.0245 5.42969 37.7692 5.66836 39.2012 6.14569C40.2155 6.50369 40.9912 6.98103 41.5878 7.69703C42.4828 8.89037 43.0199 11.6947 43.0795 14.5587V14.7377C43.0199 17.6017 42.5425 20.5254 41.5878 21.7784C40.9912 22.4348 40.2155 22.9718 39.2012 23.3298C37.7692 23.8071 34.8455 24.0458 31.6235 24.1651C28.4015 24.0458 25.4181 23.8071 23.9861 23.3298C22.9718 22.9718 22.1961 22.4944 21.6591 21.7784C20.6448 20.5254 20.1674 17.6017 20.1674 14.7377V14.2604C20.2271 11.5157 20.7641 8.89037 21.6591 7.69703C22.0171 7.27936 22.4944 6.8617 23.0911 6.56336C23.0911 6.56336 21.4204 6.14569 16.5874 5.96669C16.2891 6.62303 16.0504 7.3987 15.9311 8.23404C15.5731 10.024 15.3344 12.1721 15.3344 14.3201V14.7377C15.3344 17.0051 15.5134 19.3917 15.9311 21.3011C16.2891 23.0911 16.8857 24.5231 17.7211 25.5971C18.5564 26.6711 19.6901 27.5065 21.1221 28.1031C23.2104 28.9385 27.2678 29.4158 31.6235 29.4755C32.5185 29.4755 33.4135 29.4158 34.3085 29.3561L38.0078 25.8954C38.2465 25.6568 38.4852 25.4778 38.7835 25.2988C39.0818 25.1198 39.3802 24.9408 39.7382 24.9408C40.0962 24.8811 40.3945 24.8811 40.6332 25.0601C40.8122 25.1794 40.9912 25.2988 41.1702 25.4778C41.2895 25.5971 41.3492 25.8358 41.4088 25.9551L42.1248 28.0435C43.5569 27.4468 44.6905 26.6711 45.5855 25.5374C46.4209 24.4634 47.0175 23.0314 47.3755 21.2414C47.7335 19.3321 47.9722 17.0051 47.9722 14.6781V14.5587C47.9125 12.2914 47.7932 9.96438 47.3755 8.1147C47.0175 6.32469 46.3612 4.89269 45.5855 3.81868C44.7502 2.74468 43.5569 1.90934 42.1248 1.31267C39.9172 0.596669 35.9195 0.119334 31.5638 0ZM16.3487 0C15.4537 0 14.5587 0.0596668 13.6637 0.119334L9.96438 3.58002C9.72571 3.81868 9.48704 3.99768 9.18871 4.17668C8.89037 4.35569 8.59204 4.53469 8.23404 4.53469C7.87603 4.59435 7.5777 4.59435 7.33903 4.47502C7.10036 4.35569 6.98103 4.17668 6.80203 4.05735C6.6827 3.87835 6.62303 3.69935 6.56336 3.52035L5.84736 1.43201C4.41535 2.02868 3.28168 2.80434 2.38668 3.93802C1.55134 5.01202 0.954671 6.44403 0.596669 8.23404C0.238668 10.024 0.0596669 12.1721 0 14.3201V14.7377C0 17.0051 0.179001 19.3917 0.596669 21.3011C0.954671 23.0911 1.61101 24.5231 2.38668 25.5971C3.22201 26.6711 4.41535 27.5065 5.84736 28.1031C7.9357 28.9385 11.9334 29.4158 16.2891 29.4755C18.3774 29.4158 20.4658 29.2965 22.1961 29.0578C21.9574 28.9981 17.6017 28.1031 15.9907 24.1651C12.8284 24.0458 10.0837 23.8071 8.71137 23.3298C7.63737 22.9718 6.92136 22.4944 6.32469 21.7784C5.37002 20.5254 4.83302 17.6017 4.83302 14.7377V14.2604C4.95235 11.5157 5.42969 8.89037 6.32469 7.69703C6.92136 7.0407 7.63737 6.50369 8.71137 6.14569C10.0837 5.72802 13.0671 5.42969 16.2891 5.31036C19.5111 5.42969 22.4944 5.66836 23.8668 6.14569C24.9408 6.50369 25.6568 6.98103 26.2534 7.69703C27.2081 8.89037 27.6855 11.6947 27.7451 14.5587V14.7377C27.7451 17.6017 27.2081 20.5254 26.2534 21.7784C25.8954 22.1961 25.4181 22.6138 24.8214 22.9121C24.8214 22.9121 26.4921 23.3298 31.3251 23.5088C31.6235 22.8524 31.8621 22.0768 31.9815 21.2414C32.3395 19.3321 32.5781 17.0051 32.5781 14.6781V14.5587C32.5781 12.2914 32.3991 9.96438 31.9815 8.1147C31.6235 6.32469 31.0268 4.89269 30.1915 3.81868C29.3561 2.74468 28.1628 1.90934 26.7308 1.31267C24.7021 0.596669 20.7044 0.119334 16.3487 0Z" fill="#1579F3"/>
<path d="M55.4307 19.5111C55.908 19.6901 56.445 19.8691 57.0417 19.9884C57.5787 20.1077 58.2947 20.1674 59.0704 20.1674C60.3234 20.1674 61.278 19.9287 61.8747 19.3917C62.4714 18.8547 62.8294 18.1984 62.8294 17.3034C62.8294 16.8857 62.7697 16.5277 62.6504 16.1697C62.531 15.8714 62.352 15.5731 62.0537 15.3941C61.815 15.1554 61.457 14.9764 61.099 14.7974C60.6814 14.6184 60.2637 14.4394 59.7267 14.2007L58.414 13.6637C57.9964 13.4847 57.5787 13.3057 57.2207 13.067C56.8627 12.8284 56.5643 12.5897 56.266 12.2317C55.9677 11.9334 55.7887 11.5157 55.6097 11.098C55.4307 10.6804 55.371 10.203 55.371 9.60637C55.371 8.23403 55.8483 7.10036 56.803 6.32469C57.7577 5.54902 59.0704 5.13135 60.8007 5.13135C61.5167 5.13135 62.2327 5.19101 62.889 5.31035C63.5454 5.42968 64.142 5.60868 64.6194 5.78768C64.5597 6.44402 64.3807 7.04069 64.142 7.69703C63.7244 7.51802 63.247 7.39869 62.71 7.27936C62.173 7.16002 61.5764 7.10036 60.8604 7.10036C59.9057 7.10036 59.13 7.27936 58.6527 7.69703C58.1157 8.11469 57.877 8.6517 57.877 9.42737C57.877 9.7257 57.9367 10.024 58.056 10.2627C58.1754 10.5014 58.3544 10.74 58.593 10.919C58.8317 11.098 59.0704 11.277 59.3687 11.456C59.667 11.635 59.9654 11.7544 60.2637 11.8737L61.5764 12.351C62.173 12.5897 62.71 12.8284 63.1874 13.1267C63.6647 13.425 64.0824 13.7234 64.3807 14.0814C64.7387 14.4394 64.9774 14.8571 65.1564 15.3344C65.3354 15.8117 65.3951 16.4084 65.3951 17.0647C65.3951 18.6161 64.8581 19.8691 63.784 20.8237C62.71 21.7188 61.1587 22.1961 59.1897 22.1961C58.7124 22.1961 58.2947 22.1961 57.877 22.1364C57.519 22.0768 57.161 22.0768 56.803 22.0171C56.445 21.9574 56.1467 21.8978 55.8483 21.7784C55.55 21.6591 55.2517 21.5994 54.8937 21.4801C54.9533 21.1221 55.013 20.8237 55.0727 20.4657C55.192 20.2271 55.3113 19.8691 55.4307 19.5111ZM79.1781 19.3917C79.5958 19.5707 80.0731 19.6901 80.5504 19.8094C81.0278 19.9287 81.5648 19.9287 82.0421 19.9287C82.4001 19.9287 82.7581 19.8691 83.0565 19.8094C83.3548 19.7497 83.6531 19.6304 83.8918 19.4514C84.1305 19.2724 84.3095 19.0934 84.4885 18.9144C84.6078 18.6757 84.7271 18.4371 84.7271 18.1387C84.7271 17.8404 84.6675 17.6017 84.5481 17.3631C84.4288 17.1244 84.2498 17.0051 84.0708 16.8857C83.8918 16.7664 83.6531 16.6471 83.4145 16.5277C83.1758 16.4084 82.8775 16.3487 82.5791 16.2294L81.7438 15.9311C80.7891 15.5731 80.0731 15.1554 79.5958 14.6781C79.1781 14.2007 78.9394 13.6041 78.9394 12.8284C78.9394 11.814 79.2974 10.9787 80.0731 10.3224C80.8488 9.66603 81.9228 9.42737 83.3548 9.42737C83.9515 9.42737 84.5481 9.48703 85.0851 9.60637C85.6818 9.7257 86.1591 9.84503 86.5768 10.024C86.5171 10.3224 86.5171 10.6207 86.3978 10.919C86.3381 11.2174 86.2188 11.5157 86.0995 11.7544C85.7415 11.635 85.3835 11.5157 84.9061 11.3964C84.4288 11.277 83.9515 11.2174 83.4145 11.2174C82.8178 11.2174 82.3405 11.3367 81.9228 11.5157C81.5051 11.6947 81.2665 12.0527 81.2665 12.5897C81.2665 12.8284 81.3261 13.067 81.4454 13.246C81.5648 13.425 81.6841 13.6041 81.8631 13.7234C82.0421 13.8427 82.2808 13.9621 82.5195 14.0814C82.7581 14.2007 82.9968 14.2604 83.2951 14.3797L84.3095 14.7377C84.6675 14.8571 85.0255 14.9764 85.3835 15.1554C85.7415 15.3344 85.9801 15.5134 86.2188 15.8117C86.4575 16.0504 86.6365 16.3487 86.8155 16.7067C86.9348 17.0647 87.0541 17.4824 87.0541 18.0194C87.0541 18.6161 86.9348 19.0934 86.6961 19.5707C86.4575 20.0481 86.1591 20.4657 85.7415 20.7641C85.3238 21.1221 84.7868 21.3608 84.1901 21.5398C83.5935 21.7188 82.9371 21.8381 82.2211 21.8381C81.5051 21.8381 80.8488 21.7784 80.3118 21.6591C79.7748 21.5398 79.2378 21.4204 78.7604 21.2414C78.8201 20.9431 78.8798 20.6447 78.9394 20.2867C78.9394 20.0481 79.0588 19.6901 79.1781 19.3917ZM88.3668 9.7257C88.6055 9.66603 88.7845 9.66603 89.0232 9.66603H90.2762C90.5148 9.66603 90.6938 9.7257 90.8728 9.7257L94.0948 19.4514L97.3169 9.7257C97.4959 9.66603 97.6749 9.66603 97.9135 9.66603H99.1069C99.3455 9.66603 99.5245 9.7257 99.7632 9.7257L95.1688 21.5398C94.9898 21.5994 94.7512 21.5994 94.5722 21.5994H93.4982C93.3192 21.5994 93.1402 21.5398 92.9612 21.5398L88.3668 9.7257ZM108.296 13.7831C108.296 12.888 108.057 12.2317 107.58 11.8737C107.102 11.5157 106.446 11.3367 105.551 11.3367C105.014 11.3367 104.537 11.3964 104.059 11.456C103.582 11.5157 103.164 11.635 102.687 11.814C102.389 11.3367 102.269 10.6804 102.269 10.024C102.806 9.84503 103.343 9.7257 104 9.60637C104.656 9.48703 105.253 9.48703 105.79 9.48703C107.341 9.48703 108.475 9.84503 109.31 10.561C110.145 11.277 110.503 12.351 110.503 13.9024V21.3011C109.966 21.4204 109.31 21.5398 108.534 21.6591C107.759 21.7784 106.983 21.8381 106.207 21.8381C105.432 21.8381 104.775 21.7784 104.179 21.6591C103.582 21.5398 103.045 21.3011 102.627 21.0028C102.21 20.7044 101.852 20.2867 101.673 19.8094C101.434 19.3321 101.315 18.7354 101.315 18.0791C101.315 17.4227 101.434 16.8261 101.732 16.3487C101.971 15.8714 102.389 15.4537 102.806 15.0957C103.284 14.7377 103.821 14.4991 104.417 14.3797C105.014 14.2007 105.67 14.1411 106.327 14.1411C106.804 14.1411 107.222 14.1411 107.52 14.2007C107.818 14.2007 108.117 14.2604 108.296 14.2604V13.7831ZM108.296 15.9907C108.057 15.9311 107.759 15.9311 107.401 15.8714C107.043 15.8117 106.744 15.8117 106.506 15.8117C105.551 15.8117 104.835 15.9907 104.358 16.3487C103.88 16.7067 103.582 17.2437 103.582 17.9597C103.582 18.4371 103.642 18.7951 103.821 19.0337C104 19.2724 104.179 19.5111 104.477 19.6304C104.716 19.7497 105.014 19.8691 105.312 19.8691C105.611 19.9287 105.909 19.9287 106.207 19.9287C106.565 19.9287 106.923 19.9287 107.281 19.8691C107.639 19.8094 107.997 19.7497 108.296 19.6901V15.9907ZM120.945 16.2294C121.005 17.5421 121.303 18.4371 121.959 19.0337C122.616 19.6304 123.511 19.9287 124.764 19.9287C125.838 19.9287 126.912 19.7497 127.866 19.3321C127.986 19.5707 128.105 19.8691 128.165 20.1674C128.224 20.5254 128.284 20.8237 128.284 21.1221C127.807 21.3608 127.21 21.4801 126.613 21.5994C126.017 21.7188 125.36 21.7784 124.585 21.7784C123.511 21.7784 122.616 21.5994 121.84 21.3011C121.064 21.0028 120.468 20.5851 119.931 20.0481C119.453 19.5111 119.095 18.8547 118.857 18.1387C118.618 17.4227 118.499 16.5874 118.499 15.6924C118.499 14.7974 118.618 14.0217 118.857 13.246C119.095 12.4704 119.394 11.814 119.871 11.277C120.348 10.74 120.885 10.2627 121.601 9.96437C122.317 9.60637 123.093 9.48703 124.048 9.48703C124.883 9.48703 125.599 9.60637 126.196 9.9047C126.792 10.203 127.329 10.561 127.747 11.0384C128.165 11.5157 128.463 12.1124 128.702 12.7687C128.94 13.4251 129 14.1411 129 14.9167V15.5731C129 15.8117 128.94 15.9907 128.94 16.1697H120.945V16.2294ZM126.792 14.4991C126.792 14.0814 126.733 13.6637 126.613 13.246C126.494 12.8284 126.315 12.53 126.136 12.2317C125.897 11.9334 125.659 11.6947 125.301 11.5157C124.943 11.3367 124.525 11.277 124.048 11.277C123.093 11.277 122.377 11.5754 121.9 12.1124C121.422 12.709 121.124 13.4847 121.005 14.4991H126.792ZM115.098 4.59435H114.024C113.845 4.59435 113.606 4.65401 113.487 4.65401V21.5398C113.666 21.5994 113.845 21.5994 114.024 21.5994H115.098C115.277 21.5994 115.515 21.5398 115.635 21.5398V4.71368C115.456 4.65401 115.277 4.65401 115.098 4.59435ZM71.6601 27.2081C71.3617 27.2678 71.0037 27.2678 70.5861 27.2678H70.0491C69.8104 27.2678 69.6314 27.2678 69.3927 27.2081L71.3617 21.2414L66.0514 9.7257C66.2304 9.66603 66.4691 9.66603 66.6481 9.66603H67.9011C68.1397 9.66603 68.3187 9.66603 68.4977 9.7257L72.2567 18.3177L74.8821 9.7257C75.1804 9.66603 75.5384 9.66603 75.9561 9.66603H76.4931C76.7318 9.66603 76.9108 9.66603 77.1494 9.7257L71.6601 27.2081Z" fill="#484848"/>
</svg>
